<svg width="612" height="322" viewBox="0 0 612 322" fill="none" xmlns="http://www.w3.org/2000/svg">
<path d="M416.579 175.513L453.669 196.737L453.357 60.9667L408.974 162.821L416.579 175.513Z" fill="#F0134D"/>
<path d="M490.03 116.628V133.17L470.964 144.198V186.646L469.297 187.686L464.713 190.287L453.669 196.737L453.669 154.185L453.565 154.29L416.579 175.513L390.324 190.599V176.658L450.752 42.0317L470.651 30.4834V127.552L490.03 116.628Z" fill="#FF6F5E"/>
<path d="M408.974 162.821L453.357 60.9667L453.565 137.643L408.974 162.821Z" fill="#F0134D"/>
<path d="M337.815 160.116L337.711 146.174L398.138 11.4443L450.752 42.0317L390.324 176.658V190.599L337.815 160.116Z" fill="#DD1452"/>
<path d="M418.037 0L470.651 30.4834L450.752 42.0317L398.138 11.4443L418.037 0Z" fill="#F84156"/>
<path d="M453.669 196.737C453.669 182.588 453.565 168.439 453.565 154.29C446.272 158.451 438.979 162.717 431.686 166.878C431.686 172.6 431.686 178.427 431.686 184.149L453.669 196.737Z" fill="#C60C4F"/>
<path d="M451.898 45.569C432.207 89.2653 412.516 133.066 392.825 176.762V187.166C395.429 185.605 397.93 184.045 400.535 182.484C400.222 179.779 399.805 177.074 399.493 174.369C417.621 132.441 435.645 90.4097 453.773 48.4821L451.898 45.569Z" fill="#FF958D"/>
<path d="M490.03 116.628L470.651 114.859L470.651 127.552L490.03 116.628Z" fill="#C60C4F"/>
<path d="M404.285 176.242L484.612 131.921V122.246L488.675 119.749C488.675 124.014 488.675 128.28 488.675 132.545C460.545 148.463 432.415 164.381 404.285 180.403V176.242Z" fill="#E04F44"/>
<path d="M468.359 138.788C466.796 139.516 465.129 140.244 463.566 140.869C463.566 107.264 463.566 73.5555 463.566 39.9509C465.025 38.9105 466.588 37.8701 468.046 36.7257C468.15 70.8504 468.255 104.767 468.359 138.788Z" fill="#E04F44"/>
<path d="M469.297 185.085L464.713 187.582V149.192C466.172 148.151 467.734 147.215 469.193 146.174C469.297 159.179 469.297 172.184 469.297 185.085Z" fill="#E04F44"/>
<path d="M398.138 11.4443L450.752 41.9276L390.324 176.658V190.599L359.902 172.912V159.491C375.842 124.222 391.783 89.0572 407.723 53.7881C400.222 49.2104 392.825 44.6326 385.323 40.0549L398.138 11.4443Z" fill="#C60C4F"/>
<path d="M398.138 11.4443L450.752 41.9276L390.324 176.658V190.599C389.074 189.871 387.72 189.143 386.469 188.31C386.469 183.524 386.469 178.843 386.365 174.057C405.952 130.569 425.539 87.0805 445.126 43.5923C428.769 34.2288 412.516 24.9693 396.159 15.6058C396.888 14.2533 397.513 12.9008 398.138 11.4443Z" fill="#AF054B"/>
<path d="M453.357 60.9667L431.686 149.92L453.565 137.643L453.357 60.9667Z" fill="#C60C4F"/>
<path d="M359.797 104.143L304.162 72.411C301.974 71.9948 298.64 71.5787 294.785 71.9948C273.74 73.7635 260.091 94.7793 254.465 103.415C234.253 134.626 234.045 169.063 234.358 201.627C234.462 220.25 236.233 235.336 237.587 245.011C258.424 253.334 279.157 261.658 299.994 269.981L359.797 104.143Z" fill="#DD1452"/>
<path d="M359.797 104.143C350.629 98.9409 341.357 93.6349 332.188 88.433C322.812 91.346 307.913 97.2762 294.577 110.385C275.303 129.216 270.51 151.584 266.656 170.624C259.363 207.141 265.405 238.665 271.344 258.432C280.929 262.282 290.41 266.027 299.995 269.877L359.797 104.143Z" fill="#C60C4F"/>
<path d="M359.797 104.143C356.463 102.27 353.025 100.293 349.691 98.4207C342.502 99.6691 330.938 102.79 319.373 111.009C317.29 112.466 310.83 117.356 304.162 125.991C277.387 160.428 280.304 212.343 281.45 232.111C281.867 239.497 283.013 247.82 287.076 256.872C289.16 261.345 291.347 264.779 292.806 266.964C295.202 267.9 297.599 268.836 299.995 269.773L359.797 104.143Z" fill="#AF054B"/>
<path d="M331.459 270.397C326.145 273.102 315.206 278.512 305.933 274.142C274.053 259.369 276.449 137.955 331.667 108.616C337.189 105.703 349.587 99.1489 359.797 104.039C391.886 119.645 386.886 242.722 331.459 270.397Z" fill="#FF6F5E"/>
<path d="M329.479 255.207C328.333 255.519 324.478 256.456 320.31 254.791C293.743 243.971 296.764 138.996 333.75 123.702C336.251 122.662 340.939 120.685 345.523 122.558C370.944 132.753 362.401 246.26 329.479 255.207Z" fill="#F0134D"/>
<path d="M329.479 255.207C325.832 256.143 322.498 255.519 320.31 254.791C332.083 228.885 344.899 188.934 337.814 142.845C336.772 136.083 335.417 129.736 333.75 123.702C337.084 122.142 341.564 120.997 345.523 122.558C370.736 132.753 361.464 247.3 329.479 255.207Z" fill="#C60C4F"/>
<path d="M329.479 255.207C325.832 256.143 322.498 255.519 320.31 254.791C325.415 252.606 329.167 250.005 331.771 248.028C331.771 248.028 367.924 220.562 349.483 132.962C349.066 131.089 348.337 128.28 345.94 126.199C342.294 122.87 336.876 123.182 333.75 123.702C337.084 122.142 341.564 120.997 345.523 122.558C370.736 132.753 361.464 247.3 329.479 255.207Z" fill="#AF054B"/>
<path d="M309.163 133.274C306.246 137.643 302.6 143.782 299.266 151.689C294.056 163.861 292.285 173.641 290.931 181.236C287.597 200.171 288.43 215.776 289.264 224.62C290.306 235.024 292.181 243.763 293.848 250.109C292.181 235.856 291.452 217.961 293.536 197.674C296.244 171.144 302.912 149.192 309.163 133.274Z" fill="#FF958D"/>
<path d="M347.816 120.581C347.503 120.997 351.567 124.118 354.901 129.112C358.86 135.042 359.902 141.077 360.527 146.799C363.652 173.016 361.256 192.472 361.256 192.472C359.902 203.188 357.193 217.857 351.358 234.607C358.443 221.394 362.298 209.534 364.486 201.003C370.008 179.051 368.341 163.861 366.048 143.99C365.632 140.348 364.798 134.002 360.214 128.488C355.422 122.558 348.337 119.853 347.816 120.581Z" fill="#E04F44"/>
<path d="M200.707 300.776L237.797 322L237.484 186.229L193.101 288.083L200.707 300.776Z" fill="#F0134D"/>
<path d="M274.053 241.89V258.432L255.091 269.46V312.012L253.424 312.949L248.84 315.654L237.797 322L237.796 279.448L237.692 279.552L200.707 300.776L174.452 315.966V302.025L234.879 167.294L254.778 155.85V252.814L274.053 241.89Z" fill="#FF6F5E"/>
<path d="M193.101 288.083L237.484 186.229L237.692 262.906L193.101 288.083Z" fill="#F0134D"/>
<path d="M121.838 285.378V271.437L182.265 136.707L234.879 167.294L174.452 302.025V315.966L121.838 285.378Z" fill="#DD1452"/>
<path d="M202.165 125.263L254.778 155.746L234.879 167.294L182.265 136.707L202.165 125.263Z" fill="#F84156"/>
<path d="M237.797 322C237.797 307.851 237.692 293.701 237.692 279.552C230.399 283.714 223.106 287.979 215.813 292.141C215.813 297.863 215.813 303.689 215.813 309.411L237.797 322Z" fill="#C60C4F"/>
<path d="M235.921 170.832C216.23 214.528 196.539 258.328 176.848 302.025V312.428C179.452 310.868 181.953 309.307 184.557 307.747C184.245 305.042 183.828 302.337 183.515 299.632C201.644 257.704 219.668 215.672 237.796 173.745L235.921 170.832Z" fill="#FF958D"/>
<path d="M274.053 241.89L254.778 240.225L254.778 252.814L274.053 241.89Z" fill="#C60C4F"/>
<path d="M188.412 301.504L268.739 257.184V247.508L272.802 245.011C272.802 249.277 272.802 253.542 272.802 257.808C244.672 273.726 216.542 289.644 188.412 305.666V301.504Z" fill="#E04F44"/>
<path d="M252.486 264.05C250.923 264.779 249.256 265.507 247.694 266.131C247.694 232.527 247.694 198.818 247.694 165.214C249.152 164.173 250.715 163.133 252.174 161.988C252.278 196.113 252.382 230.134 252.486 264.05Z" fill="#E04F44"/>
<path d="M253.424 310.452L248.84 312.949V274.558C250.299 273.518 251.862 272.581 253.32 271.541C253.424 284.442 253.424 297.447 253.424 310.452Z" fill="#E04F44"/>
<path d="M182.265 136.707L234.879 167.19L174.451 301.921V315.862L144.029 298.175V284.754C159.97 249.485 175.91 214.32 191.85 179.051C184.349 174.473 176.952 169.895 169.451 165.318L182.265 136.707Z" fill="#C60C4F"/>
<path d="M182.265 136.707L234.879 167.19L174.451 301.921V315.862C173.201 315.133 171.847 314.405 170.597 313.573C170.597 308.787 170.597 304.105 170.492 299.32C190.079 255.831 209.666 212.343 229.253 168.855C212.896 159.491 196.643 150.232 180.286 140.868C181.015 139.62 181.64 138.163 182.265 136.707Z" fill="#AF054B"/>
<path d="M237.484 186.229L215.813 275.287L237.692 262.906L237.484 186.229Z" fill="#C60C4F"/>
<path d="M600.104 235.824L600.009 253.069L593.748 251.932C593.369 250.416 592.61 248.426 591.471 246.342C590.333 244.352 589.1 242.836 588.056 241.793C592.041 239.804 596.12 237.814 600.104 235.824Z" fill="#C5C5C5"/>
<path d="M610.919 254.775C605.227 253.827 599.44 252.88 593.748 251.932C593.369 250.606 592.8 249.184 592.041 247.573C590.808 245.015 589.29 243.12 588.057 241.699C592.041 239.709 596.12 237.719 600.104 235.729C597.923 233.929 595.172 231.939 591.946 229.949C588.436 227.864 585.116 226.443 582.27 225.306C578.286 227.58 574.397 229.854 570.412 232.128C568.23 231.086 565.29 230.044 561.59 229.38C557.89 228.717 554.665 228.717 552.199 228.812C551.535 225.496 550.965 222.274 550.301 218.957C547.076 218.578 542.807 218.294 538.064 218.768C532.941 219.242 528.673 220.379 525.352 221.421C526.775 224.738 528.198 228.054 529.621 231.37C527.629 231.749 524.499 232.507 521.083 234.497C518.048 236.298 516.056 238.382 514.728 239.898C509.226 238.761 503.724 237.624 498.221 236.392C497.083 237.719 495.376 239.993 494.237 243.215C493.099 246.342 492.909 248.995 492.909 250.7L509.89 252.974C510.079 254.301 510.554 255.817 511.313 257.523C512.736 260.744 514.823 262.924 516.245 264.156C512.261 266.43 508.277 268.609 504.293 270.788C506.38 272.494 508.941 274.389 511.977 276.189C515.771 278.463 519.376 279.98 522.412 281.117C526.396 278.842 530.285 276.568 534.269 274.294C536.262 274.958 538.443 275.526 540.815 276C544.515 276.758 547.835 277.137 550.87 277.326C552.104 280.643 553.432 283.864 554.665 287.181C558.175 287.276 562.159 287.181 566.428 286.707C571.361 286.233 575.725 285.381 579.519 284.433C578.096 281.117 576.578 277.8 575.155 274.484C577.337 273.82 580.088 272.778 583.124 270.978C585.97 269.272 588.152 267.282 589.669 265.766C594.982 267.093 600.294 268.419 605.701 269.746C606.935 268.325 608.737 265.861 609.97 262.355C610.919 259.323 611.014 256.575 610.919 254.775ZM572.879 258.66C571.74 260.46 569.938 261.881 567.756 263.018C562.349 264.061 557.89 264.44 554.76 264.535C541.574 264.914 536.167 261.502 535.028 260.744C532.467 259.039 531.424 257.333 530.854 256.101C530.475 255.343 529.431 253.164 529.906 250.606C530.475 248.142 532.372 245.963 535.028 244.352C536.641 243.404 538.443 242.551 540.436 241.983C544.04 240.846 548.025 240.277 551.535 240.372C555.329 240.467 559.503 241.414 563.203 242.836C569.179 245.205 573.922 249.089 574.207 253.638C574.397 256.101 573.258 258.091 572.879 258.66Z" fill="#F5F0E3"/>
<path d="M525.446 221.611C525.446 225.306 525.446 229.001 525.446 232.697C526.869 232.318 528.292 231.939 529.715 231.56C528.197 228.338 526.774 225.022 525.446 221.611Z" fill="#A8A8A8"/>
<path d="M493.003 250.985L492.909 269.272L504.292 271.073L509.889 267.946V253.164L493.003 250.985Z" fill="#D1CDC3"/>
<path d="M516.245 264.345L509.984 267.946V253.164C510.268 254.68 510.838 256.765 512.071 259.039C513.399 261.597 515.012 263.303 516.245 264.345Z" fill="#847F73"/>
<path d="M504.292 271.073L504.197 289.36C506.474 291.161 509.225 293.245 512.545 295.14C516.15 297.225 519.47 298.646 522.316 299.688C522.316 293.624 522.316 287.465 522.411 281.401C519.66 280.453 516.53 279.032 513.209 277.232C509.605 275.147 506.664 272.968 504.292 271.073Z" fill="#9E9C97"/>
<path d="M534.174 292.771L534.269 274.484L522.411 281.306V299.594L534.174 292.771Z" fill="#C5C5C5"/>
<path d="M550.775 277.516C550.775 283.58 550.775 289.739 550.68 295.803C550.206 295.803 549.826 295.803 549.352 295.803C548.783 295.803 548.308 295.803 547.739 295.709C547.17 295.709 546.696 295.614 546.127 295.614C544.798 295.519 543.281 295.33 541.763 294.951C541.478 294.856 541.288 294.856 541.004 294.761C539.866 294.477 538.727 294.193 537.779 293.908C536.545 293.529 535.312 293.15 534.269 292.677C534.269 286.612 534.269 280.453 534.363 274.389C535.407 274.673 536.64 275.052 537.779 275.336C538.822 275.621 539.96 275.81 541.004 276.095C541.383 276.189 541.858 276.284 542.237 276.379C543.565 276.663 544.893 276.853 546.127 277.042C546.696 277.137 547.265 277.232 547.739 277.232C548.308 277.326 548.878 277.326 549.352 277.421C549.826 277.421 550.3 277.516 550.775 277.516Z" fill="#9E9C97"/>
<path d="M554.57 287.37L554.475 305.658C558.364 305.753 562.918 305.658 567.945 304.995C572.214 304.521 576.009 303.763 579.329 302.91C579.329 296.846 579.329 290.687 579.424 284.622C575.914 285.475 571.835 286.328 567.281 286.802C562.633 287.37 558.269 287.465 554.57 287.37Z" fill="#D1CDC3"/>
<path d="M550.775 295.804L554.57 305.658L554.57 287.37L550.775 277.516L550.775 295.804Z" fill="#847F73"/>
<path d="M589.574 265.956V284.243L605.606 288.223V269.935L589.574 265.956Z" fill="#9E9C97"/>
<path d="M610.919 254.775C610.919 261.976 610.823 269.177 610.823 276.379C610.633 277.895 610.254 279.79 609.495 281.875C608.357 284.812 606.839 286.897 605.606 288.318C605.606 282.254 605.606 276.095 605.701 270.03C606.934 268.609 608.926 265.956 610.159 262.071C610.918 259.133 611.014 256.575 610.919 254.775Z" fill="#A8A8A8"/>
<path d="M575.06 274.673C577.431 274.01 580.657 272.778 584.072 270.504C586.443 268.988 588.246 267.377 589.669 265.956C589.669 272.02 589.669 278.179 589.574 284.243C588.721 285.096 587.771 286.044 586.633 286.991C584.072 289.076 581.51 290.403 579.424 291.255C579.424 289.076 579.424 286.802 579.424 284.622L575.06 274.673Z" fill="#B8B8B8"/>
<path d="M572.879 258.66C571.74 260.46 569.938 261.881 567.756 263.018C566.523 262.45 564.91 261.787 563.107 261.123C557.131 258.944 548.688 257.238 540.34 260.081C539.676 260.271 539.107 260.555 538.443 260.839C537.779 261.123 537.21 261.408 536.546 261.787C535.976 261.502 535.502 261.123 535.028 260.839C533.131 259.512 531.708 257.996 530.854 256.196C530.474 255.438 529.431 253.259 529.905 250.7C530.474 248.237 532.372 246.057 535.028 244.446C536.641 243.499 538.443 242.646 540.435 242.078C544.04 240.941 548.024 240.372 551.534 240.467C555.329 240.562 559.502 241.509 563.202 242.93C569.179 245.299 573.922 249.184 574.206 253.732C574.396 256.101 573.258 258.091 572.879 258.66Z" fill="#D1CDC3"/>
<path d="M572.879 258.66C571.74 260.46 569.938 261.881 567.756 263.018C566.523 262.45 564.91 261.787 563.107 261.123L563.107 243.025C569.084 245.394 573.827 249.279 574.112 253.827C574.396 256.101 573.258 258.091 572.879 258.66Z" fill="#9E9C97"/>
<path d="M540.34 241.983V259.986C539.676 260.176 539.107 260.46 538.443 260.744C537.779 261.029 537.209 261.313 536.545 261.692C535.976 261.408 535.503 261.029 535.028 260.744L535.028 244.446C536.546 243.404 538.443 242.646 540.34 241.983Z" fill="#B8B8B8"/>
<path d="M550.775 277.516C550.775 283.58 550.775 289.739 550.68 295.803C550.206 295.803 549.826 295.803 549.352 295.803C548.783 295.803 548.308 295.803 547.739 295.709V277.232C548.308 277.326 548.878 277.326 549.352 277.421C549.826 277.421 550.3 277.516 550.775 277.516Z" fill="#A8A8A8"/>
<path d="M551.913 277.516L555.139 286.518C558.079 286.707 561.589 286.612 565.289 286.233C570.127 285.76 574.301 284.812 577.811 283.864C577.147 282.064 576.388 280.359 575.724 278.558L559.407 280.359L551.913 277.516Z" fill="#EDE6D6"/>
<path d="M552.862 229.759C556.277 229.949 559.028 230.423 560.736 230.707C565.764 231.655 575.914 233.739 584.926 241.32C586.823 242.93 588.151 244.352 589.005 245.299C584.736 242.551 579.614 239.803 573.637 237.435C556.372 230.707 540.625 230.897 530.854 231.844C534.554 230.991 537.779 230.423 540.34 230.138C543.186 229.949 547.36 229.475 552.862 229.759Z" fill="#FFFEFD"/>
<path d="M523.264 241.035C522.411 243.404 520.703 248.805 522.221 255.438C524.593 265.956 533.13 271.073 534.648 272.02C531.423 271.167 526.3 269.367 521.462 265.008C518.711 262.45 514.917 259.039 513.873 253.259C512.64 246.721 515.675 241.414 516.624 239.803C518.901 240.277 521.083 240.656 523.264 241.035Z" fill="#FFFEFD"/>
<path d="M164.018 58.5376V68.6763L160.318 68.013C160.034 67.1602 159.654 66.0232 158.99 64.6966C158.326 63.5596 157.567 62.612 156.998 62.0435C159.275 60.8117 161.646 59.6746 164.018 58.5376Z" fill="#C5C5C5"/>
<path d="M170.279 69.6238C166.959 69.0553 163.544 68.4868 160.224 67.9182C160.034 67.1602 159.654 66.3074 159.18 65.3599C158.421 63.8438 157.567 62.8015 156.903 61.9487C159.275 60.8116 161.647 59.5798 163.923 58.4428C162.595 57.4005 160.982 56.1686 159.085 55.1263C156.998 53.8945 155.101 53.0417 153.393 52.3785C151.117 53.705 148.745 55.0316 146.468 56.3582C145.235 55.7896 143.433 55.1263 141.346 54.7473C139.164 54.3683 137.267 54.3683 135.844 54.4631C135.464 52.568 135.085 50.6729 134.705 48.683C132.808 48.3988 130.342 48.304 127.496 48.5883C124.46 48.8725 121.994 49.5358 120.096 50.1991C120.95 52.1889 121.709 54.084 122.563 56.0739C121.425 56.2634 119.527 56.7372 117.535 57.8742C115.733 58.9165 114.594 60.1483 113.836 61.0011C110.61 60.3379 107.385 59.6746 104.159 59.0113C103.495 59.7693 102.547 61.0959 101.788 62.991C101.124 64.7913 101.029 66.4022 101.029 67.3497L110.99 68.6763C111.084 69.4343 111.369 70.3819 111.843 71.3294C112.697 73.2245 113.93 74.4563 114.689 75.2144C112.318 76.5409 110.041 77.7727 107.669 79.0993C108.903 80.1416 110.42 81.1839 112.223 82.2262C114.405 83.5528 116.587 84.4056 118.294 85.0689C120.571 83.7423 122.942 82.4157 125.219 81.0892C126.357 81.4682 127.686 81.7524 129.014 82.0367C131.195 82.5105 133.093 82.7 134.895 82.7947C135.654 84.6898 136.413 86.6797 137.077 88.5748C139.164 88.6695 141.441 88.5748 144.002 88.2905C146.848 88.0063 149.409 87.5325 151.591 86.964C150.737 84.9741 149.883 83.079 149.03 81.0892C150.263 80.7101 151.97 80.1416 153.678 79.0045C155.386 77.9622 156.619 76.8252 157.567 75.9724C160.698 76.7304 163.828 77.4885 166.959 78.3413C167.718 77.4885 168.761 76.0671 169.425 73.9825C170.279 72.277 170.374 70.6661 170.279 69.6238ZM148.081 71.8032C147.417 72.8455 146.374 73.6983 145.045 74.3616C141.915 75.0248 139.259 75.2144 137.456 75.2144C129.772 75.4039 126.642 73.5088 125.883 73.035C124.365 71.9927 123.796 71.0451 123.417 70.3819C123.227 70.0028 122.563 68.6763 122.848 67.1602C123.132 65.7389 124.27 64.5071 125.883 63.5595C126.832 62.991 127.875 62.5172 129.014 62.1382C131.101 61.4749 133.472 61.1907 135.464 61.1907C137.741 61.2854 140.113 61.7592 142.294 62.612C145.804 64.0333 148.555 66.3074 148.745 68.9605C148.935 70.3819 148.271 71.5189 148.081 71.8032Z" fill="#F5F0E3"/>
<path d="M120.286 50.1991C120.286 52.3784 120.286 54.5578 120.286 56.7372C121.139 56.5477 121.898 56.2634 122.752 56.0739C121.898 54.084 121.139 52.1889 120.286 50.1991Z" fill="#A8A8A8"/>
<path d="M101.313 67.3497V78.057L107.954 79.0993L111.179 77.2989V68.6763L101.313 67.3497Z" fill="#D1CDC3"/>
<path d="M114.879 75.2144L111.179 77.2989V68.6763C111.369 69.529 111.653 70.7609 112.412 72.0875C113.266 73.6035 114.214 74.5511 114.879 75.2144Z" fill="#847F73"/>
<path d="M107.954 79.0993L107.954 89.8066C109.282 90.8489 110.895 92.0807 112.887 93.2177C114.974 94.4495 116.966 95.2076 118.579 95.8709C118.579 92.2702 118.579 88.7643 118.579 85.1636C116.966 84.595 115.163 83.837 113.171 82.7C111.084 81.4681 109.282 80.2363 107.954 79.0993Z" fill="#9E9C97"/>
<path d="M125.409 91.7964L125.504 81.0891L118.579 85.1636L118.484 95.8708L125.409 91.7964Z" fill="#C5C5C5"/>
<path d="M135.18 82.8895C135.18 86.4902 135.18 89.9961 135.18 93.5968C134.895 93.5968 134.705 93.5968 134.421 93.5968C134.136 93.5968 133.757 93.5968 133.472 93.5968C133.188 93.5968 132.808 93.5968 132.524 93.502C131.765 93.4073 130.911 93.3125 129.962 93.123C129.773 93.123 129.678 93.0282 129.488 93.0282C128.824 92.8387 128.16 92.744 127.591 92.5545C126.832 92.365 126.168 92.0807 125.599 91.8912C125.599 88.2905 125.599 84.7846 125.599 81.1839C126.263 81.3734 126.927 81.5629 127.591 81.7524C128.16 81.9419 128.824 82.0367 129.488 82.2262C129.773 82.321 129.962 82.321 130.247 82.4157C131.006 82.6052 131.765 82.7 132.524 82.7947C132.808 82.7947 133.188 82.8895 133.472 82.8895C133.757 82.8895 134.136 82.9842 134.421 82.9842C134.611 82.8895 134.895 82.8895 135.18 82.8895Z" fill="#9E9C97"/>
<path d="M137.361 88.6696V99.3769C139.638 99.4716 142.294 99.3769 145.235 98.9978C147.702 98.7136 149.978 98.2398 151.876 97.766C151.876 94.1654 151.876 90.6594 151.876 87.0587C149.789 87.5325 147.417 88.0063 144.761 88.2906C142.01 88.6696 139.543 88.7643 137.361 88.6696Z" fill="#D1CDC3"/>
<path d="M135.084 93.5968L137.361 99.3769V88.6696L135.084 82.8895V93.5968Z" fill="#847F73"/>
<path d="M157.852 76.1619V86.8692L167.148 89.1433L167.243 78.436L157.852 76.1619Z" fill="#9E9C97"/>
<path d="M170.279 69.6238C170.279 73.793 170.184 78.057 170.184 82.2262C170.089 83.079 169.899 84.2161 169.425 85.4479C168.761 87.1535 167.812 88.3853 167.148 89.2381C167.148 85.6374 167.148 82.1315 167.148 78.5308C167.907 77.678 169.045 76.1619 169.709 73.8878C170.279 72.0874 170.374 70.5714 170.279 69.6238Z" fill="#A8A8A8"/>
<path d="M149.314 81.2786C150.737 80.8996 152.634 80.1416 154.531 78.815C155.86 77.9622 156.998 77.0147 157.757 76.1619C157.757 79.7626 157.757 83.2685 157.757 86.8692C157.282 87.343 156.713 87.9115 156.049 88.48C154.531 89.7118 153.014 90.4699 151.875 90.9436C151.875 89.6171 151.876 88.3853 151.876 87.0587L149.314 81.2786Z" fill="#B8B8B8"/>
<path d="M148.081 71.8032C147.417 72.8455 146.374 73.6983 145.045 74.3616C144.287 73.9825 143.433 73.6035 142.389 73.2245C138.879 71.9927 133.947 70.9504 129.109 72.656C128.729 72.7507 128.35 72.9402 127.97 73.035C127.591 73.2245 127.211 73.414 126.832 73.6035C126.547 73.414 126.168 73.2245 125.883 73.035C124.84 72.277 123.986 71.4242 123.417 70.3819C123.227 70.0028 122.563 68.6763 122.848 67.1602C123.132 65.7389 124.27 64.5071 125.883 63.5595C126.832 62.991 127.875 62.5172 129.014 62.1382C131.101 61.4749 133.472 61.1907 135.464 61.1907C137.741 61.2854 140.113 61.7592 142.294 62.612C145.804 64.0333 148.555 66.3074 148.745 68.9605C148.935 70.3819 148.271 71.5189 148.081 71.8032Z" fill="#D1CDC3"/>
<path d="M148.081 71.8032C147.417 72.8455 146.374 73.6983 145.045 74.3616C144.287 73.9825 143.433 73.6035 142.389 73.2245L142.389 62.612C145.899 64.0333 148.65 66.3074 148.839 68.9605C148.934 70.3819 148.271 71.5189 148.081 71.8032Z" fill="#9E9C97"/>
<path d="M129.014 62.1382L129.013 72.6559C128.634 72.7507 128.255 72.9402 127.875 73.035C127.496 73.2245 127.116 73.414 126.737 73.6035C126.452 73.414 126.073 73.2245 125.788 73.035V63.4647C126.832 62.8962 127.875 62.5172 129.014 62.1382Z" fill="#B8B8B8"/>
<path d="M135.18 82.8895C135.18 86.4902 135.18 89.9961 135.18 93.5968C134.895 93.5968 134.705 93.5968 134.421 93.5968C134.136 93.5968 133.757 93.5968 133.472 93.5968L133.472 82.7C133.756 82.7 134.136 82.7947 134.42 82.7947C134.61 82.8895 134.895 82.8895 135.18 82.8895Z" fill="#A8A8A8"/>
<path d="M135.843 82.8895L137.741 88.1957C139.448 88.2905 141.535 88.2905 143.717 88.0062C146.563 87.722 149.029 87.1534 151.022 86.5849C150.642 85.5426 150.168 84.5003 149.788 83.458L140.207 84.5003L135.843 82.8895Z" fill="#EDE6D6"/>
<path d="M136.318 54.9369C138.31 55.0316 139.923 55.3159 140.966 55.5054C143.907 56.0739 149.883 57.211 155.101 61.7592C156.239 62.7068 156.998 63.5595 157.472 64.1281C155.006 62.5172 151.97 60.9064 148.46 59.4851C138.405 55.5054 129.203 55.6001 123.416 56.2634C125.598 55.6949 127.495 55.4106 128.918 55.3159C130.626 55.0316 133.092 54.7474 136.318 54.9369Z" fill="#FFFEFD"/>
<path d="M119.053 61.5697C118.578 62.991 117.535 66.1179 118.483 70.0029C119.906 76.1619 124.839 79.1941 125.788 79.6679C123.891 79.1941 120.855 78.1518 118.104 75.5934C116.491 74.0773 114.309 72.0875 113.645 68.7711C112.886 64.8861 114.689 61.854 115.258 60.9064C116.491 61.0959 117.724 61.2854 119.053 61.5697Z" fill="#FFFEFD"/>
<path d="M564.91 68.4868V74.3616L575.724 80.6154V74.7406L564.91 68.4868Z" fill="#F0134D"/>
<path d="M539.866 99.5663V105.441L551.155 111.979V106.01L539.866 99.5663Z" fill="#F0134D"/>
<path d="M539.866 99.5663C539.866 100.04 539.866 100.609 539.866 101.082C543.091 102.977 546.317 104.873 549.542 106.673C549.542 108.094 549.447 109.516 549.447 110.937C550.017 111.221 550.586 111.6 551.155 111.884C551.155 109.895 551.155 107.999 551.155 106.01L539.866 99.5663Z" fill="#E20C4E"/>
<path d="M556.657 89.8066V95.6814L567.946 102.125V96.2499L556.657 89.8066Z" fill="#F0134D"/>
<path d="M551.155 106.01L563.108 99.0925V104.967L551.155 111.979V106.01Z" fill="#AF054B"/>
<path d="M551.155 106.01L563.108 99.0925V104.967C562.633 105.252 562.064 105.536 561.59 105.82C561.59 104.399 561.495 102.977 561.495 101.556C558.08 103.451 554.57 105.346 551.155 107.241C551.155 106.957 551.155 106.483 551.155 106.01Z" fill="#9B074A"/>
<path d="M539.866 99.5663L551.819 92.6493L563.108 99.0925L551.155 106.01L539.866 99.5663Z" fill="#FF6F5E"/>
<path d="M611.203 86.3954C608.832 92.744 595.741 95.5866 588.151 94.7338C585.116 94.4496 583.503 94.3548 580.468 94.1653C577.053 93.9758 575.914 93.9758 574.681 94.1653C571.74 94.5443 569.369 95.5866 567.946 96.3447C564.151 94.1653 560.451 91.9859 556.657 89.8066C559.123 88.3853 563.013 86.6797 568.04 86.0164C570.981 85.6374 574.017 85.8269 579.993 86.2059C587.772 86.6797 590.618 87.343 594.033 85.4479C594.507 85.1636 595.361 84.7846 596.025 84.1213C596.879 83.458 597.638 82.5105 597.733 81.3734C598.017 78.1518 592.515 75.2144 589.574 74.1721C583.788 72.0874 578.286 73.6983 575.724 74.7406C572.12 72.656 568.515 70.5714 564.91 68.4868C567.945 67.1602 573.353 65.2651 580.183 65.2651C587.013 65.2651 592.041 67.0654 595.646 68.4868C595.646 68.4868 604.278 71.8032 609.401 77.5832C610.16 78.436 611.013 79.5731 611.488 81.2787C611.583 81.1839 612.247 83.7423 611.203 86.3954Z" fill="#FF6F5E"/>
<path d="M567.946 102.125C568.799 101.556 570.127 100.893 571.93 100.419C574.206 99.7558 576.103 99.8506 577.147 99.9453C583.598 100.23 586.349 100.609 589.669 100.703C592.704 100.798 595.93 100.893 600.009 99.8506C602.95 99.0926 606.27 98.2398 609.021 95.3024C610.539 93.5968 611.393 91.7964 611.772 90.6594C611.772 88.0062 611.867 85.2584 611.867 82.6052C611.582 84.1213 610.728 86.6797 608.547 89.1433C606.27 91.6069 603.709 92.5545 601.052 93.4073C601.052 93.4073 596.594 94.9233 590.997 94.8286C589.859 94.8286 589.384 94.7338 587.013 94.5443C585.115 94.3548 583.123 94.2601 580.562 94.0705C578.57 93.9758 577.621 93.881 576.578 93.9758C574.775 94.0706 573.068 94.0705 571.171 94.7338C569.842 95.2076 568.799 95.7761 568.135 96.1552C567.945 98.2398 567.946 100.23 567.946 102.125Z" fill="#AF054B"/>
<path d="M597.827 81.4682C597.732 82.6052 596.974 83.458 596.12 84.2161C595.076 83.1738 593.748 82.0367 592.041 81.0891C587.677 78.7203 583.598 79.0045 581.985 79.0993C579.234 79.2888 577.052 80.0469 575.724 80.6154C575.724 78.6255 575.724 76.7304 575.724 74.7406C578.38 73.6983 583.788 72.1822 589.574 74.1721C592.705 75.3091 598.112 78.1518 597.827 81.4682Z" fill="#AF054B"/>
<path d="M570.697 67.255C570.697 66.9707 575.914 65.3599 582.27 65.5494C590.713 65.9284 597.069 69.3396 596.974 69.7186C596.879 70.0029 591.377 67.634 582.555 67.0655C575.535 66.5917 570.697 67.5393 570.697 67.255Z" fill="#FF958D"/>
<path d="M609.021 87.0587C603.519 89.9961 598.871 90.9437 595.74 91.2279C587.013 92.0807 581.89 89.0486 571.93 90.8489C568.799 91.4174 566.428 92.1755 564.91 92.744C566.048 93.4073 567.281 94.0706 568.42 94.7339C570.127 94.0706 572.784 93.2178 576.009 92.8388C580.942 92.365 582.175 93.502 588.246 93.6916C592.325 93.7863 597.068 93.9758 602.191 91.7017C605.322 90.2804 607.598 88.3853 609.021 87.0587Z" fill="#E04F44"/>
<path d="M546.981 102.125L551.155 104.778L561.305 98.9031L559.313 97.766L550.87 102.788L548.783 101.272L546.981 102.125Z" fill="#E04F44"/>
<path d="M544.799 97.766L551.819 93.5968L557.131 96.6289L544.799 97.766Z" fill="#FF958D"/>
<path d="M20.7748 172.338V177.265L29.7868 182.382V177.55L20.7748 172.338Z" fill="#F0134D"/>
<path d="M0 198.111V202.944L9.39145 208.345V203.512L0 198.111Z" fill="#F0134D"/>
<path d="M0 198.111C0 198.49 0 198.964 0 199.343C2.65617 200.859 5.4072 202.47 8.06336 203.986C8.06336 205.218 7.9685 206.355 7.9685 207.587C8.44281 207.871 8.91713 208.155 9.39145 208.44C9.39145 206.829 9.39145 205.218 9.39145 203.607L0 198.111Z" fill="#E20C4E"/>
<path d="M13.9451 190.057V194.89L23.3366 200.291V195.458L13.9451 190.057Z" fill="#F0134D"/>
<path d="M9.39145 203.512L19.2575 197.732V202.66L9.39145 208.345V203.512Z" fill="#AF054B"/>
<path d="M9.39145 203.512L19.2575 197.732L19.2569 202.565C18.7826 202.849 18.4031 203.039 17.9288 203.323C17.9288 202.186 17.9288 200.954 17.8339 199.817C14.9881 201.428 12.1422 202.944 9.29626 204.555C9.39113 204.27 9.39145 203.891 9.39145 203.512Z" fill="#9B074A"/>
<path d="M0 198.111L9.96062 192.331L19.2575 197.732L9.39145 203.512L0 198.111Z" fill="#FF6F5E"/>
<path d="M59.1948 187.215C57.2976 192.521 46.2934 194.795 40.0325 194.132C37.4712 193.847 36.238 193.753 33.6767 193.658C30.8308 193.468 29.8821 193.468 28.9335 193.658C26.4671 193.942 24.5698 194.795 23.3366 195.458C20.2061 193.658 17.0756 191.858 13.9451 190.057C16.0321 188.92 19.2575 187.404 23.3366 186.93C25.803 186.646 28.2695 186.741 33.2972 187.12C39.7479 187.499 42.1195 188.067 44.9654 186.551C45.3448 186.362 46.0089 185.983 46.6729 185.509C47.3369 184.94 48.001 184.182 48.0958 183.235C48.3804 180.487 43.827 178.118 41.2657 177.265C36.4277 175.56 31.9691 176.886 29.7873 177.739C26.7516 176.034 23.8109 174.328 20.7753 172.528C23.3366 171.391 27.7951 169.874 33.4869 169.78C39.1787 169.78 43.2578 171.296 46.2934 172.433C46.2934 172.433 53.4082 175.181 57.677 180.013C58.3411 180.771 59.0051 181.719 59.3845 183.045C59.4794 182.951 60.0486 185.035 59.1948 187.215Z" fill="#FF6F5E"/>
<path d="M23.3366 200.291C24.0955 199.817 25.1386 199.248 26.5615 198.869C28.4588 198.301 29.9766 198.396 30.8304 198.396C36.1427 198.68 38.4194 198.964 41.2653 199.059C43.8266 199.154 46.4828 199.154 49.803 198.396C52.2694 197.827 55.0205 197.069 57.2972 194.605C58.6252 193.184 59.2893 191.763 59.5739 190.72C59.5739 188.541 59.6687 186.267 59.6687 184.088C59.3842 185.319 58.7201 187.499 56.9177 189.489C55.0205 191.573 52.8386 192.331 50.6567 193.089C50.6567 193.089 46.9571 194.321 42.3088 194.321C41.3602 194.321 40.9807 194.226 38.9886 194.132C37.3759 194.037 35.7632 193.847 33.6763 193.753C32.0636 193.658 31.2098 193.658 30.356 193.658C28.8382 193.658 27.5102 193.753 25.8975 194.321C24.7591 194.7 23.9054 195.174 23.3362 195.553C23.3362 197.069 23.3366 198.68 23.3366 200.291Z" fill="#AF054B"/>
<path d="M48.0954 183.14C48.0005 184.088 47.3365 184.846 46.6724 185.414C45.8187 184.561 44.6803 183.614 43.2574 182.856C39.6526 180.961 36.2375 181.15 34.9094 181.245C32.6327 181.434 30.8303 182.003 29.692 182.477C29.692 180.866 29.692 179.255 29.692 177.644C31.8738 176.791 36.4272 175.465 41.1704 177.171C43.8266 178.023 48.38 180.392 48.0954 183.14Z" fill="#AF054B"/>
<path d="M25.5184 171.296C25.5184 171.012 29.8821 169.685 35.1944 169.874C42.1194 170.159 47.5266 173.001 47.4317 173.286C47.3369 173.57 42.7835 171.58 35.479 171.106C29.5975 170.727 25.6132 171.58 25.5184 171.296Z" fill="#FF958D"/>
<path d="M57.2972 187.783C52.7437 190.247 48.8543 191.005 46.293 191.289C39.0834 192.047 34.8146 189.489 26.5615 190.91C24.0002 191.384 22.0081 192.047 20.68 192.521C21.6286 193.089 22.6721 193.563 23.6207 194.132C25.0437 193.563 27.2255 192.805 29.9766 192.616C34.0557 192.142 35.0992 193.184 40.1269 193.374C43.4471 193.468 47.4314 193.563 51.7002 191.668C54.3564 190.436 56.1588 188.825 57.2972 187.783Z" fill="#E04F44"/>
<path d="M5.88177 200.291L9.39171 202.47L17.8345 197.543L16.127 196.69L9.10712 200.764L7.39958 199.533L5.88177 200.291Z" fill="#E04F44"/>
<path d="M4.07941 196.69L9.86605 193.184L14.3246 195.648L4.07941 196.69Z" fill="#FF958D"/>
</svg>
