<?xml version="1.0" encoding="utf-8"?><svg viewBox="0 0 159 103" xmlns="http://www.w3.org/2000/svg" xmlns:xlink="http://www.w3.org/1999/xlink"><style>:root>svg{display:none}:root>svg:target{display:block}</style><svg viewBox="0 0 88 103" id="apple" xmlns="http://www.w3.org/2000/svg"><path d="M62.021 0c-5.639.38-12.23 3.905-16.07 8.494-3.505 4.163-6.387 10.346-5.263 16.355 6.161.187 12.527-3.42 16.216-8.087C60.355 12.418 62.967 6.274 62.021 0z"/><path d="M84.152 35.143c-5.22-6.51-12.556-10.287-19.484-10.287-9.146 0-13.014 4.354-19.368 4.354-6.552 0-11.53-4.341-19.44-4.341-7.768 0-16.041 4.722-21.286 12.796-7.374 11.371-6.112 32.75 5.838 50.96 4.276 6.515 9.987 13.842 17.456 13.905 6.648.064 8.522-4.24 17.527-4.284 9.006-.051 10.714 4.341 17.349 4.272 7.476-.057 13.498-8.177 17.775-14.692 3.066-4.671 4.206-7.023 6.584-12.296-17.291-6.548-20.064-31-2.951-40.387z"/></svg><svg viewBox="0 0 7 4" id="arrow-down" xmlns="http://www.w3.org/2000/svg"><path fill-rule="evenodd" clip-rule="evenodd" d="M.147.147a.5.5 0 01.708 0L3.5 2.793 6.146.147a.5.5 0 01.707.708L3.854 3.853a.5.5 0 01-.708 0l-3-2.998a.5.5 0 010-.708z"/></svg><svg viewBox="0 0 34 35" id="check" xmlns="http://www.w3.org/2000/svg"><path fill-rule="evenodd" clip-rule="evenodd" d="M17 .992c4.54 0 8.81 1.763 12.02 4.965A16.817 16.817 0 0134 17.943c0 4.528-1.768 8.785-4.98 11.987A16.913 16.913 0 0117 34.895 16.91 16.91 0 014.98 29.93 16.817 16.817 0 010 17.944 16.81 16.81 0 014.98 5.957 16.913 16.913 0 0117 .992zM1.992 17.943C1.992 26.195 8.725 32.91 17 32.91c8.275 0 15.008-6.714 15.008-14.966 0-8.252-6.733-14.965-15.008-14.965-8.275 0-15.008 6.713-15.008 14.965z"/><path d="M25.121 12.505a.998.998 0 00-1.408 0l-8.796 8.77-4.63-4.616a.998.998 0 00-1.41 0 .991.991 0 000 1.404l5.335 5.32a.995.995 0 001.409 0l9.5-9.474a.991.991 0 000-1.405z"/></svg><svg viewBox="0 0 17 17" id="clock" xmlns="http://www.w3.org/2000/svg"><path d="M8.5 0C3.813 0 0 3.813 0 8.5 0 13.187 3.813 17 8.5 17c4.687 0 8.5-3.813 8.5-8.5C17 3.813 13.187 0 8.5 0zm4.043 12.897a.707.707 0 01-1.002 0L7.999 9.355a.705.705 0 01-.207-.5V4.25a.708.708 0 111.416 0v4.311l3.335 3.334a.708.708 0 010 1.002z"/></svg><svg viewBox="0 0 21 29" id="dots" xmlns="http://www.w3.org/2000/svg"><circle cx="18.236" cy="2.763" r="2.763"/><circle cx="10.5" cy="2.763" r="2.763"/><circle cx="2.763" cy="2.763" r="2.763"/><circle cx="18.238" cy="10.499" r="2.763"/><circle cx="10.501" cy="10.499" r="2.763"/><circle cx="2.763" cy="10.499" r="2.763"/><circle cx="18.238" cy="18.236" r="2.763"/><circle cx="10.501" cy="18.236" r="2.763"/><circle cx="10.501" cy="25.973" r="2.763"/><circle cx="2.763" cy="18.237" r="2.763"/></svg><svg viewBox="0 0 21 21" id="email" xmlns="http://www.w3.org/2000/svg"><path d="M13.92 10.607L21 15.083v-9.14l-7.08 4.664zM0 5.943v9.14l7.08-4.476L0 5.943zm19.686-2.662H1.311c-.654 0-1.174.488-1.273 1.117L10.5 11.29l10.46-6.892c-.098-.628-.618-1.117-1.273-1.117zM12.719 11.4l-1.858 1.224a.655.655 0 01-.722 0l-1.857-1.225-8.24 5.212c.102.623.619 1.108 1.271 1.108h18.375c.652 0 1.17-.485 1.27-1.108l-8.24-5.21z"/></svg><svg viewBox="0 0 87 87" id="github" xmlns="http://www.w3.org/2000/svg"><path d="M43.53.031C19.651.031.057 19.626.057 43.503c0 20.375 14.297 38.884 33.283 43.471V72.592c-1.882.412-3.613.424-5.528-.14-2.569-.759-4.656-2.47-6.206-5.08-.988-1.666-2.738-3.473-4.564-3.34l-.448-5.075c3.949-.338 7.365 2.406 9.393 5.813.9 1.515 1.937 2.403 3.268 2.796 1.286.379 2.667.197 4.276-.371.404-3.222 1.88-4.428 2.995-6.126v-.003C25.204 59.377 20.692 53.37 18.901 48.63c-2.374-6.296-1.1-14.16 3.097-19.131.081-.097.229-.35.171-.527-1.924-5.813.421-10.622.507-11.132 2.221.657 2.582-.66 9.647 3.632l1.221.734c.511.304.35.13.861.092a36.892 36.892 0 019.124-1.284c3.087.04 6.176.482 9.248 1.316l.396.04c-.035-.005.107-.025.345-.167 8.826-5.346 8.509-3.599 10.875-4.368.086.51 2.4 5.397.496 11.137-.257.79 7.651 8.032 3.268 19.656-1.79 4.743-6.303 10.75-17.626 12.44v.002c1.452 2.212 3.196 3.389 3.186 7.952v17.953C72.704 82.387 87 63.878 87 43.503 87 19.626 67.406.03 43.53.03z"/></svg><svg viewBox="0 0 129 78" id="google" xmlns="http://www.w3.org/2000/svg"><path d="M112.26 28.928v-16.07h-8.13v16.07H87.87v8.035h16.26v16.069h8.13v-16.07h16.26v-8.034h-16.26zM39.401 31.4v15.452h22.116C58.288 55.845 49.595 62.304 39.4 62.304c-12.93 0-23.452-10.4-23.452-23.178S26.47 15.95 39.4 15.95c5.605 0 11 1.986 15.19 5.594l10.272-11.65C57.827 3.835 48.79.498 39.4.498 17.848.498.314 17.827.314 39.127c0 21.3 17.534 38.628 39.087 38.628 21.553 0 39.088-17.329 39.088-38.628V31.4H39.4z"/></svg><svg viewBox="0 0 159 64" id="jeep" xmlns="http://www.w3.org/2000/svg"><path d="M39.144.7H25.192c-.68 0-1.232.548-1.232 1.223v35.604s-.307 4.086-4.01 4.086c-3.702 0-3.966-4.086-3.966-4.086V29.36c0-.675-.552-1.223-1.232-1.223H2.092c-.681 0-1.233.548-1.233 1.223v10.32s.793 14.246 19.473 14.246c19.395 0 19.982-17.543 19.982-17.543l.062-34.457A1.228 1.228 0 0039.144.7z"/><path fill-rule="evenodd" clip-rule="evenodd" d="M80.923 34.801a.924.924 0 01-.924.942H57.234c-.56 0-1 .492-.916 1.042.611 3.983 2.785 7.668 6.522 7.668 1.887 0 3.934-.818 5.103-2.302a.92.92 0 01.722-.35h10.22a.922.922 0 01.858 1.266C76.859 50.34 70.18 53.735 62.84 53.735c-10.708 0-18.83-7.198-18.83-19.888 0-10.986 7.015-21.084 17.722-21.084 13.007 0 18.942 7.858 19.191 22.038zm-12.435-7.653c-.43-2.932-2.667-5.219-5.648-5.219-5.563 0-6.336 4.634-6.444 5.922a.305.305 0 00.307.33H67.57c.556 0 .998-.486.918-1.033zm51.52 7.653a.924.924 0 01-.924.942H96.32c-.56 0-1 .492-.916 1.042.61 3.983 2.784 7.668 6.521 7.668 1.887 0 3.934-.818 5.103-2.302a.92.92 0 01.723-.35h10.22a.922.922 0 01.857 1.266c-2.884 7.273-9.563 10.668-16.902 10.668-10.708 0-18.83-7.198-18.83-19.888 0-10.986 7.015-21.084 17.722-21.084 13.006 0 18.942 7.858 19.19 22.038zm-12.436-7.653c-.429-2.932-2.667-5.219-5.648-5.219-5.563 0-6.336 4.634-6.444 5.922a.305.305 0 00.308.33h10.867c.556 0 .997-.486.917-1.033zm26.162-9.27s2.411-5.114 10.308-5.114c2.691 0 14.51.612 14.51 20.077 0 19.466-14.7 19.699-14.7 19.699s-6.806.394-9.738-5.114v15.372a.92.92 0 01-.924.918h-11.322a.92.92 0 01-.924-.918v-48.17a.92.92 0 01.924-.918h10.942c.51 0 .924.41.924.917v3.251zm-.207 14.928c0 4.78 1.545 8.656 6.028 8.656 4.484 0 6.029-3.876 6.029-8.656 0-4.782-1.786-8.658-6.029-8.658-4.242 0-6.028 3.875-6.028 8.658z"/></svg><svg viewBox="0 0 14 21" id="mark" xmlns="http://www.w3.org/2000/svg"><path d="M7 0C3.14 0 0 3.14 0 7c0 1.159.29 2.308.84 3.326l5.777 10.448a.437.437 0 00.766 0l5.779-10.45A7.012 7.012 0 0014 7c0-3.86-3.14-7-7-7zm0 10.5c-1.93 0-3.5-1.57-3.5-3.5S5.07 3.5 7 3.5s3.5 1.57 3.5 3.5-1.57 3.5-3.5 3.5z"/></svg><svg viewBox="0 0 159 55" id="nike" xmlns="http://www.w3.org/2000/svg"><path d="M89.544 18.29l-9.837 2.543-27.293 7.033c-9.64 2.347-18.07 5.474-26.196 2.737-11.044-4.695-10.846-16.91-2.612-29.904C9.048 12.524-17.147 50.337 18.28 54.155c4.513.585 12.549-.974 21.277-4.587l40.15-16.218 79.189-31.871L89.544 18.29z"/></svg><svg viewBox="0 0 94 94" id="play" xmlns="http://www.w3.org/2000/svg"><path d="M47 0C21.083 0 0 21.085 0 47s21.083 47 47 47 47-21.085 47-47S72.917 0 47 0zm0 90.083C23.244 90.083 3.917 70.756 3.917 47 3.917 23.244 23.244 3.917 47 3.917c23.756 0 43.083 19.327 43.083 43.083 0 23.756-19.327 43.083-43.083 43.083z"/><path d="M65.684 45.353L38.269 27.728a1.954 1.954 0 00-1.997-.072 1.956 1.956 0 00-1.021 1.719v35.25a1.956 1.956 0 001.958 1.958 1.95 1.95 0 001.06-.311l27.416-17.625c.559-.36.9-.981.9-1.647s-.341-1.287-.9-1.647zM39.168 61.037V32.963L61.003 47 39.167 61.037z"/></svg><svg viewBox="0 0 16 16" id="search" xmlns="http://www.w3.org/2000/svg"><path d="M15.805 14.862l-4.55-4.55a6.302 6.302 0 001.411-3.979A6.34 6.34 0 006.333 0 6.34 6.34 0 000 6.333a6.34 6.34 0 006.333 6.334c1.507 0 2.89-.531 3.979-1.412l4.55 4.55a.665.665 0 00.943 0 .666.666 0 000-.943zm-9.472-3.529c-2.757 0-5-2.242-5-5 0-2.757 2.243-5 5-5 2.758 0 5 2.243 5 5 0 2.758-2.242 5-5 5z"/></svg><svg viewBox="0 0 104 67" id="tripadvisor" xmlns="http://www.w3.org/2000/svg"><path fill-rule="evenodd" clip-rule="evenodd" d="M103.803 13.5H85.509c-19.397-17.167-47.81-17.167-67.207 0H.008s4.152 5.151 5.838 9.971C2.213 27.961.008 33.64.008 39.913c0 14.592 11.612 26.411 25.948 26.411 8.499 0 16.024-4.226 20.76-10.697l5.449 10.697 4.995-10.63c4.736 6.404 12.196 10.63 20.694 10.63 14.337 0 25.949-11.819 25.949-26.411 0-6.273-2.206-11.952-5.839-16.442 1.687-4.82 5.839-9.97 5.839-9.97zM25.956 59.723c-10.704 0-19.462-8.914-19.462-19.81 0-10.894 8.758-19.808 19.462-19.808s19.461 8.914 19.461 19.809c0 10.895-8.758 19.809-19.461 19.809zm32.436-19.81c0 10.896 8.758 19.81 19.462 19.81s19.462-8.914 19.462-19.81c0-10.894-8.758-19.808-19.462-19.808s-19.462 8.914-19.462 19.809z"/><path fill-rule="evenodd" clip-rule="evenodd" d="M12.982 39.913c0-7.283 5.82-13.206 12.974-13.206 7.156 0 12.975 5.923 12.975 13.206 0 7.283-5.82 13.206-12.975 13.206-7.155 0-12.974-5.923-12.974-13.206zm6.486 0c0 3.638 2.913 6.603 6.487 6.603 3.575 0 6.488-2.965 6.488-6.603 0-3.639-2.913-6.603-6.488-6.603-3.574 0-6.487 2.964-6.487 6.602zm45.412 0c0-7.283 5.818-13.206 12.974-13.206 7.155 0 12.974 5.923 12.974 13.206 0 7.283-5.82 13.206-12.975 13.206-7.155 0-12.974-5.923-12.974-13.206zm6.485 0c0 3.638 2.907 6.603 6.488 6.603 3.58 0 6.487-2.965 6.487-6.603 0-3.639-2.907-6.603-6.487-6.603-3.581 0-6.488 2.964-6.488 6.602z"/><path d="M25.956 43.214c1.791 0 3.243-1.478 3.243-3.301 0-1.824-1.452-3.302-3.243-3.302-1.792 0-3.244 1.478-3.244 3.302 0 1.823 1.452 3.301 3.244 3.301zm51.898 0c1.791 0 3.243-1.478 3.243-3.301 0-1.824-1.452-3.302-3.243-3.302s-3.244 1.478-3.244 3.302c0 1.823 1.453 3.301 3.244 3.301z"/></svg><svg viewBox="0 0 50 50" id="whatsapp" xmlns="http://www.w3.org/2000/svg"><path d="M25 2C12.318 2 2 12.318 2 25c0 3.96 1.023 7.854 2.963 11.29L2.037 46.73a.999.999 0 001.203 1.241l10.896-2.699A23.014 23.014 0 0025 48c12.682 0 23-10.318 23-23S37.682 2 25 2zm11.57 31.116c-.492 1.362-2.852 2.605-3.986 2.772-1.018.149-2.306.213-3.72-.231a34.606 34.606 0 01-3.366-1.229c-5.923-2.526-9.791-8.415-10.087-8.804-.295-.389-2.411-3.161-2.411-6.03s1.525-4.28 2.067-4.864c.542-.584 1.181-.73 1.575-.73s.787.005 1.132.021c.363.018.85-.137 1.329 1.001.492 1.168 1.673 4.037 1.819 4.33.148.292.246.633.05 1.022s-.294.632-.59.973-.62.76-.886 1.022c-.296.291-.603.606-.259 1.19s1.529 2.493 3.285 4.039c2.255 1.986 4.158 2.602 4.748 2.894.59.292.935.243 1.279-.146.344-.39 1.476-1.703 1.869-2.286s.787-.487 1.329-.292c.542.194 3.445 1.604 4.035 1.896.59.292.984.438 1.132.681.148.242.148 1.41-.344 2.771z"/></svg><svg viewBox="0 0 74 74" id="why-we-icon-1" xmlns="http://www.w3.org/2000/svg"><path d="M60.856 59.958c-.6 0-1.084.485-1.084 1.084v10.191a.6.6 0 01-.599.599h-5.827V50.485a1.084 1.084 0 00-2.168 0v21.347H39.444l3.403-3.743a1.943 1.943 0 00.464-1.593L40.07 47.352l.873-1.315c.483.343.855.673 1.552.673.71 0 1.373-.397 1.699-1.05l3.418-6.851 7.787 3.016c.282.12 4.372 1.963 4.372 6.827v7.332a1.084 1.084 0 102.168 0v-7.332c0-6.41-5.487-8.739-5.721-8.835a.637.637 0 00-.02-.008l-12.96-5.02V31.75a10.157 10.157 0 003.843-6.68 4.693 4.693 0 002.757-1.125 4.594 4.594 0 001.598-3.487 4.595 4.595 0 00-1.118-3.007v-4.015C50.318 6.027 44.29 0 36.883 0S23.45 6.027 23.45 13.435v4.12a4.351 4.351 0 00-1.118 2.902c0 1.342.583 2.613 1.599 3.487a4.69 4.69 0 002.755 1.124 10.05 10.05 0 004.063 6.842v2.879l-12.946 5.019a.857.857 0 00-.02.008c-.234.096-5.721 2.426-5.721 8.835v22.582A2.77 2.77 0 0014.827 74h10.328a1.084 1.084 0 000-2.168h-2.332V50.485a1.084 1.084 0 00-2.168 0v21.347h-5.827a.6.6 0 01-.599-.599V48.651c0-4.88 4.118-6.719 4.371-6.827l7.78-3.016 3.42 6.85c.326.656.99 1.051 1.698 1.051.694 0 1.062-.325 1.552-.673l.873 1.315-3.24 19.146-.005.032c-.079.568.097 1.15.469 1.56l3.402 3.743h-4.335a1.084 1.084 0 000 2.168h28.96a2.77 2.77 0 002.766-2.767V61.042c0-.599-.486-1.084-1.084-1.084zM45.582 38.022l-3.187 6.386-3.833-2.722 3.937-4.858 3.083 1.194zm-6.408 6.759l-.826 1.244h-2.703l-.827-1.244 2.178-1.547 2.178 1.547zm-6.258-9.642v-2.03a10.98 10.98 0 004.099.778c1.421 0 2.815-.303 4.054-.845v2.105l-4.073 5.028-4.08-5.036zm16.352-14.682c0 .71-.308 1.382-.844 1.843a2.52 2.52 0 01-1.252.576v-4.838c1.246.202 2.096 1.235 2.096 2.419zm-22.673 2.42c-1.26-.205-2.096-1.247-2.096-2.42 0-1.16.96-2.102 2.096-2.365v4.784zm.058-6.994a5.36 5.36 0 00-1.036.234v-2.682c0-6.213 5.054-11.267 11.266-11.267 6.213 0 11.267 5.054 11.267 11.267v2.607a4.823 4.823 0 00-.977-.189c0-1.046.009-.844-3.413-4.522a1.929 1.929 0 00-2.463-.3c-3.776 2.466-8.383 3.706-12.634 3.4a1.928 1.928 0 00-2.01 1.452zm2.11 7.847v-7.12c4.68.275 9.585-1.115 13.548-3.654 1.57 1.685 2.42 2.57 2.693 2.905v7.869c0 4.4-3.588 7.989-7.989 7.989-4.942 0-8.252-3.834-8.252-7.99zm2.835 20.678l-3.187-6.386 3.078-1.192 3.937 4.86-3.828 2.718zm1.244 22.322l3.137-18.538h2.034l3.138 18.538-4.155 4.57-4.154-4.57z"/></svg><svg viewBox="0 0 84 84" id="why-we-icon-2" xmlns="http://www.w3.org/2000/svg"><g clip-path="url(#qa)"><path d="M58.189 29.665h-3.727a12.964 12.964 0 00-.866-2.093l2.635-2.635c.33-.329.51-.767.51-1.233 0-.466-.18-.903-.51-1.233l-3.101-3.1a1.746 1.746 0 00-2.466 0l-2.635 2.634a13.011 13.011 0 00-2.093-.866v-3.726c0-.962-.782-1.744-1.743-1.744h-4.386c-.961 0-1.744.782-1.744 1.744v3.726c-.722.228-1.421.517-2.092.866l-2.635-2.635a1.746 1.746 0 00-2.466 0l-3.1 3.101c-.33.33-.512.767-.512 1.233 0 .466.182.904.511 1.233l2.635 2.635c-.35.671-.639 1.37-.866 2.093H25.81c-.961 0-1.744.782-1.744 1.743v4.386c0 .961.783 1.744 1.744 1.744h3.727c.227.722.517 1.421.866 2.092l-2.635 2.635c-.68.68-.68 1.786 0 2.466l3.1 3.1c.68.68 1.787.68 2.467 0l2.635-2.634c.67.35 1.37.639 2.092.866v3.727c0 .961.783 1.743 1.744 1.743h4.386c.961 0 1.743-.782 1.743-1.743v-3.727a12.965 12.965 0 002.093-.866l2.635 2.635c.68.68 1.786.68 2.466 0l3.1-3.101c.33-.33.511-.767.511-1.233 0-.466-.181-.904-.51-1.233l-2.635-2.635c.349-.671.639-1.37.866-2.093h3.726c.962 0 1.744-.782 1.744-1.743v-4.386c0-.961-.782-1.743-1.743-1.743zm-.717 5.412h-3.947a1.23 1.23 0 00-1.199.95 10.52 10.52 0 01-1.309 3.16 1.23 1.23 0 00.176 1.52l2.79 2.791-2.086 2.087-2.79-2.791a1.23 1.23 0 00-1.52-.175 10.531 10.531 0 01-3.161 1.309 1.23 1.23 0 00-.95 1.198v3.947h-2.951v-3.947a1.23 1.23 0 00-.95-1.198 10.516 10.516 0 01-3.162-1.31 1.231 1.231 0 00-1.519.176l-2.79 2.79-2.087-2.086 2.79-2.79a1.23 1.23 0 00.176-1.52 10.522 10.522 0 01-1.309-3.161 1.23 1.23 0 00-1.198-.95h-3.947v-2.951h3.947a1.23 1.23 0 001.198-.95 10.524 10.524 0 011.309-3.161 1.23 1.23 0 00-.175-1.52l-2.791-2.79 2.086-2.087 2.791 2.79a1.23 1.23 0 001.52.176 10.525 10.525 0 013.16-1.309c.557-.13.95-.626.95-1.198V18.13h2.951v3.947c0 .572.394 1.068.95 1.198a10.53 10.53 0 013.162 1.309 1.231 1.231 0 001.52-.175l2.79-2.791 2.087 2.087-2.791 2.79a1.23 1.23 0 00-.175 1.52c.606.976 1.046 2.04 1.308 3.16.13.557.627.95 1.199.95h3.947v2.952z"/><path d="M42 27.01a6.6 6.6 0 00-6.592 6.591A6.6 6.6 0 0042 40.193a6.6 6.6 0 006.592-6.592A6.6 6.6 0 0042 27.01zm0 10.722a4.136 4.136 0 01-4.131-4.13A4.136 4.136 0 0142 29.47a4.136 4.136 0 014.131 4.131A4.136 4.136 0 0142 37.732zM13.711 32.37H9.63a1.23 1.23 0 000 2.462h4.082a1.23 1.23 0 100-2.461zm60.659 0h-4.08a1.23 1.23 0 100 2.462h4.082a1.23 1.23 0 100-2.461zM22.867 52.734a1.23 1.23 0 00-1.74 0l-2.887 2.887a1.23 1.23 0 001.74 1.74l2.887-2.886c.48-.48.48-1.26 0-1.74zM65.76 9.842a1.23 1.23 0 00-1.74 0l-2.887 2.886a1.23 1.23 0 101.74 1.74l2.887-2.886c.48-.48.48-1.26 0-1.74zM42 0c-.68 0-1.23.55-1.23 1.23v4.083a1.23 1.23 0 102.46 0V1.23C43.23.55 42.68 0 42 0zM65.76 55.62l-2.887-2.886a1.23 1.23 0 00-1.74 1.74l2.886 2.887a1.23 1.23 0 001.74-1.74zM22.867 12.728L19.98 9.842a1.23 1.23 0 00-1.74 1.74l2.887 2.887a1.23 1.23 0 001.74-1.74zm43.681 17.859c-1.324-11.3-10.281-20.258-21.528-21.629a1.231 1.231 0 00-.298 2.443 22.162 22.162 0 0119.382 19.472 1.23 1.23 0 002.444-.286z"/><path d="M65.455 35.252a1.23 1.23 0 00-1.376 1.066c-.838 6.626-4.578 12.473-10.26 16.04-2.45 1.539-3.913 4.17-3.913 7.042v5.064H34.095v-5.177c0-2.78-1.453-5.406-3.792-6.853-6.612-4.094-10.56-11.174-10.56-18.94 0-11.215 8.4-20.712 19.538-22.091a1.23 1.23 0 00-.303-2.443C26.67 10.485 17.28 21.07 17.28 33.493a24.72 24.72 0 003.225 12.217 24.884 24.884 0 008.502 8.816c1.62 1.003 2.625 2.827 2.625 4.761v5.356a3.203 3.203 0 00-2.153 3.02v1.754c0 .743.256 1.425.683 1.969a3.18 3.18 0 00-.683 1.969v1.754c0 1.764 1.435 3.2 3.2 3.2h3.868v2.781a2.913 2.913 0 002.91 2.91h5.085a2.913 2.913 0 002.91-2.91v-2.782h3.869c1.764 0 3.2-1.435 3.2-3.2v-1.753a3.18 3.18 0 00-.684-1.969 3.18 3.18 0 00.683-1.969v-1.754a3.202 3.202 0 00-2.153-3.02v-5.244a5.83 5.83 0 012.76-4.956c6.308-3.961 10.461-10.455 11.393-17.816a1.23 1.23 0 00-1.065-1.375zM44.992 81.09a.456.456 0 01-.45.449h-5.085a.455.455 0 01-.449-.45v-2.78h5.983v2.78zm7.068-5.981c0 .4-.339.738-.739.738H32.68a.748.748 0 01-.739-.738v-1.754c0-.4.338-.739.739-.739h18.64c.4 0 .739.339.739.739v1.754zm0-5.692c0 .4-.339.738-.739.738H32.68a.748.748 0 01-.739-.738v-1.754c0-.4.338-.739.739-.739h18.64c.4 0 .739.339.739.739v1.754z"/></g><defs><clipPath id="qa"><path d="M0 0h84v84H0z"/></clipPath></defs></svg><svg viewBox="0 0 72 72" id="why-we-icon-3" xmlns="http://www.w3.org/2000/svg"><g clip-path="url(#ra)"><path d="M67.55 31.24a2.745 2.745 0 00-2.743-2.742H47.532a2.745 2.745 0 00-2.742 2.742v3.524c0 .636.22 1.221.585 1.687a2.726 2.726 0 00-.585 1.688v3.524c0 .255.038.501.103.736a2.731 2.731 0 00-.736-.104H37.98a1.055 1.055 0 000 2.11h6.177c.343 0 .633.29.633.633v3.523c0 .343-.29.633-.633.633H26.882a.641.641 0 01-.633-.633v-3.523c0-.343.29-.633.633-.633h6.176a1.055 1.055 0 000-2.11h-6.176a2.745 2.745 0 00-2.743 2.743v3.523c0 .637.22 1.222.585 1.688a2.726 2.726 0 00-.585 1.688v3.523c0 .255.038.502.104.736a2.731 2.731 0 00-.736-.103H6.23a2.745 2.745 0 00-2.742 2.742v3.524c0 .636.22 1.222.585 1.687a2.726 2.726 0 00-.585 1.688v3.524A2.745 2.745 0 006.23 72h17.275c.637 0 1.222-.22 1.688-.585.466.365 1.05.585 1.688.585h17.275c.636 0 1.221-.22 1.687-.585a2.728 2.728 0 001.688.585h17.275a2.745 2.745 0 002.742-2.742v-3.524a2.73 2.73 0 00-.585-1.688c.366-.465.585-1.05.585-1.687v-3.524c0-.636-.22-1.221-.585-1.687a2.722 2.722 0 00.585-1.688v-3.523c0-.637-.22-1.222-.585-1.688a2.722 2.722 0 00.585-1.688v-3.523c0-.637-.22-1.222-.585-1.688a2.722 2.722 0 00.585-1.688V38.14c0-.637-.22-1.222-.585-1.688a2.72 2.72 0 00.585-1.687V31.24zM24.14 69.258c0 .343-.29.633-.634.633H6.232a.641.641 0 01-.633-.633v-3.524c0-.343.29-.633.633-.633h17.275c.343 0 .633.29.633.633v3.524zm0-6.9c0 .344-.29.634-.634.634H6.231a.641.641 0 01-.633-.633v-3.524c0-.343.29-.633.633-.633h17.275c.343 0 .633.29.633.633v3.524zm20.65 6.9c0 .343-.29.633-.633.633H26.882a.641.641 0 01-.633-.633v-3.524c0-.343.29-.633.633-.633h17.275c.343 0 .633.29.633.633v3.524zm0-6.9c0 .344-.29.634-.633.634H26.882a.641.641 0 01-.633-.633v-3.524c0-.343.29-.633.633-.633h17.275c.343 0 .633.29.633.633v3.524zm0-6.898c0 .343-.29.633-.633.633H26.882a.641.641 0 01-.633-.633v-3.523c0-.343.29-.633.633-.633h17.275c.343 0 .633.29.633.633v3.523zm2.11-17.32c0-.343.29-.633.632-.633h17.275c.343 0 .633.29.633.633v3.523c0 .343-.29.633-.633.633H47.532a.641.641 0 01-.633-.633V38.14zm0 6.899c0-.343.29-.633.632-.633h17.275c.343 0 .633.29.633.633v3.523c0 .343-.29.633-.633.633H47.532a.641.641 0 01-.633-.633v-3.523zm0 6.899c0-.343.29-.633.632-.633h17.275c.343 0 .633.29.633.633v3.523c0 .343-.29.633-.633.633H47.532a.641.641 0 01-.633-.633v-3.523zm0 6.898c0-.343.29-.633.632-.633h17.275c.343 0 .633.29.633.633v3.524c0 .343-.29.633-.633.633H47.532a.641.641 0 01-.633-.633v-3.524zm18.54 10.423c0 .343-.29.633-.633.633H47.532a.641.641 0 01-.633-.633v-3.524c0-.343.29-.633.633-.633h17.275c.343 0 .633.29.633.633v3.524zm0-34.494c0 .343-.29.633-.632.633H47.532a.641.641 0 01-.633-.633V31.24c0-.343.29-.633.633-.633h17.275c.343 0 .633.29.633.633v3.524zM40.136 16.987h-4.5a1.055 1.055 0 100 2.109h1.934L5.43 51.238a1.055 1.055 0 001.49 1.492l32.162-32.162v1.974a1.055 1.055 0 102.109 0v-4.5c0-.583-.472-1.055-1.055-1.055zm27.312-2.391a1.055 1.055 0 00-1.302.726c-1.26 4.436-5.363 7.533-9.976 7.533-5.72 0-10.373-4.653-10.373-10.373S50.45 2.11 56.17 2.11c5.137 0 9.445 3.677 10.244 8.742a1.055 1.055 0 002.084-.328A12.486 12.486 0 0056.17 0c-6.883 0-12.483 5.6-12.483 12.482 0 6.883 5.6 12.483 12.483 12.483 5.552 0 10.489-3.728 12.005-9.066a1.055 1.055 0 00-.727-1.303z"/><path d="M56.1 4.323c-4.5 0-8.16 3.66-8.16 8.16 0 4.499 3.66 8.16 8.16 8.16 4.498 0 8.159-3.661 8.159-8.16 0-4.5-3.66-8.16-8.16-8.16zm0 14.21a6.057 6.057 0 01-6.05-6.05 6.057 6.057 0 016.05-6.05 6.057 6.057 0 016.05 6.05 6.057 6.057 0 01-6.05 6.05z"/><path d="M56.616 11.714V9.622c.444.036.674.141 1.153.38.24.121.539.075.73-.25.155-.263.259-.683-.059-.948-.453-.375-1.248-.495-1.824-.495v-.312c0-.177-.22-.3-.404-.3-.204 0-.404.124-.404.297v.333c-1.374.181-2.305.92-2.305 2.317 0 1.431 1.034 1.904 2.305 2.389v2.364c-.63-.075-.93-.322-1.521-.766-.296-.222-.585-.138-.802.167-.278.392-.24.733-.006 1.049.448.604 1.424.958 2.33.958v.336c0 .18.208.3.403.3.184 0 .404-.121.404-.297v-.368c1.2-.186 2.246-.945 2.246-2.52 0-1.442-.907-2.055-2.246-2.542zm-.713-.261c-.714-.286-.95-.517-.95-.963 0-.517.437-.75.95-.832v1.795zm.618 3.933v-2.068c.74.324.891.677.891 1.093 0 .548-.355.861-.891.975z"/></g><defs><clipPath id="ra"><path d="M0 0h72v72H0z"/></clipPath></defs></svg><svg viewBox="0 0 63 63" id="why-we-icon-4" xmlns="http://www.w3.org/2000/svg"><g clip-path="url(#sa)"><path d="M62.713 30.427a34.574 34.574 0 00-1.394-2.316C55.366 16.471 44.468 8.086 31.5 8.086c-13.003 0-23.883 8.417-29.82 20.026a34.54 34.54 0 00-1.393 2.315 2.302 2.302 0 000 2.227A34.6 34.6 0 001.68 34.97c5.95 11.636 16.263 19.09 27.598 19.941a.922.922 0 10.138-1.84c-6.827-.514-13.27-3.587-18.51-8.623 6.008 4.185 13.2 6.424 20.594 6.424 7.382 0 14.577-2.232 20.593-6.425-5.238 5.036-11.682 8.11-18.509 8.623a.923.923 0 00.139 1.841c11.334-.852 21.646-8.305 27.596-19.94.492-.75.958-1.523 1.394-2.317a2.303 2.303 0 000-2.227zM31.5 9.932c7.712 0 14.966 3.166 20.748 8.811-6.078-4.284-13.341-6.534-20.748-6.534-7.39 0-14.657 2.24-20.749 6.534 5.783-5.645 13.037-8.811 20.749-8.811zm29.595 21.834c-5.83 10.62-17.148 17.26-29.595 17.26-12.61 0-23.843-6.783-29.595-17.26a.466.466 0 010-.45c5.829-10.618 17.15-17.26 29.595-17.26 13.06 0 24.083 7.22 29.595 17.26.077.14.077.31 0 .45z"/><path d="M31.5 20.693c-6.022 0-10.889 4.902-10.889 10.889 0 6.047 4.919 10.889 10.89 10.889 6.03 0 10.888-4.909 10.888-10.89 0-6.055-4.93-10.888-10.889-10.888zm-.922 2.113v4.553a13.9 13.9 0 01-2.573-.414c.414-1.44 1.272-3.397 2.573-4.14zm-3.116.69c-.531.89-.922 1.876-1.21 2.867a13.853 13.853 0 01-1.543-.743 9.025 9.025 0 012.753-2.125zm-1.628 4.687a19.601 19.601 0 00-.265 2.476h-3.065a8.96 8.96 0 011.13-3.53c.708.41 1.443.762 2.2 1.054zm-2.16 7.92a8.975 8.975 0 01-1.17-3.598h3.065c.039.88.133 1.74.28 2.562-.749.288-1.475.634-2.175 1.036zm1.089 1.502c.49-.272.995-.513 1.512-.722.286.962.67 1.919 1.187 2.785a9.052 9.052 0 01-2.7-2.063zm5.814 2.753c-1.29-.737-2.127-2.626-2.547-4.054.83-.214 1.683-.35 2.547-.407v4.46zm0-6.309a15.75 15.75 0 00-2.953.454c-.102-.62-.175-1.3-.208-1.998h3.162v1.544zm0-3.39h-3.161c.033-.693.1-1.323.193-1.91a15.75 15.75 0 002.969.457v1.453zm8.79-3.53a8.967 8.967 0 011.13 3.53h-3.065c-.038-.85-.127-1.68-.265-2.476a15.69 15.69 0 002.2-1.053zm-1.075-1.509c-.5.28-1.015.528-1.543.743-.287-.99-.678-1.975-1.21-2.867a8.993 8.993 0 012.753 2.124zm-5.869-2.814c1.008.575 1.974 2.052 2.572 4.14-.838.216-1.699.355-2.572.412v-4.552zm0 6.4c1.008-.059 2-.211 2.969-.457.095.604.16 1.242.193 1.91h-3.162v-1.453zm0 11.152v-4.461c.864.056 1.717.193 2.548.407-.6 2.042-1.554 3.486-2.548 4.054zm0-6.309v-1.544h3.162c-.034.7-.105 1.368-.208 1.998a15.736 15.736 0 00-2.954-.454zm3.116 5.619c.516-.866.9-1.823 1.186-2.785.517.21 1.023.45 1.513.722a9.053 9.053 0 01-2.699 2.063zm3.788-3.565c-.7-.402-1.426-.748-2.175-1.036.147-.823.24-1.682.28-2.562h3.065a8.972 8.972 0 01-1.17 3.598z"/><path d="M45.13 32.824a.923.923 0 00-1.056.767c-.984 6.213-6.272 10.723-12.574 10.723-7.02 0-12.732-5.712-12.732-12.732S24.48 18.85 31.5 18.85c6.302 0 11.59 4.51 12.574 10.723a.923.923 0 101.823-.289A14.581 14.581 0 0031.5 17.004c-8.038 0-14.578 6.54-14.578 14.578S23.462 46.16 31.5 46.16a14.581 14.581 0 0014.397-12.28.923.923 0 00-.767-1.056z"/></g><defs><clipPath id="sa"><path d="M0 0h63v63H0z"/></clipPath></defs></svg><svg viewBox="0 0 75 75" id="why-we-icon-5" xmlns="http://www.w3.org/2000/svg"><g clip-path="url(#ta)"><path d="M64.738 63.947a2.827 2.827 0 00-1.034-2.044l-11.689-9.544a2.815 2.815 0 00-3.781.19l-.257.257-2.846-2.846a23.584 23.584 0 006.055-13.45 1.01 1.01 0 00-2.01-.21c-1.05 10.064-8.988 18.036-19.053 19.125a1.01 1.01 0 00.218 2.01A23.592 23.592 0 0043.7 51.39l2.847 2.847-.257.256a2.815 2.815 0 00-.19 3.782l9.543 11.689A2.827 2.827 0 0057.83 71c.746 0 1.467-.297 1.997-.827l4.088-4.088a2.829 2.829 0 00.823-2.138zm-2.253.709l-4.088 4.087a.79.79 0 01-.606.234.792.792 0 01-.58-.293l-9.545-11.69a.799.799 0 01.054-1.072l1.943-1.944a.799.799 0 011.074-.053l11.688 9.543a.792.792 0 01.294.58.792.792 0 01-.234.608z"/><path d="M51.186 31.582a23.542 23.542 0 00-9.21-16.318V3.51c0-.833-.677-1.51-1.51-1.51h-5.591c-.832 0-1.51.677-1.51 1.51v6.02h-5.08a1.51 1.51 0 00-1.42 1.006 23.361 23.361 0 00-15.723 6.865c-9.178 9.178-9.178 24.112 0 33.29a23.569 23.569 0 0014.271 6.763 1.01 1.01 0 00.203-2.011 21.54 21.54 0 01-13.044-6.182c-8.39-8.39-8.39-22.04 0-30.43a21.351 21.351 0 0114.204-6.27v3.6h-5.08c-.832 0-1.509.678-1.509 1.51v.18a17.74 17.74 0 00-5.051 3.544c-6.976 6.975-6.976 18.326 0 25.302a17.832 17.832 0 0012.651 5.232c9.634-.001 17.375-7.544 17.858-16.955a17.871 17.871 0 00-3.669-11.824v-5.28a21.53 21.53 0 017.2 13.922 1.011 1.011 0 002.01-.21zm-15.8-27.56h4.568v33.37h-4.567V4.023zm-6.588 7.53h4.567v25.84h-4.567v-25.84zm-6.59 6.631h4.568v19.21H22.21v-19.21zm-2.02 1.933v2.341h-3.242a15.707 15.707 0 013.241-2.341zm-4.568 4.363h4.567v12.914H15.62V24.479zm-2.022 2.457v10.457H12.28a15.945 15.945 0 011.32-10.457zm28.378-.007a15.837 15.837 0 011.332 10.464h-1.332V26.929zm.753 12.485a15.851 15.851 0 01-3.72 5.853c-8.192 8.192-22.235 5.101-26.154-5.853H42.73z"/></g><defs><clipPath id="ta"><path transform="translate(.974 .124)" d="M0 0h73.947v73.947H0z"/></clipPath></defs></svg><svg viewBox="0 0 77 77" id="why-we-icon-6" xmlns="http://www.w3.org/2000/svg"><path d="M27.777 31.288a4.606 4.606 0 00-4.601 4.601 4.606 4.606 0 004.6 4.601 4.606 4.606 0 004.602-4.6 4.606 4.606 0 00-4.601-4.602zm0 6.946a2.347 2.347 0 01-2.345-2.345 2.347 2.347 0 012.345-2.345 2.348 2.348 0 012.345 2.345 2.348 2.348 0 01-2.345 2.345zm11.995-6.946a4.606 4.606 0 00-4.601 4.601 4.606 4.606 0 004.6 4.601 4.606 4.606 0 004.602-4.6 4.606 4.606 0 00-4.601-4.602zm0 6.946a2.347 2.347 0 01-2.345-2.345 2.348 2.348 0 012.345-2.345 2.347 2.347 0 012.345 2.345 2.348 2.348 0 01-2.345 2.345zm11.995-6.946a4.606 4.606 0 00-4.601 4.601 4.606 4.606 0 004.6 4.601 4.606 4.606 0 004.602-4.6 4.606 4.606 0 00-4.601-4.602zm0 6.946a2.347 2.347 0 01-2.345-2.345 2.348 2.348 0 012.345-2.345 2.348 2.348 0 012.345 2.345 2.348 2.348 0 01-2.345 2.345zm-23.99 4.277a4.606 4.606 0 00-4.601 4.601c0 2.537 2.064 4.6 4.6 4.6a4.606 4.606 0 004.602-4.6c0-2.537-2.064-4.6-4.601-4.6zm0 6.946a2.347 2.347 0 01-2.345-2.345 2.347 2.347 0 012.345-2.345 2.348 2.348 0 012.345 2.345 2.348 2.348 0 01-2.345 2.345zm23.99-6.946a4.606 4.606 0 00-4.601 4.601c0 2.537 2.064 4.6 4.6 4.6a4.606 4.606 0 004.602-4.6c0-2.537-2.064-4.6-4.601-4.6zm0 6.946a2.347 2.347 0 01-2.345-2.345 2.348 2.348 0 012.345-2.345 2.348 2.348 0 012.345 2.345 2.348 2.348 0 01-2.345 2.345zm-11.995-6.946a4.606 4.606 0 00-4.601 4.601c0 2.537 2.064 4.6 4.6 4.6a4.606 4.606 0 004.602-4.6c0-2.537-2.064-4.6-4.601-4.6zm0 6.946a2.347 2.347 0 01-2.345-2.345 2.348 2.348 0 012.345-2.345 2.347 2.347 0 012.345 2.345 2.348 2.348 0 01-2.345 2.345zm0 4.277a4.606 4.606 0 00-4.601 4.601c0 2.537 2.064 4.6 4.6 4.6a4.606 4.606 0 004.602-4.6 4.606 4.606 0 00-4.601-4.601zm0 6.946a2.348 2.348 0 01-2.345-2.345 2.348 2.348 0 012.345-2.345 2.348 2.348 0 012.345 2.345 2.348 2.348 0 01-2.345 2.345zm-11.995-6.946a4.606 4.606 0 00-4.601 4.601c0 2.537 2.064 4.6 4.6 4.6a4.606 4.606 0 004.602-4.6 4.606 4.606 0 00-4.601-4.601zm0 6.946a2.347 2.347 0 01-2.345-2.345 2.348 2.348 0 012.345-2.345 2.348 2.348 0 012.345 2.345 2.348 2.348 0 01-2.345 2.345zm-10.4-24.79l1.659-1.659a1.128 1.128 0 10-1.596-1.595l-1.658 1.658-1.658-1.658a1.128 1.128 0 00-1.595 1.595l1.658 1.658-1.658 1.658a1.128 1.128 0 101.595 1.596l1.658-1.659 1.658 1.658a1.124 1.124 0 001.595 0c.44-.44.44-1.154 0-1.595l-1.658-1.658zm0 11.222l1.659-1.658a1.128 1.128 0 10-1.596-1.595l-1.658 1.658-1.658-1.658a1.128 1.128 0 00-1.595 1.595l1.658 1.658-1.658 1.658a1.128 1.128 0 101.595 1.595l1.658-1.658 1.658 1.658a1.124 1.124 0 001.595 0c.44-.44.44-1.154 0-1.595l-1.658-1.658zm1.658 12.881l-1.658-1.658 1.658-1.658a1.128 1.128 0 00-1.595-1.596l-1.658 1.658-1.658-1.658a1.129 1.129 0 00-1.596 1.596l1.658 1.658-1.658 1.658a1.128 1.128 0 001.596 1.595l1.658-1.658 1.658 1.658a1.125 1.125 0 001.595 0c.44-.44.44-1.155 0-1.595z"/><path d="M76.935 63.349l-3.076-16.19a1.129 1.129 0 00-2.216.422l3.076 16.189c.172.906-.593 1.761-1.635 1.761H56.392l10.826-10.826a1.14 1.14 0 00.33-.798v-27.87l3.094 16.28a1.128 1.128 0 002.216-.421l-5.317-27.982a3.142 3.142 0 00-3.133-2.996h-9.886V7.291a1.128 1.128 0 10-2.255 0v3.627h-7.555V7.291a1.128 1.128 0 10-2.256 0v3.627h-7.554V7.291a1.128 1.128 0 10-2.256 0v3.627h-7.554V7.291a1.128 1.128 0 10-2.256 0v3.627h-7.554V7.291a1.128 1.128 0 10-2.256 0v3.627H3.141A3.145 3.145 0 000 14.059v53.637a3.145 3.145 0 003.141 3.14h28.001a1.128 1.128 0 100-2.255h-28a.886.886 0 01-.886-.885V25.564h63.037v27.215h-12.66a3.145 3.145 0 00-3.142 3.141v12.66H36.406a1.128 1.128 0 100 2.257H50.62c.29 0 .583-.116.798-.33l2.719-2.72h18.948c2.45 0 4.29-2.133 3.851-4.438zM2.256 23.308v-9.249c0-.488.397-.885.885-.885h9.885v5.067a1.128 1.128 0 102.256 0v-5.067h7.554v5.067a1.128 1.128 0 102.256 0v-5.067h7.554v5.067a1.128 1.128 0 102.256 0v-5.067h7.554v5.067a1.128 1.128 0 102.256 0v-5.067h7.554v5.067a1.128 1.128 0 102.256 0v-5.067h9.886c.487 0 .885.397.885.885v9.249H2.256zm49.49 43.678V55.92c0-.488.398-.885.886-.885h11.065l-11.95 11.95z"/></svg></svg>