<svg width="270" height="225" viewBox="0 0 270 225" fill="none" xmlns="http://www.w3.org/2000/svg">
<path d="M0 5C0 2.23858 2.23858 0 5 0H265C267.761 0 270 2.23858 270 5V220C270 222.761 267.761 225 265 225H5C2.23857 225 0 222.761 0 220V5Z" fill="white"/>
<mask id="mask0_402_5979" style="mask-type:alpha" maskUnits="userSpaceOnUse" x="0" y="0" width="270" height="204">
<path d="M0 5C0 2.23857 2.23858 0 5 0H265C267.761 0 270 2.23858 270 5V199C270 201.761 267.761 204 265 204H5C2.23857 204 0 201.761 0 199V5Z" fill="white"/>
</mask>
<g mask="url(#mask0_402_5979)">
<circle cx="134.5" cy="-55.5" r="146.5" fill="#F4F4F4"/>
<path d="M113.055 39.2242C113.679 39.0413 114.334 38.97 114.982 39.0114C115.101 40.4969 114.639 42.0348 113.672 43.1502C112.696 44.2928 111.239 44.9581 109.769 44.9968C109.513 45.0061 109.257 44.9945 109.002 44.9708C108.971 43.6477 109.375 42.3137 110.154 41.2598C110.871 40.2784 111.908 39.5551 113.055 39.2242Z" fill="#325F93" fill-opacity="0.1"/>
<path d="M40.0547 19.2242C40.6791 19.0413 41.3339 18.97 41.9815 19.0114C42.1009 20.4969 41.6389 22.0348 40.6716 23.1502C39.6956 24.2928 38.2391 24.9581 36.7691 24.9968C36.5129 25.0061 36.2567 24.9945 36.0016 24.9708C35.9712 23.6477 36.375 22.3137 37.1542 21.2598C37.8714 20.2784 38.9082 19.5551 40.0547 19.2242Z" fill="#325F93" fill-opacity="0.1"/>
<path d="M108.783 46.2607C109.006 46.074 109.316 45.9436 109.613 46.0244C109.799 46.0747 109.987 46.1454 110.129 46.2758C111.199 47.182 112.245 48.114 113.268 49.0694C114.635 50.3563 115.976 51.6765 117.179 53.1105C118.752 55.2212 119.351 57.9755 118.799 60.5194C118.387 62.4843 117.292 64.3064 115.733 65.6304C113.992 67.1261 111.679 67.9887 109.347 68C107.827 67.962 106.318 67.571 104.982 66.8714C103.65 66.1778 102.49 65.1781 101.631 63.9769C100.761 62.7713 100.201 61.3628 100 59.9077C101.303 59.907 102.606 59.9089 103.908 59.907C104.193 61.0965 104.902 62.1841 105.888 62.949C107.012 63.8315 108.486 64.2813 109.932 64.1869C111.278 64.1129 112.591 63.5674 113.569 62.6718C114.524 61.811 115.158 60.6227 115.315 59.3697C115.492 58.0303 115.126 56.6346 114.307 55.5398C113.523 54.4728 112.336 53.6951 111.023 53.3739C109.594 53.0192 108.026 53.2037 106.735 53.8984C105.592 54.5044 104.668 55.4925 104.183 56.662C104.078 56.8968 104.008 57.1441 103.93 57.3879C102.622 57.3823 101.314 57.3872 100.005 57.3856C100.22 55.8659 100.825 54.4007 101.751 53.1541C102.547 52.0841 103.468 51.1084 104.418 50.1646C105.807 48.7971 107.271 47.5009 108.783 46.2607Z" fill="#325F93" fill-opacity="0.1"/>
<path d="M35.7827 26.2607C36.0059 26.074 36.3163 25.9436 36.6134 26.0244C36.7988 26.0747 36.9872 26.1454 37.1291 26.2758C38.1992 27.182 39.2449 28.114 40.2675 29.0694C41.6353 30.3563 42.9758 31.6765 44.1787 33.1105C45.7517 35.2212 46.3507 37.9755 45.7993 40.5194C45.3868 42.4843 44.2921 44.3064 42.7328 45.6304C40.9915 47.1261 38.6794 47.9887 36.3474 48C34.827 47.962 33.3183 47.571 31.9818 46.8714C30.6502 46.1778 29.4905 45.1781 28.6306 43.9769C27.7613 42.7713 27.2005 41.3628 27 39.9077C28.3027 39.907 29.6058 39.9089 30.9084 39.907C31.1935 41.0965 31.9023 42.1841 32.888 42.949C34.0119 43.8315 35.4864 44.2813 36.932 44.1869C38.2779 44.1129 39.5907 43.5674 40.5686 42.6718C41.5239 41.811 42.1575 40.6227 42.3149 39.3697C42.4924 38.0303 42.1256 36.6346 41.3066 35.5398C40.5234 34.4728 39.3356 33.6951 38.0232 33.3739C36.5935 33.0192 35.0257 33.2037 33.7346 33.8984C32.592 34.5044 31.6683 35.4925 31.1826 36.662C31.0779 36.8968 31.0082 37.1441 30.9302 37.3879C29.6221 37.3823 28.3136 37.3872 27.0051 37.3856C27.2196 35.8659 27.8252 34.4007 28.7509 33.1541C29.5465 32.0841 30.4684 31.1084 31.4178 30.1646C32.807 28.7971 34.2709 27.5009 35.7827 26.2607Z" fill="#325F93" fill-opacity="0.1"/>
</g>
</svg>
