<svg width="37" height="37" viewBox="0 0 37 37" fill="none" xmlns="http://www.w3.org/2000/svg">
<circle cx="18.5" cy="18.5" r="18" stroke="#A4A4A4"/>
<path d="M22.8568 9H14.1431C11.3072 9 9 11.3072 9 14.1431V22.857C9 25.6928 11.3072 28 14.1431 28H22.857C25.6928 28 28 25.6928 28 22.857V14.1431C28 11.3072 25.6928 9 22.8568 9V9ZM18.5 23.6951C15.6353 23.6951 13.3048 21.3646 13.3048 18.5C13.3048 15.6353 15.6353 13.3048 18.5 13.3048C21.3646 13.3048 23.6951 15.6353 23.6951 18.5C23.6951 21.3646 21.3646 23.6951 18.5 23.6951ZM23.8194 14.53C22.9728 14.53 22.2843 13.8415 22.2843 12.9949C22.2843 12.1483 22.9728 11.4597 23.8194 11.4597C24.6659 11.4597 25.3546 12.1483 25.3546 12.9949C25.3546 13.8415 24.6659 14.53 23.8194 14.53Z" fill="#A4A4A4"/>
<path d="M18.5 14.4187C16.2497 14.4187 14.4187 16.2495 14.4187 18.5C14.4187 20.7503 16.2497 22.5813 18.5 22.5813C20.7505 22.5813 22.5813 20.7503 22.5813 18.5C22.5813 16.2495 20.7505 14.4187 18.5 14.4187Z" fill="#A4A4A4"/>
<path d="M23.8194 12.5736C23.5872 12.5736 23.3982 12.7626 23.3982 12.9949C23.3982 13.2271 23.5872 13.4161 23.8194 13.4161C24.0518 13.4161 24.2408 13.2272 24.2408 12.9949C24.2408 12.7625 24.0518 12.5736 23.8194 12.5736Z" fill="#A4A4A4"/>
</svg>
