<svg width="100" height="50" viewBox="0 0 100 50" fill="none" xmlns="http://www.w3.org/2000/svg">
<path d="M52.2012 28.6362L51.9043 29.3042C51.2611 29.7186 50.6859 29.9876 50.1787 30.1113C49.6777 30.235 49.2293 30.2969 48.8335 30.2969C48.0913 30.2969 47.3862 30.1515 46.7183 29.8608C46.0565 29.5701 45.5153 29.0785 45.0947 28.3857C44.6803 27.693 44.4731 26.8581 44.4731 25.8809C44.4731 25.2314 44.5535 24.647 44.7144 24.1274C44.8752 23.6017 45.0422 23.2121 45.2153 22.9585C45.3947 22.7049 45.6947 22.4235 46.1152 22.1143C46.5358 21.805 46.9811 21.5576 47.4512 21.3721C47.9212 21.1865 48.4284 21.0938 48.9727 21.0938C49.7148 21.0938 50.3674 21.27 50.9302 21.6226C51.4992 21.9689 51.8981 22.4142 52.127 22.9585C52.3558 23.5028 52.4702 24.0811 52.4702 24.6934C52.4702 24.8851 52.4609 25.0706 52.4424 25.25L52.3403 25.3521C51.9198 25.4448 51.3538 25.5067 50.6426 25.5376C49.9313 25.5685 49.4613 25.584 49.2324 25.584H46.2544C46.2668 26.8643 46.5884 27.8075 47.2192 28.4136C47.8501 29.0197 48.6232 29.3228 49.5386 29.3228C49.9715 29.3228 50.3859 29.2485 50.7817 29.1001C51.1838 28.9517 51.6074 28.7445 52.0527 28.4785L52.2012 28.6362ZM46.2544 24.8418C46.3657 24.8604 46.7925 24.882 47.5347 24.9067C48.283 24.9315 48.8366 24.9438 49.1953 24.9438C50.055 24.9438 50.5776 24.9284 50.7632 24.8975C50.7694 24.749 50.7725 24.6346 50.7725 24.5542C50.7725 23.5955 50.5776 22.8843 50.188 22.4204C49.7983 21.9504 49.2664 21.7153 48.5923 21.7153C47.8563 21.7153 47.2811 21.9782 46.8667 22.5039C46.4585 23.0296 46.2544 23.8089 46.2544 24.8418Z" fill="black"/>
<path d="M53.7202 15.7515C55.771 15.8166 57.0771 15.8491 57.6387 15.8491C58.4036 15.8491 59.2622 15.8288 60.2144 15.7881C61.2235 15.7555 61.846 15.7393 62.082 15.7393C63.2214 15.7393 64.1613 15.8573 64.9019 16.0933C65.6506 16.3293 66.269 16.7606 66.7573 17.3872C67.2456 18.0138 67.4897 18.7707 67.4897 19.6577C67.4897 20.3901 67.3188 21.0981 66.9771 21.7817C66.6353 22.4653 66.1592 23.0472 65.5488 23.5273C64.9385 24.0075 64.32 24.3534 63.6934 24.5649C63.0667 24.7684 62.4157 24.8701 61.7402 24.8701C61.2357 24.8701 60.6742 24.8132 60.0557 24.6992L59.8481 23.9546L59.958 23.8325C60.5684 23.9709 61.0648 24.04 61.4473 24.04C62.5133 24.04 63.3678 23.6901 64.0107 22.9902C64.6618 22.2822 64.9873 21.3789 64.9873 20.2803C64.9873 19.1735 64.6496 18.2905 63.9741 17.6313C63.3068 16.9722 62.2936 16.6426 60.9346 16.6426C60.194 16.6426 59.3802 16.7809 58.4932 17.0576C58.4199 17.6842 58.3833 19.1979 58.3833 21.5986V27.2505L58.3955 29.6309C58.4036 30.5505 58.4281 31.1445 58.4688 31.4131C58.5094 31.6816 58.5664 31.8607 58.6396 31.9502C58.721 32.0397 58.8716 32.117 59.0913 32.1821C59.311 32.2391 59.8522 32.2839 60.7148 32.3164L60.8125 32.3896V33L60.7148 33.0977C58.6396 33.0326 57.4718 33 57.2114 33C56.9347 33 55.771 33.0326 53.7202 33.0977L53.6226 33V32.3896L53.7202 32.3164C54.4771 32.2839 54.9816 32.2432 55.2339 32.1943C55.4862 32.1455 55.653 32.0845 55.7344 32.0112C55.8239 31.9299 55.8931 31.763 55.9419 31.5107C55.9989 31.2585 56.0314 30.6969 56.0396 29.8262L56.0518 27.2505V21.5986L56.0273 19.2183C56.0192 18.2905 55.9948 17.6924 55.9541 17.4238C55.9215 17.1553 55.8646 16.9762 55.7832 16.8867C55.71 16.7972 55.5635 16.724 55.3438 16.667C55.124 16.61 54.5828 16.5653 53.7202 16.5327L53.6226 16.4473V15.8369L53.7202 15.7515Z" fill="black"/>
<path d="M51.4346 32.5244L50.8779 33.8867C48.71 34.9902 46.3955 35.542 43.9346 35.542C40.4092 35.542 37.543 34.541 35.3359 32.5391C33.1387 30.5371 32.04 27.9199 32.04 24.6875C32.04 22.4609 32.5869 20.5176 33.6807 18.8574C34.7842 17.1875 36.2344 15.9424 38.0312 15.1221C39.8379 14.292 41.8643 13.877 44.1104 13.877C45.4092 13.877 46.6934 14.0137 47.9629 14.2871C49.2324 14.5605 50.292 14.8877 51.1416 15.2686L51.2441 15.415C51.0195 15.9619 50.8096 17.3145 50.6143 19.4727L50.5117 19.5898H49.8232L49.7061 19.4727L49.5596 16.9824C48.8467 16.416 47.9824 15.9766 46.9668 15.6641C45.9609 15.3418 44.9111 15.1807 43.8174 15.1807C42.167 15.1807 40.6875 15.5371 39.3789 16.25C38.0703 16.9531 37.0547 17.9785 36.332 19.3262C35.6094 20.6641 35.248 22.3047 35.248 24.248C35.248 26.2012 35.6729 27.915 36.5225 29.3896C37.3721 30.8643 38.5293 31.9971 39.9941 32.7881C41.4688 33.5791 43.1875 33.9746 45.1504 33.9746C46.0195 33.9746 46.8545 33.8916 47.6553 33.7256C48.4561 33.5596 49.1201 33.3545 49.6475 33.1104C50.1846 32.8662 50.6973 32.5684 51.1855 32.2168L51.4346 32.5244Z" fill="black"/>
<path d="M0.724609 19C3.41196 8.09071 13.2611 0 25 0H75C86.7388 0 96.588 8.09071 99.2753 19H79.8369C77.4634 13.1363 71.7147 9 65 9H35C28.2852 9 22.5365 13.1363 20.163 19H0.724609Z" fill="black"/>
<path d="M0.724609 31C3.41196 41.9093 13.2611 50 25 50H75C86.7388 50 96.588 41.9093 99.2753 31H79.8369C77.4634 36.8637 71.7147 41 65 41H35C28.2852 41 22.5365 36.8637 20.163 31H0.724609Z" fill="black"/>
</svg>
