<svg width="188" height="107" fill="none" xmlns="http://www.w3.org/2000/svg"><path d="M12.4 95.2v9.8h4.452c1.54 0 2.87-1.344 2.87-2.87 0-.896-.448-1.736-1.162-2.282.49-.49.812-1.19.812-1.918 0-1.456-1.274-2.73-2.73-2.73H12.4zm5.866 6.93c0 .784-.728 1.47-1.512 1.47h-2.898v-2.94h2.898c.784 0 1.512.686 1.512 1.47zm-.35-4.2c0 .7-.686 1.33-1.358 1.33h-2.702V96.6h2.702c.672 0 1.358.63 1.358 1.33zm4.308-.77v4.214c0 1.036-.35 1.792-1.05 2.282h-.546v3.332h1.4V105h5.614v1.988h1.4v-3.332H27.88V97.16h-5.656zm.574 6.496c.56-.406.826-1.232.826-2.282v-2.87h2.856v5.152h-3.682zM33.8 96.992c-2.071 0-3.64 2.016-3.64 4.088s1.569 4.088 3.64 4.088c2.073 0 3.64-2.016 3.64-4.088s-1.567-4.088-3.64-4.088zm0 6.832c-1.301 0-2.24-1.442-2.24-2.744 0-1.302.939-2.744 2.24-2.744 1.303 0 2.24 1.442 2.24 2.744 0 1.302-.937 2.744-2.24 2.744zM37.932 105h1.722l2.002-2.814L43.674 105h1.721l-2.87-4.018 2.73-3.822h-1.721l-1.877 2.618-1.861-2.618h-1.723l2.73 3.822-2.87 4.018zm8.729-7.84V105h1.4v-3.36h3.584V105h1.4v-7.84h-1.4v3.136h-3.584V97.16h-1.4zm11.921-.168c-2.072 0-3.64 2.016-3.64 4.088s1.568 4.088 3.64 4.088 3.64-2.016 3.64-4.088-1.568-4.088-3.64-4.088zm0 6.832c-1.302 0-2.24-1.442-2.24-2.744 0-1.302.938-2.744 2.24-2.744 1.302 0 2.24 1.442 2.24 2.744 0 1.302-.938 2.744-2.24 2.744zm12.119-1.148c0-.714-.42-1.4-.91-1.75.434-.322.616-.938.616-1.484 0-1.232-1.078-2.282-2.296-2.282h-4.004V105h4.256c1.232 0 2.338-1.092 2.338-2.324zm-1.694-3.248c0 .504-.462.924-.966.924h-2.534v-1.848h2.534c.504 0 .966.42.966.924zm.294 3.248c0 .532-.49.98-1.036.98h-2.758v-1.96h2.758c.546 0 1.036.448 1.036.98zm8.09-4.172V105h1.4v-7.84h-5.74v5.25c0 1.008-.392 1.288-.952 1.288-.098 0-.252 0-.35-.042v1.316c.168.056.378.07.56.07 1.68 0 2.142-1.162 2.142-2.632v-3.906h2.94zm3.485 1.26c0 1.106.658 2.016 1.61 2.408L80.4 105h1.68l1.96-2.632h1.498V105h1.4v-7.84h-3.444a2.602 2.602 0 00-2.618 2.604zm1.4 0c0-.714.574-1.26 1.302-1.26h1.96v2.52h-1.96c-.728 0-1.302-.546-1.302-1.26zm10.186 4.06c-1.176 0-2.03-1.106-2.212-2.282h5.852v-.462c0-2.072-1.568-4.088-3.64-4.088s-3.64 2.016-3.64 4.088 1.568 4.088 3.64 4.088c1.54 0 2.786-1.12 3.346-2.534h-1.526c-.392.686-1.036 1.19-1.82 1.19zm0-5.488c1.05 0 1.834.91 2.128 1.946h-4.27c.252-1.036 1.106-1.946 2.142-1.946zM102.621 105l2.128-4.55V105h1.4v-7.84h-1.204l-2.856 6.062-2.842-6.062h-1.26V105h1.4v-4.55l2.128 4.55h1.106zm9.064-1.176c-1.302 0-2.24-1.442-2.24-2.744 0-1.302.938-2.744 2.24-2.744.784 0 1.428.504 1.82 1.19h1.526c-.56-1.414-1.806-2.534-3.346-2.534-2.072 0-3.64 2.016-3.64 4.088s1.568 4.088 3.64 4.088c1.54 0 2.786-1.12 3.346-2.534h-1.526c-.392.686-1.036 1.19-1.82 1.19zm4.807-4.06c0 1.106.658 2.016 1.61 2.408L116.016 105h1.68l1.96-2.632h1.498V105h1.4v-7.84h-3.444a2.602 2.602 0 00-2.618 2.604zm1.4 0c0-.714.574-1.26 1.302-1.26h1.96v2.52h-1.96c-.728 0-1.302-.546-1.302-1.26zM133.056 105l2.128-4.55V105h1.4v-7.84h-1.204l-2.856 6.062-2.842-6.062h-1.26V105h1.4v-4.55l2.128 4.55h1.106zm9.064-1.176c-1.176 0-2.03-1.106-2.212-2.282h5.852v-.462c0-2.072-1.568-4.088-3.64-4.088s-3.64 2.016-3.64 4.088 1.568 4.088 3.64 4.088c1.54 0 2.786-1.12 3.346-2.534h-1.526c-.392.686-1.036 1.19-1.82 1.19zm0-5.488c1.05 0 1.834.91 2.128 1.946h-4.27c.252-1.036 1.106-1.946 2.142-1.946zm5.105-1.176v2.408c0 1.946 1.666 2.688 3.178 2.688.742 0 1.288-.126 1.694-.252V105h1.4v-7.84h-1.4v3.472c-.462.182-.994.28-1.666.28-1.008 0-1.806-.49-1.806-1.386V97.16h-1.4zm14.201 0h-6.663v1.344h2.632V105h1.4v-6.496h2.631V97.16zm.867 5.544c0 1.498 1.344 2.464 3.066 2.464.91 0 1.61-.35 1.946-.756V105h1.4v-4.844c0-1.722-1.26-3.164-3.122-3.164-1.526 0-2.8 1.12-3.318 2.534h1.512c.392-.686 1.022-1.19 1.82-1.19.854 0 1.666.602 1.666 1.386 0 .49-.518.686-1.064.686h-1.568c-1.288 0-2.338 1.022-2.338 2.296zm1.4 0c0-.546.42-.952.938-.952h1.428c.546 0 1.036-.224 1.246-.602v1.092c0 .952-.84 1.582-1.946 1.582-.952 0-1.666-.462-1.666-1.12zM175.652 105l2.128-4.55V105h1.4v-7.84h-1.204l-2.856 6.062-2.842-6.062h-1.26V105h1.4v-4.55l2.128 4.55h1.106zm5.914-7.84V105h1.232l3.752-5.264V105h1.4v-7.84h-1.232l-3.752 5.264V97.16h-1.4zM44.175 43.9L14.415.784h5.41l23.827 34.561V.786h4.45v43.113h-3.926zm26.62-19.812c-6.633 0-12.917-4.277-12.917-10.91C57.878 6.547 64.074 0 73.15 0c7.331 0 13.004 4.887 15.971 11.258h-4.974C81.966 7.157 78.3 4.276 73.15 4.276c-5.586 0-10.822 3.84-10.822 8.728 0 4.713 3.753 6.72 7.855 6.72h5.934c7.157 0 13.528 4.277 13.528 11.433 0 6.633-6.546 13.44-16.059 13.44-7.505 0-13.527-4.887-16.67-11.258h4.976c2.443 3.928 6.283 6.982 11.607 6.982 6.11 0 11.695-4.102 11.695-8.902 0-4.975-4.102-7.331-8.466-7.331h-5.934zM127.959 43.9L104.133 9.337V43.9h-4.538V.785h3.927l23.826 34.561V.786h4.451v43.113h-3.84z" fill="#000"/><path d="M14.328 24H.8l13.702 19.9h13.615L14.327 24z" fill="#A4A3A3"/><path d="M37.805 57.252h-1.833c-.61-.96-1.483-1.658-2.618-1.658-1.92 0-3.23 2.182-3.23 4.102 0 1.92 1.31 4.102 3.23 4.102 1.484 0 2.531-1.396 2.793-2.793h-2.88v-1.57h4.625v.523c0 2.88-2.094 5.498-4.538 5.498-2.793 0-4.887-2.88-4.887-5.673 0-2.88 2.094-5.672 4.887-5.672 2.095-.088 3.666 1.309 4.451 3.141zm2.618 7.942V56.38h1.571v.699c.611-.611 1.397-.873 2.27-.873h.436v1.484c-.087 0-.262-.088-.437-.088-1.221 0-2.269 1.135-2.269 2.27v5.149h-1.57v.174zm13.527-4.451c0 2.357-1.745 4.626-4.101 4.626-2.357 0-4.102-2.27-4.102-4.626 0-2.356 1.745-4.625 4.102-4.625 2.356 0 4.102 2.356 4.102 4.625zm-1.57 0c0-1.483-1.047-3.055-2.531-3.055-1.484 0-2.531 1.659-2.531 3.055 0 1.397 1.047 3.055 2.53 3.055 1.485 0 2.532-1.571 2.532-3.055zm11.433-4.363v8.814h-1.57v-.698c-.611.611-1.397.873-2.183.873-2.007 0-3.752-1.833-3.752-3.84v-5.15h1.57v5.15c0 1.222 1.048 2.269 2.182 2.269 1.135 0 2.182-1.135 2.182-2.27V56.38h1.571zm11.172 4.363c0 2.357-1.746 4.626-4.102 4.626-.96 0-1.833-.436-2.531-1.135v3.84H66.78V56.38h1.57v.96c.699-.786 1.484-1.135 2.532-1.135 2.356 0 4.102 2.27 4.102 4.538zm-1.571 0c0-1.483-1.048-3.054-2.531-3.054-1.484 0-2.531 1.658-2.531 3.054 0 1.397 1.047 3.055 2.53 3.055 1.484.087 2.532-1.571 2.532-3.055z" fill="#000"/></svg>