<svg width="168" height="45" fill="none" xmlns="http://www.w3.org/2000/svg"><g clip-path="url(#clip0_896_1008)" fill-rule="evenodd" clip-rule="evenodd"><path d="M0 .769h44.155V45H0V.769z" fill="#000"/><path d="M1.277 2.047h41.6v41.674h-41.6V2.047z" fill="#EFEFEF"/><path d="M3.484 35.3l5.427 5.542L21.626 27.92l13.14 13.188 5.506-5.461-13.008-13.03 2.5-2.424v-5.169l1.57-1.332v4.05l2.022 1.652 6.037-6.048 1.942 1.492C42.479 10.6 35.855.982 30.376 6.31l-6.385 6.341 1.304 1.573-3.245 3.17-3.138-3.09 1.649-1.494-6.996-6.767C8.3 1.701 2.9 8.31 2.713 14.757l1.915-1.598 5.877 6.342 2.102-1.758v-3.89l1.303.985v5.089l2.553 2.558L3.484 35.3zM55.432 6.071v3.837h1.65c2.26-.426 1.648-3.677 0-3.837h-1.65zm-4.68-3.81v17.373h4.68v-5.649l3.99 5.649h5.533l-4.92-6.954c5.693-2.77 3.565-10.339-2.42-10.418H50.75V2.26zm21.65 8.686c1.544 0 2.793 1.172 2.793 2.611 0 1.438-1.25 2.611-2.792 2.611-1.516 0-2.767-1.173-2.767-2.61 0-1.44 1.25-2.612 2.767-2.612zm-.984-3.837a6.02 6.02 0 013.458 1.118v-.665h4.575l.027 12.07h-4.629l.027-.746a5.994 5.994 0 01-3.458 1.093c-3.405 0-6.197-2.878-6.197-6.422 0-3.544 2.793-6.448 6.197-6.448zm10.48.453h4.868v12.07H81.9V7.563zM84.346.662c1.41 0 2.554 1.172 2.554 2.584 0 1.413-1.143 2.585-2.554 2.585a2.585 2.585 0 010-5.17zm36.947 6.9h4.868v12.071h-4.868V7.563zm2.42-6.9a2.584 2.584 0 010 5.169c-1.41 0-2.553-1.173-2.553-2.585 0-1.411 1.143-2.584 2.553-2.584zm-36.041 6.9V11.4h1.675v8.233h4.71V11.4h4.415v8.233h4.867v-8.286h3.032v-3.73h-3.166V4.926c-.079-.986 2.235-1.386 3.033-.586V.395c-4.469-1.412-8.086 1.12-8.06 5.036v2.132h-4.15V4.926c-.053-.986 1.97-1.386 3.139-.586V.395c-3.884-1.145-8.033.746-8.006 5.01v2.131l-1.49.027zm25.641 12.418c4.176-.027 5.718-1.758 6.624-4.29h-4.229c-1.916 2.451-4.709.666-4.575-1.332h8.937c0-4.903-2.607-7.221-6.756-7.221s-6.755 2.93-6.755 6.502c0 3.57 3.031 6.367 6.754 6.34zm-1.57-8.473c.054-1.466 3.246-1.466 3.458 0h-3.458zm34.713 8.473c4.202-.027 5.746-1.758 6.649-4.29h-4.256c-1.915 2.451-4.708.666-4.574-1.332h8.938c0-4.903-2.58-7.221-6.756-7.221-4.15 0-6.756 2.93-6.756 6.502 0 3.57 3.03 6.367 6.755 6.34zm-1.57-8.473c.053-1.466 3.245-1.466 3.458 0h-3.458zm-6.463-3.704l-1.437 2.931c-1.808-.56-3.564-.453-3.511.053.054.32-.239.88 2.58 1.28 4.202.665 3.857 8.499-3.192 7.913-1.941-.133-3.511-.64-4.814-1.413l1.57-3.144c2.208 1.092 4.335 1.732 4.495.64.186-1.36-2.315-.88-3.831-2.026-2.712-1.679-1.171-6.874 3.273-6.928 1.568-.105 3.191.16 4.867.694zm16.651-.24v12.07h4.549v-7.38c.133-1.84 3.75-2.16 3.777 0v7.38h4.6v-7.567c-.106-4.236-4.548-6.288-8.565-3.597v-.906h-4.362zM53.437 27.014L50.405 44.92h8.592c5.825 0 8.219-7.247 4.07-9.726 3.537-3.277 1.729-8.206-2.075-8.26l-7.555.08zm3.485 10.685l-.612 2.958h1.995c2.26.106 1.995-2.958.692-2.958h-2.075zm1.01-6.422l-.505 2.399.612.026c1.836.106 2.9-2.425.691-2.425h-.798zm7.076 13.67h5.213l1.57-3.145h5.905L78.573 45h4.814l-4.175-17.88H74.29l-9.283 17.826zm8.486-6.902h3.245l-1.037-4.717-2.209 4.717zM85.036 45h4.815l1.223-11.218 6.889 11.164h5.16l2.155-17.933h-4.814l-1.357 11.218-6.89-11.272h-4.974L85.037 45zm23.7-18.04l-3.378 17.986h5.081l1.356-6.715 4.548 6.715h6.676l-6.516-9.433 8.326-8.58h-6.464l-5.692 6.342.904-6.341-4.841.026z" fill="#000"/></g><defs><clipPath id="clip0_896_1008"><path fill="#fff" d="M0 0h168v45H0z"/></clipPath></defs></svg>