<svg width="157" height="26" fill="none" xmlns="http://www.w3.org/2000/svg"><g clip-path="url(#clip0_1701_65494)" fill="#000"><path d="M70.052 7.483l3.266-2.438H62.384v14.608h10.934v-2.44h-7.81v-3.729h6.674v-2.438h-6.674V7.483h4.544zm-15.927 3.252h-3.787V7.483h6.059l3.266-2.438H47.215v14.608h6.508c3.644 0 5.75-1.674 5.75-4.59 0-2.798-1.893-4.328-5.348-4.328zm-.52 6.479h-3.267v-4.04h3.266c1.988 0 2.911.669 2.911 2.032 0 1.362-.994 2.008-2.91 2.008zM82.17 5.045h-5.94v14.608h3.123v-4.137h2.84c3.787 0 6.153-2.008 6.153-5.236 0-3.227-2.366-5.235-6.177-5.235zm-.072 8.033H79.33V7.483h2.77c2.011 0 3.1 1.004 3.1 2.798 0 1.793-1.089 2.797-3.1 2.797zm-40.232 3.419a5.6 5.6 0 01-2.698.693c-2.816 0-4.852-2.032-4.852-4.83 0-2.797 2.035-4.829 4.852-4.829 1.017-.024 2.011.31 2.84.909l2.248-1.674-.142-.143c-1.302-1.172-3.053-1.77-5.04-1.77-2.154 0-4.119.742-5.539 2.08a7.237 7.237 0 00-2.177 5.332 7.589 7.589 0 002.177 5.427c1.491 1.41 3.48 2.2 5.515 2.152 2.248 0 4.212-.79 5.537-2.224l-2.011-1.506-.71.383zm84.038-11.428v14.608h3.124v-5.978h6.651v5.978h3.124V5.069h-3.124v6h-6.651v-6h-3.124zm-5.372 14.608h3.29l-6.106-14.608h-3.171l-6.225 14.608h3.148l1.254-2.941h6.627l1.183 2.94zm-6.863-5.38l2.414-5.857 2.272 5.857h-4.686zm32.139-.526h1.94l4.781 5.882h4.023l-6.39-7.555 5.586-7.053h-3.574l-4.639 6.264h-1.727V5.045h-3.124v14.608h3.124V13.77zM98.002 10.76V7.507h8.165V5.07h-11.29v14.608h6.509c3.645 0 5.751-1.674 5.751-4.59 0-2.798-1.893-4.328-5.349-4.328h-3.786zm0 6.479v-4.04h3.266c1.988 0 2.911.669 2.911 2.031 0 1.363-.971 2.033-2.911 2.033h-3.266v-.024zM21.584 4.949a12.998 12.998 0 011.444 2.415l-10.934 8.152L7.502 12.6V9.109l4.568 2.893 9.514-7.053zM2.84 12.36c0-.167 0-.31.024-.478l-2.77-.143c0 .191-.023.406-.023.598a12.17 12.17 0 003.526 8.583l1.965-1.985a9.236 9.236 0 01-2.722-6.574zm9.23-9.324c.165 0 .307 0 .473.024l.142-2.797c-.19 0-.402-.024-.591-.024-3.314 0-6.32 1.363-8.497 3.562l1.965 1.985a9.092 9.092 0 016.508-2.75zm0 18.649c-.166 0-.308 0-.473-.024l-.142 2.797c.189 0 .402.024.591.024 3.314 0 6.32-1.363 8.497-3.562l-1.965-1.985c-1.656 1.722-3.952 2.75-6.508 2.75z"/><path d="M17.276 4.662l2.343-1.745C17.56 1.243 14.933.215 12.07.215v2.797c1.941.024 3.74.622 5.207 1.65zm6.817 7.698c0-.74-.071-1.458-.19-2.175l-2.58 1.936v.24a9.305 9.305 0 01-3.052 6.909l1.87 2.08a12.166 12.166 0 003.952-8.99zM12.07 21.685A9.129 9.129 0 015.23 18.6l-2.059 1.888c2.201 2.463 5.372 3.993 8.899 3.993v-2.797zM5.893 5.451l-1.87-2.08a12.119 12.119 0 00-3.952 8.99H2.84a9.344 9.344 0 013.053-6.91z"/></g><defs><clipPath id="clip0_1701_65494"><path fill="#fff" d="M0 0h156.671v25.924H0z"/></clipPath></defs></svg>