<svg width="30" height="30" viewBox="0 0 30 30" fill="none" xmlns="http://www.w3.org/2000/svg">
<path d="M15 0C6.729 0 0 6.729 0 15C0 23.271 6.729 30 15 30C23.271 30 30 23.271 30 15C30 6.729 23.271 0 15 0ZM15 27.2727C8.23273 27.2727 2.72727 21.7672 2.72727 15C2.72727 8.23282 8.23273 2.72727 15 2.72727C21.7673 2.72727 27.2727 8.23282 27.2727 15C27.2727 21.7672 21.7672 27.2727 15 27.2727Z" fill="#33C1CC"/>
<path d="M15 0C6.729 0 0 6.729 0 15C0 23.271 6.729 30 15 30C23.271 30 30 23.271 30 15C30 6.729 23.271 0 15 0ZM15 27.2727C8.23273 27.2727 2.72727 21.7672 2.72727 15C2.72727 8.23282 8.23273 2.72727 15 2.72727C21.7673 2.72727 27.2727 8.23282 27.2727 15C27.2727 21.7672 21.7672 27.2727 15 27.2727Z" stroke="#F2F6FF"/>
<path d="M20.6248 9.69673L12.9108 17.4106L9.37532 13.8751C8.84287 13.3426 7.97941 13.3425 7.44686 13.875C6.91432 14.4075 6.91432 15.2709 7.44686 15.8034L11.9465 20.3033C12.2022 20.559 12.5491 20.7027 12.9107 20.7027H12.9108C13.2724 20.7027 13.6192 20.559 13.875 20.3034L22.5532 11.6253C23.0858 11.0927 23.0858 10.2294 22.5532 9.69682C22.0207 9.16427 21.1573 9.16418 20.6248 9.69673Z" fill="#33C1CC"/>
<path d="M20.6248 9.69673L12.9108 17.4106L9.37532 13.8751C8.84287 13.3426 7.97941 13.3425 7.44686 13.875C6.91432 14.4075 6.91432 15.2709 7.44686 15.8034L11.9465 20.3033C12.2022 20.559 12.5491 20.7027 12.9107 20.7027H12.9108C13.2724 20.7027 13.6192 20.559 13.875 20.3034L22.5532 11.6253C23.0858 11.0927 23.0858 10.2294 22.5532 9.69682C22.0207 9.16427 21.1573 9.16418 20.6248 9.69673Z" stroke="#F2F6FF"/>
</svg>
