<svg width="80" height="80" viewBox="0 0 80 80" fill="none" xmlns="http://www.w3.org/2000/svg">
<path d="M30.7718 29.7469C24.6183 28.4421 18.1082 28.2607 11.4226 29.2078C9.99056 29.4108 8.73503 30.1665 7.88705 31.3361C7.04296 32.5002 6.71623 33.9204 6.967 35.335C7.08119 35.9786 7.19386 36.5804 7.30181 37.1232C7.78988 39.5763 8.31938 41.7878 8.87565 43.6963C9.72463 46.6088 12.0688 48.7881 14.9955 49.384L15.1971 49.4246C16.3019 49.6422 17.4288 49.7525 18.5462 49.7525C25.9988 49.7525 32.6209 44.984 35.0245 37.8866L35.1705 37.455C35.7126 35.852 35.5431 34.0897 34.7055 32.6196C33.8665 31.146 32.4324 30.0989 30.7718 29.7469ZM33.5724 36.9245L33.4296 37.3462C31.2577 43.7593 25.2766 48.0682 18.5464 48.0682C17.5379 48.0682 16.5207 47.9685 15.526 47.7726L15.3297 47.7332C13.0195 47.263 11.1659 45.5354 10.4926 43.2249C9.94997 41.3632 9.43227 39.1998 8.95363 36.7944C8.84786 36.2631 8.73738 35.6731 8.62539 35.0411C8.45512 34.0803 8.67709 33.1156 9.25055 32.3247C9.82787 31.5283 10.6833 31.0138 11.6587 30.8755C18.1488 29.9561 24.4618 30.1308 30.4224 31.3945C31.6129 31.647 32.6407 32.3975 33.2425 33.4533C33.8422 34.5057 33.9637 35.7676 33.5724 36.9245Z" fill="white"/>
<path d="M30.2406 32.2519C26.8717 31.5375 23.3319 31.1752 19.7199 31.1752C18.7625 31.1752 17.7826 31.2015 16.8077 31.2532C16.3433 31.2778 15.9868 31.6742 16.0114 32.1387C16.036 32.6032 16.4336 32.9589 16.8969 32.935C17.8422 32.8848 18.7919 32.8594 19.7199 32.8594C23.2147 32.8594 26.6367 33.2094 29.8914 33.8994C30.3744 34.0017 30.7744 34.2934 31.0179 34.7207C31.2594 35.1446 31.3062 35.6327 31.1499 36.095C31.0009 36.5356 31.2373 37.0135 31.6779 37.1624C31.7673 37.1927 31.8583 37.207 31.9477 37.207C32.2989 37.207 32.6266 36.9856 32.7453 36.6344C33.0579 35.7102 32.9641 34.7345 32.4812 33.8869C31.9962 33.0361 31.2004 32.4554 30.2406 32.2519Z" fill="white"/>
<path d="M72.698 37.123C72.8058 36.5807 72.9184 35.9792 73.0326 35.3348C73.2834 33.9203 72.9567 32.5 72.1127 31.3361C71.2648 30.1665 70.0091 29.4106 68.577 29.2078C61.8914 28.2608 55.3813 28.4422 49.2279 29.7469C47.5674 30.0989 46.1333 31.146 45.2939 32.6194C44.4564 34.0895 44.287 35.8518 44.8288 37.4545L44.9749 37.8865C47.3784 44.9838 54.0007 49.7523 61.4532 49.7523C62.5707 49.7523 63.6974 49.642 64.8054 49.4237L65.0058 49.3835C67.9305 48.7881 70.2748 46.6089 71.1236 43.6963C71.6799 41.789 72.2096 39.5775 72.698 37.123ZM69.5072 43.2249C68.8337 45.5354 66.9803 47.2628 64.6721 47.7327L64.4768 47.7719C63.4791 47.9685 62.4619 48.0682 61.4534 48.0682C54.7232 48.0682 48.7421 43.7594 46.5702 37.3462L46.4245 36.9152C46.0363 35.7675 46.1577 34.5055 46.7574 33.4529C47.359 32.397 48.387 31.6467 49.5776 31.3942C53.0316 30.6619 56.6032 30.2953 60.2597 30.2953C62.9132 30.2953 65.6119 30.4885 68.3411 30.8752C69.3167 31.0134 70.1721 31.5281 70.7494 32.3244C71.3229 33.1152 71.545 34.0799 71.3747 35.0404C71.2624 35.6731 71.1519 36.2633 71.0463 36.7939C70.5674 39.2009 70.0495 41.3644 69.5072 43.2249Z" fill="white"/>
<path d="M68.2181 31.7431C65.5577 31.3664 62.887 31.1752 60.2799 31.1752C59.2699 31.1752 58.252 31.204 57.2545 31.2608C56.7901 31.2872 56.4353 31.685 56.4616 32.1493C56.488 32.6137 56.8851 32.9697 57.3501 32.9422C58.3158 32.8873 59.3016 32.8594 60.2799 32.8594C62.8081 32.8594 65.3994 33.0448 67.9818 33.4106C68.2636 33.4505 68.5102 33.5986 68.6762 33.8276C68.8406 34.0543 68.9017 34.3192 68.8532 34.5937C68.7721 35.0517 69.0774 35.4887 69.5355 35.5699C69.5852 35.5786 69.6345 35.583 69.6833 35.583C70.084 35.583 70.4392 35.2959 70.5114 34.8878C70.6399 34.1633 70.4724 33.4357 70.0397 32.8392C69.6032 32.2368 68.9563 31.8475 68.2181 31.7431Z" fill="white"/>
<path d="M79.8033 53.1233L73.269 45.328C73.3858 45.0294 73.4913 44.7246 73.5822 44.4127C74.8822 39.953 75.7186 34.9806 76.0037 33.1511H77.6688C78.134 33.1511 78.5109 32.774 78.5109 32.309V28.2121C78.5109 27.8389 78.2652 27.5102 77.9071 27.4044C62.2665 22.7905 50.2085 25.2925 44.4133 27.1949C41.5262 28.1426 38.474 28.1427 35.5865 27.1949C29.7913 25.2927 17.734 22.7903 2.09272 27.4044C1.73467 27.51 1.48895 27.8389 1.48895 28.2121V32.309C1.48895 32.774 1.86603 33.1511 2.33103 33.1511H3.99615C4.28128 34.9806 5.1178 39.953 6.41763 44.4128C6.50857 44.7248 6.614 45.0296 6.73088 45.3282L0.196697 53.1233C0.0385554 53.3121 -0.0291476 53.5607 0.0116089 53.8037C0.0525339 54.0465 0.19754 54.2596 0.408901 54.3862C1.33754 54.9435 2.36286 55.2147 3.37908 55.2147C4.90492 55.2147 6.40971 54.6025 7.53321 53.4271L10.5952 50.2232C11.7685 51.0351 13.113 51.6166 14.5662 51.9092L14.7025 51.9363C15.9789 52.1879 17.2543 52.3093 18.5166 52.3092C25.8681 52.3088 32.73 48.1855 36.1921 41.6321L43.3245 40.6442C46.5983 47.768 53.7696 52.3095 61.4836 52.3092C62.745 52.3092 64.0216 52.1877 65.2975 51.9363L65.4159 51.9127C66.8759 51.6195 68.2259 51.0363 69.4036 50.2215L72.467 53.4269C73.5905 54.6025 75.0951 55.2145 76.6211 55.2145C77.6371 55.2145 78.6626 54.943 79.5913 54.3861C79.8026 54.2593 79.9476 54.0464 79.9884 53.8035C80.0291 53.5607 79.9614 53.3121 79.8033 53.1233ZM6.31557 52.2637C5.23063 53.3988 3.64349 53.7912 2.20118 53.3537L7.545 46.9787C8.03105 47.7815 8.6173 48.5119 9.28726 49.1541L6.31557 52.2637ZM37.0339 39.8154C37.1816 39.4517 37.3227 39.0837 37.45 38.7078C37.8823 37.4312 38.264 36.2978 38.5501 35.4451C38.7593 34.8218 39.342 34.4029 39.9998 34.4029C40.6577 34.4029 41.2404 34.8218 41.4496 35.4451C41.7357 36.2976 42.1173 37.431 42.5496 38.7076C42.587 38.8179 42.6288 38.9257 42.6679 39.035L37.0339 39.8154ZM65.0851 50.2616L64.972 50.284C56.0345 52.0456 47.081 46.8363 44.1449 38.1675C43.7132 36.8926 43.3323 35.7605 43.0465 34.9092C42.6066 33.5991 41.3824 32.7189 40 32.7189C38.6176 32.7189 37.3933 33.5992 36.9537 34.9092C36.6679 35.7605 36.2868 36.8926 35.855 38.1675C32.919 46.8365 23.965 52.0454 15.0279 50.284L14.8989 50.2582C11.6073 49.5957 8.9772 47.1754 8.03458 43.9416C6.44794 38.4984 5.56359 32.2548 5.55483 32.1923C5.49656 31.7765 5.14087 31.4669 4.72084 31.4669H3.1731V28.8447C18.0811 24.5993 29.5269 26.9782 35.0612 28.795C38.2923 29.8559 41.7079 29.8555 44.9386 28.795C50.4729 26.9785 61.9194 24.5996 76.8267 28.8447V31.4669H75.279C74.8591 31.4669 74.5033 31.7763 74.445 32.1923C74.4362 32.2548 73.5532 38.4942 71.9656 43.9415C71.0223 47.1771 68.3856 49.5989 65.0851 50.2616ZM73.6844 52.2637L70.7116 49.1529C71.3817 48.5107 71.9683 47.7806 72.4545 46.9781L77.7988 53.3539C76.3567 53.7914 74.7692 53.3988 73.6844 52.2637Z" fill="white"/>
</svg>
