<?xml version="1.0" encoding="utf-8"?><svg viewBox="0 0 502.66 502.66" xmlns="http://www.w3.org/2000/svg" xmlns:xlink="http://www.w3.org/1999/xlink"><style>:root>svg{display:none}:root>svg:target{display:block}</style><svg viewBox="0 0 8 11" id="arrow-right" xmlns="http://www.w3.org/2000/svg"><path d="M1 10l5-4.5L1 1"/></svg><svg viewBox="0 0 16 16" id="clock" xmlns="http://www.w3.org/2000/svg"><path d="M8 0C3.589 0 0 3.589 0 8s3.589 8 8 8 8-3.589 8-8-3.589-8-8-8zm0 15c-3.86 0-7-3.14-7-7s3.14-7 7-7 7 3.14 7 7-3.14 7-7 7z"/><path d="M8.5 3h-1v5.207l3.146 3.146.707-.707L8.5 7.793V3z"/></svg><svg viewBox="0 0 37 37" id="fb" xmlns="http://www.w3.org/2000/svg"><circle cx="18.5" cy="18.5" r="18"/><g clip-path="url(#ca)"><path d="M21.664 12.155H23.4V9.134A22.485 22.485 0 0020.872 9c-2.501 0-4.214 1.573-4.214 4.464v2.661h-2.76v3.377h2.76V28h3.383v-8.497h2.648l.42-3.377H20.04v-2.327c.001-.976.264-1.644 1.624-1.644z"/></g><defs><clipPath id="ca"><path transform="translate(9 9)" d="M0 0h19v19H0z"/></clipPath></defs></svg><svg viewBox="0 0 502.664 502.664" id="icon" xmlns="http://www.w3.org/2000/svg"><path d="M153.821 358.226L0 274.337v-46.463l153.821-83.414v54.574L46.636 250.523l107.185 53.431v54.272zm26.273 29.358L282.103 115.08h32.227L212.084 387.584h-31.99zm168.749-29.358v-54.272l107.164-52.999-107.164-52.59v-53.927l153.821 83.522v46.183l-153.821 84.083z"/></svg><svg viewBox="0 0 37 37" id="inst" xmlns="http://www.w3.org/2000/svg"><circle cx="18.5" cy="18.5" r="18"/><path d="M22.857 9h-8.714A5.149 5.149 0 009 14.143v8.714A5.149 5.149 0 0014.143 28h8.714A5.149 5.149 0 0028 22.857v-8.714A5.149 5.149 0 0022.857 9zM18.5 23.695a5.201 5.201 0 01-5.195-5.195 5.201 5.201 0 015.195-5.195 5.201 5.201 0 015.195 5.195 5.201 5.201 0 01-5.195 5.195zm5.32-9.165a1.537 1.537 0 01-1.536-1.535 1.537 1.537 0 013.071 0c0 .847-.69 1.535-1.536 1.535z"/><path d="M18.5 14.419a4.086 4.086 0 00-4.081 4.081 4.086 4.086 0 004.081 4.081 4.086 4.086 0 004.081-4.081c0-2.25-1.83-4.081-4.081-4.081zm5.32-1.845a.422.422 0 100 .843.422.422 0 000-.843z"/></svg><svg viewBox="0 0 29 29" id="search" xmlns="http://www.w3.org/2000/svg"><g clip-path="url(#fa)"><path d="M12.771 0C5.729 0 0 5.73 0 12.771c0 7.042 5.73 12.771 12.771 12.771 7.042 0 12.771-5.729 12.771-12.771C25.542 5.729 19.813 0 12.771 0zm0 23.184c-5.742 0-10.413-4.671-10.413-10.413S7.029 2.358 12.77 2.358 23.184 7.029 23.184 12.77s-4.671 10.413-10.413 10.413z"/><path d="M28.654 26.988l-6.758-6.76a1.178 1.178 0 10-1.667 1.668l6.759 6.759a1.175 1.175 0 001.666 0 1.178 1.178 0 000-1.667z"/></g><defs><clipPath id="fa"><path d="M0 0h29v29H0z"/></clipPath></defs></svg><svg viewBox="0 0 7 6" id="triangle" xmlns="http://www.w3.org/2000/svg"><path d="M3.5 6L.469.75H6.53L3.5 6z"/></svg><svg viewBox="0 0 37 37" id="vk" xmlns="http://www.w3.org/2000/svg"><circle cx="18.5" cy="18.5" r="18"/><g clip-path="url(#ha)"><path d="M27.9 22.87a1.31 1.31 0 00-.065-.124c-.33-.593-.96-1.322-1.89-2.186l-.02-.02-.01-.01-.009-.01h-.01c-.422-.402-.69-.672-.801-.81-.205-.265-.25-.532-.139-.802.08-.205.376-.637.89-1.296.27-.35.485-.63.643-.841 1.141-1.517 1.636-2.486 1.484-2.908l-.059-.099c-.04-.06-.141-.114-.306-.163-.165-.05-.376-.058-.633-.025l-2.85.02a.37.37 0 00-.197.005l-.129.03-.05.024-.039.03a.44.44 0 00-.109.104.681.681 0 00-.098.173 16.01 16.01 0 01-1.06 2.226c-.243.409-.467.763-.672 1.063-.204.3-.376.521-.514.663a3.58 3.58 0 01-.376.341c-.112.086-.198.122-.257.109a7.708 7.708 0 01-.169-.04.657.657 0 01-.222-.242 1.086 1.086 0 01-.114-.386 4.27 4.27 0 01-.035-.4 8.338 8.338 0 01.006-.475c.006-.205.01-.343.01-.416 0-.25.004-.523.014-.816l.025-.697c.007-.172.01-.353.01-.544a2.27 2.27 0 00-.035-.45 1.55 1.55 0 00-.103-.317.533.533 0 00-.203-.238c-.09-.056-.2-.1-.332-.133-.35-.08-.794-.122-1.335-.129-1.227-.013-2.015.066-2.364.238a1.331 1.331 0 00-.376.296c-.12.146-.136.225-.05.238.396.06.676.2.84.425l.06.119c.046.086.093.237.139.455.046.218.076.458.089.722.033.481.033.894 0 1.237-.033.343-.064.61-.094.8a1.603 1.603 0 01-.253.683.172.172 0 01-.049.05.742.742 0 01-.267.05c-.092 0-.205-.047-.336-.14a2.374 2.374 0 01-.41-.38 5.1 5.1 0 01-.48-.678c-.179-.29-.363-.633-.555-1.028l-.158-.287a24.699 24.699 0 01-.405-.807 15.554 15.554 0 01-.455-1.024.652.652 0 00-.238-.316l-.05-.03a.675.675 0 00-.158-.084 1.052 1.052 0 00-.227-.064l-2.71.02c-.278 0-.466.062-.565.188l-.04.059A.32.32 0 009 13.98c0 .073.02.162.06.267.395.93.825 1.827 1.29 2.691.465.864.87 1.56 1.212 2.087.343.528.693 1.026 1.049 1.494.356.468.592.768.707.9.115.132.206.231.272.297l.247.237c.159.159.391.348.698.57.307.22.646.438 1.019.652.373.214.806.39 1.3.524.495.136.977.19 1.445.164h1.138c.23-.02.405-.093.524-.218l.04-.05a.66.66 0 00.073-.182.979.979 0 00.035-.272c-.007-.284.015-.54.064-.767a2.03 2.03 0 01.169-.514 1.263 1.263 0 01.38-.436.638.638 0 01.08-.034c.158-.053.344-.002.559.153.214.155.415.347.603.574.188.228.414.483.678.767.264.283.494.494.692.633l.198.119c.132.079.304.151.515.217.21.066.395.083.553.05l2.533-.04c.25 0 .445-.041.584-.123.138-.083.22-.174.247-.273a.767.767 0 00.005-.336 1.243 1.243 0 00-.07-.262z"/></g><defs><clipPath id="ha"><path transform="translate(9 9)" d="M0 0h19v19H0z"/></clipPath></defs></svg></svg>