<?xml version="1.0" encoding="utf-8"?><svg xmlns="http://www.w3.org/2000/svg" xmlns:xlink="http://www.w3.org/1999/xlink"><symbol viewBox="0 0 34 24" id="arrow-down" xmlns="http://www.w3.org/2000/svg"><path d="M26.406 14.231l-1.154-.933-7.928 8.194V0h-1.539v21.492l-7.928-8.194-1.149.933L16.16 24h.795l9.451-9.769z"/></symbol><symbol viewBox="0 0 43 43" id="arrow-link" xmlns="http://www.w3.org/2000/svg"><path d="M1.911 41.956l28.801-28.801M6.42 12.247h24.387v24.386"/></symbol><symbol viewBox="0 0 24 24" id="circle-arrow-up" xmlns="http://www.w3.org/2000/svg"><g><g><path d="M12 16.5v-9M15 10.5l-3-3-3 3"/></g><path clip-rule="evenodd" d="M12 22c5.523 0 10-4.477 10-10S17.523 2 12 2 2 6.477 2 12s4.477 10 10 10z"/></g></symbol><symbol viewBox="0 0 37 15" id="nav-next-mobile" xmlns="http://www.w3.org/2000/svg"><path d="M.664 1h33L21.025 14"/></symbol><symbol viewBox="0 0 37 15" id="nav-prev-mobile" xmlns="http://www.w3.org/2000/svg"><path d="M36.336 14h-33L15.975 1"/></symbol><symbol viewBox="0 0 30 30" id="phone" xmlns="http://www.w3.org/2000/svg"><g clip-path="url(#fclip0_940_1737)"><path d="M18.563 19.585c-.94-.53-2.742-1.679-4.7-3.637-1.96-1.96-3.122-3.774-3.66-4.723l3.16-3.2L5.385 0l-3.93 3.904a4.943 4.943 0 00-.962 5.65c1.398 2.88 3.98 7.227 8.331 11.58 4.353 4.351 8.7 6.933 11.58 8.331a4.893 4.893 0 002.142.493 4.96 4.96 0 003.508-1.455l3.912-3.926-8.14-8.152-3.264 3.16zm5.835 7.265a2.604 2.604 0 01-2.973.511c-2.719-1.32-6.824-3.76-10.947-7.882-4.122-4.122-6.561-8.228-7.881-10.946a2.602 2.602 0 01.51-2.972l2.268-2.253L10.07 8.03l-2.692 2.726.325.73c.053.118 1.33 2.939 4.506 6.115 3.178 3.178 5.975 4.428 6.092 4.48l.72.316 2.778-2.69 4.863 4.87-2.264 2.272zM21.63 11.019l-5.506-5.505L21.63.008l1.654 1.654-2.623 2.623h5.817a3.516 3.516 0 013.516 3.51L30 13.932l-2.34.003-.006-6.14c0-.647-.528-1.171-1.177-1.171h-5.934l2.74 2.74-1.654 1.654z"/></g><defs><clipPath id="fclip0_940_1737"><path d="M0 0h30v30H0z"/></clipPath></defs></symbol><symbol viewBox="0 0 34 35" id="refresh" xmlns="http://www.w3.org/2000/svg"><path d="M31.167 17.5l-4.25 4.25-4.25-4.25"/><path d="M15.583 28.833C9.324 28.833 4.25 23.76 4.25 17.5c0-6.26 5.074-11.333 11.333-11.333 6.26 0 11.334 5.074 11.334 11.333v2.833"/></symbol><symbol viewBox="0 0 20 20" id="search" xmlns="http://www.w3.org/2000/svg"><path d="M12.195 3.704a6.192 6.192 0 010 8.756l1.06 1.061a7.692 7.692 0 000-10.877l-1.06 1.06zm0 8.756a6.192 6.192 0 01-8.756 0l-1.061 1.061a7.691 7.691 0 0010.877 0l-1.06-1.06zm-8.756 0a6.191 6.191 0 010-8.756l-1.061-1.06a7.692 7.692 0 000 10.877l1.06-1.06zm0-8.756a6.191 6.191 0 018.756 0l1.06-1.06a7.691 7.691 0 00-10.877 0l1.06 1.06zm8.687 9.474l6.041 6.04 1.06-1.06-6.04-6.04-1.06 1.06z"/></symbol><symbol viewBox="0 0 8 16" id="switch-city" xmlns="http://www.w3.org/2000/svg"><path d="M7 4.5l-3-3-3 3M7 11.5l-3 3-3-3"/></symbol><symbol viewBox="0 0 35 35" id="telegram" xmlns="http://www.w3.org/2000/svg"><g clip-path="url(#jclip0_940_1752)"><path d="M35 3.452l-5.535 27.91s-.774 1.935-2.904 1.006L13.73 22.546c1.725-1.55 15.105-13.579 15.69-14.125.905-.844.343-1.346-.708-.708L8.948 20.264l-7.625-2.567s-1.2-.426-1.316-1.355c-.116-.929 1.355-1.432 1.355-1.432L32.446 2.716S35 1.594 35 3.452z"/></g><defs><clipPath id="jclip0_940_1752"><path d="M0 0h35v35H0z"/></clipPath></defs></symbol><symbol viewBox="0 0 35 35" id="whatsapp" xmlns="http://www.w3.org/2000/svg"><g clip-path="url(#kclip0_940_1747)"><path d="M2.185 25.686l-.056-.097C.738 23.014 0 20.182 0 17.392v-.007c.007-4.627 1.837-8.983 5.15-12.267A17.438 17.438 0 0117.5.03a17.36 17.36 0 0112.33 5.087C33.17 8.444 35.007 12.8 35 17.399c0 4.627-1.83 8.983-5.156 12.267-3.312 3.278-7.696 5.087-12.344 5.087h-.007A17.51 17.51 0 019.63 32.88l-.097-.049L.139 34.97l2.046-9.283zm8.023 5.031a15.327 15.327 0 007.285 1.844c8.447 0 15.315-6.805 15.315-15.162 0-4.008-1.607-7.814-4.53-10.73a15.185 15.185 0 00-10.785-4.446c-8.433 0-15.308 6.805-15.308 15.17 0 2.58.724 5.204 2.101 7.577l.216.368-1.482 6.736 6.826-1.552.362.195z"/><path d="M22.037 24.6c-.536 0-1.524-.11-3.945-1.064-2.415-.946-4.802-3.04-6.729-5.887-.049-.07-.077-.118-.097-.139l-.007-.007c-.48-.64-1.6-2.31-1.6-4.015 0-1.753.855-2.658 1.266-3.096.027-.035.055-.063.083-.09.348-.383.752-.411.87-.411h.772c.23.007.41.02.64.5l.014.036c.21.459.557 1.322.835 2.018.244.598.37.911.418 1.008.09.188.104.307.035.446-.028.056-.056.111-.077.16-.083.18-.146.3-.278.46a9.1 9.1 0 01-.62.646c-.201.202-.584.578-.222 1.19.306.529 1.155 1.865 2.345 2.922 1.343 1.19 2.512 1.705 3.075 1.956.105.049.188.083.244.111.223.111.403.16.577.16.25 0 .466-.111.661-.334.195-.223 1.037-1.204 1.33-1.642.118-.174.187-.174.236-.174.09 0 .216.042.334.084.153.055.745.327 2.672 1.287l.07.035c.083.041.16.076.23.111.187.09.382.18.424.244.048.153.041.841-.258 1.683-.125.362-.529.78-1.106 1.149-.494.32-1.065.556-1.392.591l-.223.02c-.174.022-.354.043-.577.043z"/></g><defs><clipPath id="kclip0_940_1747"><path transform="translate(0 .031)" d="M0 0h35v34.937H0z"/></clipPath></defs></symbol></svg>