<svg width="359" height="398" fill="none" xmlns="http://www.w3.org/2000/svg"><path d="M282.128 390l-1.879.684.479 1.316h1.4v-2zm41.797 0v2h2.849l-.968-2.68-1.881.68zM184.786 5.03l1.881-.68-.478-1.32h-1.403v2zm-35.198 0v-2h-1.405l-.476 1.322 1.881.678zM10.999 390l-1.882-.677L8.153 392H11v-2zm41.247 0v2h1.407l.475-1.324-1.882-.676zm38.497-107.242v-2h-1.407l-.475 1.325 1.882.675zm152.338 0l1.88-.684-.48-1.316h-1.4v2zM167.187 72.675l1.881-.681-1.881-5.193-1.88 5.192 1.88.681zm62.145 171.586v2h2.852l-.971-2.681-1.881.681zm-124.29 0l-1.881-.681-.971 2.681h2.852v-2zM282.128 392h41.797v-4h-41.797v4zm43.678-2.68L186.667 4.35l-3.762 1.36 139.139 384.97 3.762-1.36zM184.786 3.03h-35.198v4h35.198v-4zm-37.079 1.322L9.117 389.323l3.764 1.354L151.47 5.707l-3.763-1.355zM10.999 392h41.247v-4H10.999v4zm43.13-1.324l38.496-107.242-3.764-1.351-38.497 107.241 3.764 1.352zm36.614-105.918h152.338v-4H90.743v4zm150.459-1.315l39.047 107.241 3.758-1.368-39.046-107.242-3.759 1.369zM165.307 73.356l62.145 171.586 3.761-1.362-62.145-171.587-3.761 1.363zm64.025 168.905h-124.29v4h124.29v-4zm-122.41 2.681l62.146-171.586-3.761-1.362-62.146 171.586 3.761 1.362z" fill="#E0E0E0"/></svg>