<svg width="14" height="14" fill="none" xmlns="http://www.w3.org/2000/svg"><g clip-path="url(#clip0_1547_20340)"><path d="M13.92 5.11a.36.36 0 00-.278-.131h-1.363c-.336-.887-.774-1.756-1.272-2.084-1.722-1.133-6.29-1.133-8.013 0-.499.328-.935 1.198-1.273 2.084H.36a.357.357 0 00-.351.43l.201.979a.358.358 0 00.351.285h.404a2.42 2.42 0 00-.581 1.582c-.003.7.263 1.332.749 1.78l.016.012v1.369c0 .296.24.537.537.537h1.257a.538.538 0 00.538-.537v-.55h7.04v.55c0 .296.241.537.538.537h1.257a.539.539 0 00.538-.537v-1.342a2.396 2.396 0 00.765-1.77 2.415 2.415 0 00-.608-1.631h.43c.17 0 .317-.12.351-.286l.202-.978a.361.361 0 00-.073-.298zM3.584 3.794c1.373-.904 5.46-.904 6.831 0 .267.175.61.882.925 1.748H2.66c.314-.866.657-1.573.924-1.748zM1.976 8.39a1.058 1.058 0 112.115 0 1.058 1.058 0 01-2.115 0zm9.004 1.058a1.058 1.058 0 110-2.116 1.058 1.058 0 010 2.116z" fill="#BDBDBD"/></g><defs><clipPath id="clip0_1547_20340"><path fill="#fff" d="M0 0h14v14H0z"/></clipPath></defs></svg>