<svg width="359" height="430" fill="none" xmlns="http://www.w3.org/2000/svg"><path d="M90.193 402v2h1.058l.595-.874L90.193 402zM303.027 89.624h2v-6.487l-3.653 5.361 1.653 1.126zm0 312.376h-2v2h2v-2zm39.597 0v2h2v-2h-2zm0-384.97h2v-2h-2v2zm-35.198 0v-2h-1.057l-.596.874 1.653 1.126zM94.593 329.406h-2v6.487l3.653-5.361-1.653-1.126zm0-312.376h2v-2h-2v2zm-39.597 0v-2h-2v2h2zm0 384.97h-2v2h2v-2zm36.85 1.126L304.679 90.75l-3.305-2.252L88.54 400.874l3.306 2.252zM301.027 89.624V402h4V89.624h-4zm2 314.376h39.597v-4h-39.597v4zm41.597-2V17.03h-4V402h4zm-2-386.97h-35.198v4h35.198v-4zm-36.851.874L92.94 328.279l3.306 2.253L309.079 18.156l-3.306-2.252zM96.593 329.406V17.03h-4v312.376h4zm-2-314.376H54.996v4h39.597v-4zm-41.597 2V402h4V17.03h-4zm2 386.97h35.197v-4H54.996v4z" fill="#000"/></svg>