<svg width="15" height="19" fill="none" xmlns="http://www.w3.org/2000/svg"><path opacity=".3" d="M7.5 1a6.719 6.719 0 00-4.627 1.919A6.237 6.237 0 001 7.424C1 11.93 6.804 18 7.5 18c.696 0 6.5-6.07 6.5-10.576a6.237 6.237 0 00-1.873-4.505A6.719 6.719 0 007.5 1zm0 8.947a2.84 2.84 0 01-1.97-.786 2.636 2.636 0 01-.816-1.898c0-.712.294-1.394.816-1.898A2.84 2.84 0 017.5 4.58a2.84 2.84 0 011.97.786c.522.504.816 1.186.816 1.898s-.294 1.395-.816 1.898a2.84 2.84 0 01-1.97.786z" stroke="#000" stroke-width="1.5"/></svg>