<svg width="130" height="64" fill="none" xmlns="http://www.w3.org/2000/svg"><path d="M43.004 43.656L13.522.773h5.381l23.638 34.376V.773h4.398v42.883h-3.935zm26.542-19.639c-6.542 0-12.766-4.245-12.766-10.875C56.78 6.572 62.946 0 71.92 0c7.266 0 12.882 4.856 15.835 11.223h-4.892c-2.142-4.1-5.79-6.92-10.943-6.92-5.5 0-10.769 3.81-10.769 8.723 0 4.652 3.735 6.687 7.816 6.687h5.877c7.093 0 13.432 4.245 13.432 11.34 0 6.571-6.484 13.375-15.95 13.375-7.44 0-13.375-4.856-16.501-11.223h4.95c2.374 3.925 6.224 6.92 11.55 6.92 6.05 0 11.551-4.042 11.551-8.84 0-4.971-4.024-7.297-8.424-7.297h-5.906v.029zm56.557 19.639L102.516 9.28v34.376h-4.388V.773h3.897l23.587 34.376V.773H130v42.883h-3.897z" fill="#000"/><path d="M13.45 23.952H0l13.623 19.703h13.42L13.45 23.952z" fill="#A3A3A3"/><path d="M33.3 56.167h-1.17c-.381-.636-.967-1.07-1.7-1.07-1.26 0-2.138 1.387-2.138 2.66 0 1.242.85 2.658 2.139 2.658.966 0 1.64-.896 1.845-1.82H30.4v-1.012h3.018v.318c0 1.85-1.377 3.525-2.988 3.525-1.846 0-3.194-1.82-3.194-3.67 0-1.82 1.348-3.67 3.194-3.67 1.318 0 2.343.925 2.87 2.08zm1.663 5.066v-5.68h1.007v.465a1.99 1.99 0 011.438-.58.79.79 0 01.26.029v.985c-.087-.029-.173-.029-.26-.029-.777 0-1.438.724-1.438 1.478v3.332h-1.007zm8.692-2.801c0 1.526-1.117 2.994-2.607 2.994-1.49 0-2.608-1.468-2.608-2.994 0-1.526 1.117-2.994 2.608-2.994 1.49 0 2.607 1.468 2.607 2.994zm-1.003 0c0-.969-.659-2.025-1.604-2.025-.946 0-1.605 1.056-1.605 2.025 0 .969.659 2.025 1.605 2.025.945 0 1.604-1.056 1.604-2.025zm7.378-2.8v5.679h-1.006v-.464a1.97 1.97 0 01-1.409.58c-1.293 0-2.414-1.16-2.414-2.463v-3.332h1.006v3.332c0 .753.66 1.478 1.408 1.478.748 0 1.409-.725 1.409-1.478v-3.332h1.006zm7.147 2.809c0 1.516-1.118 2.974-2.608 2.974-.63 0-1.175-.262-1.605-.758v2.508h-1.003v-7.61h1.003v.641a1.98 1.98 0 011.605-.758c1.462.03 2.608 1.487 2.608 3.003zm-1.003 0c0-.962-.66-2.012-1.605-2.012-.946 0-1.605 1.05-1.605 2.012s.66 2.012 1.605 2.012c.946 0 1.605-1.05 1.605-2.012z" fill="#000"/></svg>