<svg width="537" height="395" fill="none" xmlns="http://www.w3.org/2000/svg"><path d="M.316 236.097l-1.673-1.096-.327.499v.597h2zM150.743 6.464v-2h-1.081l-.592.904 1.673 1.096zm49.423 0h2v-2h-2v2zm0 224.885h-2v2h2v-2zm34.531 0h2v-2h-2v2zm0 52.66v2h2v-2h-2zm-34.531 0v-2h-2v2h2zm0 48.991v2h2v-2h-2zm-58.703 0h-2v2h2v-2zm0-48.991h2v-2h-2v2zm-141.147 0h-2v2h2v-2zm141.147-52.66v2h2v-2h-2zm0-126.039h2v-6.786l-3.68 5.701 1.68 1.085zM60.099 231.349l-1.68-1.085-1.992 3.085h3.672v-2zM.316 236.097c1.673 1.096 1.674 1.095 1.674 1.095 0-.001 0-.002.002-.003l.007-.01.011-.018c.06-.092-.046.07.016-.024l.11-.169.083-.126.048-.073.026-.04.027-.041.028-.043.03-.045.061-.094.138-.21.33-.505.193-.294.104-.158a9.884 9.884 0 01.108-.165l.055-.085.057-.086.117-.179.06-.092.062-.094.062-.095.064-.097.13-.2.068-.103.068-.104.07-.106.07-.108.145-.22.074-.113.075-.115.076-.117.078-.118.158-.242.081-.123.082-.125a24.26 24.26 0 01.168-.256l.172-.263.088-.134.089-.136.09-.137.09-.14.187-.283.095-.145.095-.146.097-.148.098-.15.1-.152.1-.153.102-.155.102-.157.104-.158.105-.161c.036-.053.07-.107.106-.162l.108-.164.108-.165.11-.167.11-.169.112-.171.228-.347.468-.715.241-.368a51.992 51.992 0 01.246-.375l.124-.19.126-.192.127-.193.128-.196.129-.197.13-.199.131-.2.133-.203.134-.204.134-.206c.046-.068.09-.138.136-.207l.138-.209.138-.212.14-.212.14-.215a66.554 66.554 0 01.285-.435 91.41 91.41 0 01.289-.441l.146-.223.148-.226.148-.226.15-.229.15-.23.153-.233.153-.233.155-.236a80.084 80.084 0 01.312-.477l.158-.241.158-.242.16-.245.162-.246.162-.248a88.46 88.46 0 01.328-.501l.166-.253.167-.255.168-.256.17-.259.17-.26.172-.262.172-.264.174-.265.175-.267.176-.269.178-.271.178-.272.18-.274.18-.276.183-.278a110.951 110.951 0 01.367-.561l.185-.283.187-.284.187-.287.189-.288.19-.29.191-.292.192-.293.194-.295.194-.297.196-.299a171.142 171.142 0 01.395-.603l.199-.304.2-.305.201-.308.203-.309.204-.311.205-.313.206-.314a191.951 191.951 0 01.415-.634l.21-.32.21-.322.212-.323.213-.325.214-.327.215-.328.216-.33.218-.332.218-.334.22-.335.221-.338.222-.339.223-.341.225-.342.225-.344.227-.346.228-.348.229-.35.23-.351.231-.353.466-.711.235-.358.236-.36c.078-.121.157-.241.237-.362l.238-.364.48-.732.241-.369.243-.37.489-.747.246-.376.247-.377.498-.76.251-.383.252-.385.253-.386.254-.388.256-.39.256-.392.517-.788.26-.397.26-.398.263-.401.263-.402.53-.809 2.167-3.308.276-.421.277-.423.558-.852.28-.428.282-.43.283-.432.284-.434.572-.872.287-.439.29-.441.289-.442.29-.444.586-.894.295-.449.295-.451.297-.453.298-.455.599-.914.3-.46.303-.462 2.46-3.756.314-.477.314-.479.315-.481.316-.483.317-.484.319-.487.32-.488.32-.489.322-.492.323-.493.324-.495.325-.496c.11-.166.218-.332.327-.499l.328-.5.328-.502.33-.504.331-.505.333-.507c.11-.17.222-.339.333-.509l.335-.511.335-.512.337-.515.338-.516.34-.517.34-.52.341-.521.343-.523.343-.525.345-.526.346-.528.347-.53.349-.532.35-.533.35-.536.352-.537.352-.538.355-.541.355-.542.356-.544.358-.546.358-.547a429.286 429.286 0 01.72-1.1l.363-.553.363-.555.365-.556.732-1.118.368-.561c.122-.188.245-.375.369-.563l.37-.565.371-.567.372-.569.374-.57.375-.572.376-.574.377-.575.378-.578.38-.579.38-.58.381-.583.383-.584.384-.586.385-.588.386-.59.387-.591.389-.593.39-.595.39-.596.392-.598.393-.601.394-.601.396-.604.396-.605.398-.607.399-.609.4-.611.4-.612.403-.614.404-.616.404-.617.406-.62.407-.621.408-.623.409-.624.41-.626.411-.629.413-.629.414-.632.415-.633.416-.635.417-.637.418-.639.42-.64.42-.642.422-.644.423-.646.424-.647.425-.649.427-.651.427-.653.429-.654.43-.656.43-.658.433-.659.433-.662.434-.663.436-.665a842.728 842.728 0 01.874-1.335l.44-.67.44-.672.44-.673.443-.676.444-.677.444-.679.446-.68.447-.683.448-.684.45-.686.45-.688.452-.689.453-.691.453-.693.456-.695.456-.696.457-.698.459-.7.46-.702.46-.703.462-.705.463-.707.464-.709a1666.618 1666.618 0 011.4-2.136l.469-.716.47-.718a2754.296 2754.296 0 011.416-2.162l.475-.725.476-.726.477-.728.478-.73.479-.731.48-.733.481-.735.483-.737.484-.738.485-.74.486-.742.487-.744.488-.746.49-.747.49-.749.492-.75.493-.753.494-.754.495-.756.497-.758.497-.76.499-.76.5-.764c.166-.254.333-.51.501-.764l.502-.767.503-.768.504-.77 2.029-3.097.511-.78.511-.78.512-.782.514-.784 4.15-6.335.524-.8.525-.801.526-.804.527-.805.529-.806.53-.809.53-.81.532-.812.533-.814.535-.816.535-.817.537-.819.537-.82.539-.823.54-.825.541-.826.542-.827.544-.83.544-.831.546-.833.547-.835.548-.837.549-.838.55-.84a1026.634 1026.634 0 001.104-1.685l.554-.846.555-.847.556-.849.557-.85.559-.853.559-.854.561-.855.562-.858.563-.86.564-.86.565-.863.566-.865.568-.866.568-.868.57-.87.571-.872.572-.873.574-.875.574-.877.576-.879.576-.88.578-.882.579-.884.58-.886.581-.887c.194-.296.389-.592.583-.89l.584-.89.584-.893.586-.894.587-.896-3.346-2.192-.587.896-.586.894-.584.893-.584.89c-.194.298-.389.594-.583.89l-.581.887-.58.886-.579.884-.578.882-.576.88-.576.879-.574.877-.574.875-.572.873-.571.872-.57.87-.568.868-.568.866-.566.865-.565.863-.564.86-.563.86-.562.858-.561.855-.559.855-.559.852-.557.85-.556.85-.555.846-.554.846a1031.247 1031.247 0 01-1.104 1.685l-.55.84-.549.838-.548.837-.547.835-.546.833-.544.831-.544.83-.542.828-4.297 6.559-.532.812-.53.81-.53.809-.529.806-.527.806-.526.803-.525.801-.524.8-.523.798-.522.796-.52.795-.519.793-.518.79-.518.79-.515.787-.515.786-.514.784-.512.782-.511.78-.511.78-.509.777a1045.291 1045.291 0 01-1.014 1.548l-.506.772-.504.77-.503.768-.502.767-.501.765-.5.763-.499.76-.497.76-.497.758-.495.756-.494.754-.493.753-.492.75-.49.75-.49.746-.488.746-.487.744-.486.742-.485.74-.484.738-.482.737a44339.532 44339.532 0 00-1.441 2.2c-.16.243-.32.486-.478.73a1894.308 1894.308 0 01-.953 1.454l-.474.724-.474.722a42329.345 42329.345 0 00-.943 1.44l-.47.718-.47.716a4007.337 4007.337 0 00-1.399 2.136l-.464.709-.463.707-.462.705a1777.725 1777.725 0 01-.92 1.405l-.459.7-.457.698-.456.697-.456.694-.453.693-.453.691-.452.69-.45.687-.45.686-.448.684-.447.683-.445.68-.445.679-.444.677-.442.676-.442.673c-.146.225-.293.448-.44.672l-.439.67a848.823 848.823 0 00-.874 1.335l-.436.665-.434.663c-.145.221-.29.441-.433.662l-.432.659-.431.658-.43.656-.429.655-.427.652-.427.651-.425.649-.424.647-.423.646-.422.644-.42.642-.42.64-.418.639-.417.637-.416.635-.415.633-.414.632-.412.63-.412.628-.41.626-.41.625-.407.622-.407.621-.406.62-.404.617-.404.616-.402.614-.401.613-.4.61-.399.609-.398.607-.396.605-.395.604-.395.602-.393.6-.392.598-.39.596-.39.595-.389.593-.387.592-.386.589-.385.588-.384.586-.383.584-.381.583-.38.581c-.128.193-.254.386-.38.579-.127.192-.252.385-.378.577l-.377.575-.376.574-.375.572-.373.57-.373.569-.371.567-.37.565-.37.563-.367.561-.367.56-.365.558-.728 1.111-.362.553-.361.551-.36.549-.358.547-1.423 2.173-.353.539-.352.537-.7 1.068-.349.532-.347.53-.346.528-.345.527-1.368 2.088-.339.518-.338.516-.337.514-.335.512-.335.511-.333.509-.332.507-.332.505-1.313 2.005-.325.496-.324.495-.323.494-.322.491-.32.49-.32.488-.319.486-.317.484-1.258 1.92-.312.476-.31.474-.31.472-.308.47-.307.469-.306.467-.304.465-.304.463-2.387 3.645-.293.447-.292.446-.291.444-.29.443-.289.44-.287.439-.286.437c-.096.146-.19.291-.286.435a6366.302 6366.302 0 01-2.515 3.84l-.273.418-.273.416-.271.414-.27.413-.27.411-.268.409-.267.407-.265.406-.265.403-.525.803-.262.398-.26.397-.258.395-.258.394-.256.391-.256.39-.254.388-.253.386-.252.385-.25.383a705.896 705.896 0 01-.992 1.513l-.245.374-.244.373-.243.37-.242.369-.24.367-.24.365-3.672 5.607-.22.335-.218.334-.218.332-.216.33-.215.329-.214.326-.213.325a198.815 198.815 0 00-.423.645l-.209.32-.208.318c-.07.105-.139.211-.207.316l-.206.314-.205.313-.204.311a53.81 53.81 0 01-.203.309l-.201.308-.2.306-.2.304-.197.302-.197.3-.196.299-.194.297-.194.295a122.892 122.892 0 00-.383.585l-.19.29-.189.288-.187.287a92.425 92.425 0 00-.372.567 112.927 112.927 0 00-.368.561l-.181.278-.181.276-.18.274-.178.272-.178.271-.176.269-.175.267-.174.266-.172.263-.172.262-.17.26-.17.259-.168.256-.167.255-.166.253-.164.252-.164.249-.162.248-.161.247-.16.244a86.11 86.11 0 00-.317.483 83.836 83.836 0 00-.312.477l-.155.236-.153.234-.152.232-.151.23-.15.229c-.05.076-.1.151-.148.227l-.148.225-.146.223-.145.222c-.049.073-.097.147-.144.22l-.143.218a70.03 70.03 0 00-.142.216l-.14.215-.14.213-.138.211-.138.209-.136.208-.134.205-.134.205-.133.202a60.435 60.435 0 00-.261.399l-.13.197-.127.196-.127.193-.126.192-.124.19a53.363 53.363 0 00-.246.375l-.121.185-.12.183-.119.181-.117.18-.117.178-.115.176-.114.174-.114.173a43.78 43.78 0 00-.111.171c-.038.056-.074.113-.111.169l-.11.167-.108.166-.108.163c-.035.055-.07.109-.106.162l-.105.161-.104.158-.102.157-.102.155-.1.153-.1.152-.098.15-.097.148-.19.291-.094.142a12.17 12.17 0 01-.092.141l-.091.14-.09.137-.09.136-.087.134-.087.132-.085.131a24.9 24.9 0 00-.085.129l-.083.127-.082.125-.08.123-.08.122-.08.12-.077.118-.076.117-.075.115-.074.113-.073.111-.072.109a7.172 7.172 0 01-.07.108l-.07.106-.068.104-.067.103-.066.101-.065.099-.064.097-.062.095-.062.094-.06.092-.06.09-.057.089a11.225 11.225 0 00-.112.171l-.055.084a9.82 9.82 0 00-.053.081l-.053.08a9.066 9.066 0 00-.05.078l-.05.076a8.31 8.31 0 00-.097.147l-.046.071c-.016.024-.03.047-.046.069l-.044.068a6.467 6.467 0 00-.085.129l-.156.239-.036.055-.035.053-.034.052-.033.05-.12.182-.183.28-.064.099-.046.07-.016.024c-.024.037.011-.017-.011.018a.055.055 0 00-.004.006l-.003.004a.012.012 0 00-.002.003l1.672 1.097zM150.743 6.464v2h49.423v-4h-49.423v2zm49.423 0h-2V231.35h4V6.465l-2-.001zm0 224.885v2h34.531v-4h-34.531v2zm34.531 0h-2v52.66h4v-52.66h-2zm0 52.66v-2h-34.531v4h34.531v-2zm-34.531 0h-2V333h4v-48.991h-2zm0 48.991v-2h-58.703v4h58.703v-2zm-58.703 0h2v-48.991h-4V333h2zm0-48.991l-.001-2H.317v4h141.144l.001-2zm-141.147 0h2v-47.912h-4v47.912h2zm141.147-52.66l2-.001V105.31h-4v126.038l2 .001zm0-126.039l-1.681-1.085-.001.002-.003.006-.015.023-.011.017-.014.021-.008.012-.008.013-.019.029-.099.154a.46.46 0 00-.015.023l-.016.025-.034.052-.017.027-.019.029-.019.029-.019.03-.085.131-.094.146-.025.039-.026.04-.026.041-.027.042-.028.042-.028.044-.029.045-.03.046-.124.192-.032.05-.033.052-.034.052-.035.054-.035.054-.036.055-.036.057-.037.057-.076.117a1.99 1.99 0 01-.038.06l-.04.061-.08.125-.042.064-.042.065-.085.133-.044.068-.044.068-.091.141-.093.144-.096.148-.098.152-.05.077-.05.079-.103.159-.106.164a5.993 5.993 0 00-.054.083l-.054.084-.055.085-.055.086-.057.087-.056.088-.058.089-.058.09-.059.091-.059.092-.06.093a129256548022.258 129256548022.258 0 01-.309.478l-.127.198-.065.101-.066.101-.066.103-.067.103a6.069 6.069 0 01-.067.104l-.068.106-.069.106-.069.107a6.58 6.58 0 01-.07.108l-.07.109-.071.11-.072.112-.293.453-.075.116-.075.117-.076.118-.077.119-.077.119-.078.121-.079.122-.079.122-.079.124-.081.124-.081.126-.081.126-.083.128-.083.128a9.327 9.327 0 01-.083.129l-.084.131-.085.131-.085.132a9.958 9.958 0 00-.086.133l-.087.135a7.936 7.936 0 00-.087.135l-.088.136-.088.137-.089.138-.09.139-.09.14a6.718 6.718 0 00-.091.14l-.092.142-.092.143-.093.144-.093.145-.094.145-.095.147-.095.148-.096.148-.097.15-.097.15-.098.152-.098.152-.099.153-.1.155-.1.155-.101.156-.101.157-.102.159-.103.159-.104.16-.104.161a14.68 14.68 0 01-.104.162l-.105.163a9.193 9.193 0 00-.106.164l-.107.165-.107.166-.107.167-.109.167-.109.169-.109.17-.11.171-.111.171-.112.173-.112.173-.112.175-.114.175-.114.177-.114.177-.115.179-.116.179-.116.18-.117.182-.118.182-.118.183-.119.184-.12.185-.12.186-.121.187-.121.188-.122.189-.123.19-.123.191-.124.192-.124.193-.125.193-.126.195-.126.196-.127.197-.128.197-.128.199-.129.199-.129.201-.13.201-.131.203-.131.203-.132.204-.133.206-.133.206-.134.207a24.275 24.275 0 01-.269.417 70.307 70.307 0 01-.272.422l-.274.425a39.88 39.88 0 00-.138.214l-.139.215-.139.215-.14.217-.282.437-.142.22-.143.22-.286.444-.581.901-.295.455-.148.23-.148.23-.15.231c-.049.078-.099.155-.15.232l-.15.234-.151.234-.611.946-.154.239-.155.24-.312.483-.157.242-.157.244-.158.245-.158.246-.32.494-.16.248-.161.25-.162.25-.162.252-.327.506-.164.254-.165.255-.165.257-.166.257-.671 1.038-1.37 2.124-.7 1.084-.177.274-.177.274-.357.552-.179.278-.179.278-.181.28-.181.28-.73 1.131-.184.285-.184.286-.186.287-.186.288a72.75 72.75 0 00-.186.289l-.187.29-.188.291-.188.292-.76 1.177a76.248 76.248 0 00-.384.594l-.193.298-.193.3-.194.3-.195.302-.195.302-.196.304-.789 1.223-.199.308-.2.309a53.989 53.989 0 01-.401.621l-.201.312-.202.313-.203.314-.203.315a1175.069 1175.069 0 01-1.441 2.232l-.208.322-.209.324-.209.324-.421.652a4243.994 4243.994 0 00-1.278 1.979l-.215.334-.216.334-.216.335-.217.336-.436.675-.879 1.362-.443.686-.222.345-.224.346-.223.346-.225.348-.45.698-.91 1.408-.457.709-.23.357-.231.357-.231.358-.232.359-.466.722-.938 1.453-.473.733-.238.368-.238.369-.239.37-.239.37-.48.745-.969 1.5-.488.755-.244.38-.246.38-.246.381-.247.383-.495.767-.998 1.546-.503.779-.252.391-.254.392-.253.393-.254.393-.51.791-1.028 1.592-.518.802-.26.403-.26.403-.261.404-.262.406-.525.813-1.058 1.639-.533.825-.267.414-.268.415-.268.416-.27.417c-.147.228-.39.606-.54.836l-1.087 1.685a822.868 822.868 0 00-1.097 1.7l-.276.427-.277.429-.555.86-1.117 1.73-.563.872-.282.437-.283.438-.283.439-.284.44-.285.44-.285.442-.286.443-.286.444-.287.445-.288.445-.288.447-.29.448-.289.448-.29.45-.29.45-.292.452-.292.452-.293.454-.293.454-.294.455-.295.457-.295.457-.296.458-.296.459c-.1.153-.198.307-.297.46l-.298.461a599.803 599.803 0 01-.597.925l-.3.464-.3.465-.3.466-.302.467-.302.468-.302.469-.304.469-.304.471-.304.472-.305.472-.306.474-.306.475-.307.475a425.912 425.912 0 01-.616.954l-.309.478-.31.48-.31.48-.31.481-.311.483-.312.483-.313.484-.313.485-.314.486-.314.487-.315.488-.316.489-.316.49-.317.491-.318.492 3.36 2.169.319-.492.316-.49.317-.49.315-.489.315-.488.315-.487a662.824 662.824 0 00.627-.972l.312-.484.312-.483.311-.482.311-.481.31-.481.31-.479.308-.479.309-.477.307-.476.307-.476.307-.475.305-.473.306-.473a416.072 416.072 0 00.608-.942l.303-.47.303-.469.302-.467.301-.467.3-.466.3-.465.3-.464.3-.463.298-.462.297-.461.297-.46.297-.46.296-.458.295-.457a389.752 389.752 0 00.588-.912l.294-.454.292-.453.292-.453.292-.451.29-.451.29-.449.29-.449.29-.448.288-.446.287-.446.287-.445.287-.443.286-.443a246.532 246.532 0 01.57-.883l.284-.44.283-.439.283-.438.282-.437.281-.436.281-.435.28-.434.28-.434.28-.432.278-.431.277-.43.278-.43.276-.428.276-.428a340.347 340.347 0 00.55-.852l.274-.424.274-.424.272-.422.273-.422.271-.421.271-.419.27-.419.27-.418.27-.417.268-.416.535-.829a101.397 101.397 0 00.532-.825c.09-.137.178-.274.266-.411l.265-.41.527-.817.263-.407.263-.407.261-.405.261-.404.52-.806.26-.402.258-.4.258-.4.257-.398.513-.795.255-.395.255-.395.254-.394.254-.393.505-.782.252-.39.251-.389.25-.388.25-.387.498-.772.248-.384.248-.383.247-.382.246-.381.49-.76.244-.378.244-.378.243-.376.242-.376.483-.748.24-.373.24-.371.24-.371.239-.37.948-1.469.236-.365.235-.364.468-.725.233-.361.233-.36.231-.359.232-.359.918-1.423.228-.353.228-.353.453-.702.899-1.392.889-1.377.221-.342.22-.341.438-.679.869-1.346.859-1.331.213-.33.213-.329.423-.656.84-1.3.829-1.285.206-.319.205-.318.408-.632.81-1.254.799-1.239.199-.307.197-.306.394-.61.78-1.208.769-1.192.191-.296.19-.294.379-.587.75-1.162.74-1.146.366-.567.182-.282.182-.282.72-1.115.71-1.1.352-.545.174-.27.174-.27.691-1.069.68-1.054a525.977 525.977 0 01.504-.78l.166-.259.661-1.023.164-.253a55.79 55.79 0 01.325-.504l.161-.251.322-.498.16-.247.159-.247.317-.49.314-.487.156-.242.155-.241.155-.24.155-.239.306-.475.153-.236.151-.235.152-.234.15-.233.15-.232.149-.232.149-.23.148-.229.147-.229.147-.227.146-.226.146-.226.145-.225.144-.223.144-.223.143-.221.143-.221.141-.22.142-.219.14-.217.14-.217.14-.216.138-.215.138-.214.138-.213.137-.212.136-.211.136-.21.135-.209.134-.208.134-.208.133-.206.133-.205.131-.205.132-.203.13-.202.13-.202.13-.2.129-.2.128-.198.127-.198.127-.197.127-.195.125-.195.126-.194.124-.193.124-.192.123-.19.123-.19.122-.189.121-.188.121-.187.12-.186.119-.185.119-.185.118-.183a18.69 18.69 0 00.235-.363l.117-.181.115-.179a50.353 50.353 0 00.23-.356l.114-.176.113-.176.113-.174.112-.174.111-.172.111-.172.11-.171.11-.169.109-.169.108-.168.108-.167.107-.166.106-.165.106-.164.105-.163.105-.162.104-.161.103-.16.103-.159.102-.158.102-.157.101-.157.1-.155.099-.154c.034-.051.067-.103.099-.154l.099-.152.098-.151a7.77 7.77 0 01.097-.151l.096-.149.096-.149.096-.148.094-.146.094-.146.094-.145a32.132 32.132 0 00.185-.286l.091-.142.091-.141.09-.14.09-.139.089-.138.089-.137.088-.136.087-.135.086-.134.086-.133.086-.133.084-.131.085-.13.083-.129.083-.129.082-.127.163-.252.08-.125.08-.123.079-.123.079-.122.155-.24.076-.119.076-.117.076-.117.075-.116.147-.229.073-.113.073-.112a6.87 6.87 0 00.071-.111l.071-.11.141-.218.069-.107.069-.106.135-.21.067-.103a206165005896.348 206165005896.348 0 01.131-.204l.065-.1.064-.1.064-.098.063-.098.062-.097.062-.095.061-.095.121-.187.059-.091.059-.091.058-.09.057-.089.113-.175.056-.086.055-.085.054-.085.054-.083.053-.082.052-.081.052-.08.051-.08.051-.078.05-.078.049-.076.049-.076.048-.074.047-.074.047-.072.047-.072.045-.071.045-.069.088-.137.043-.067.043-.065.083-.129.041-.063.04-.062.039-.061.039-.061.038-.059.038-.058.144-.223.034-.053a1.57 1.57 0 00.034-.053l.033-.051.033-.051.032-.049.031-.049.061-.094.03-.046.028-.044.029-.044.027-.043.054-.083.025-.039.026-.039a1.26 1.26 0 01.024-.038l.024-.037.046-.072.022-.034.021-.033a.89.89 0 01.021-.032l.02-.031.02-.031.019-.029.036-.056.017-.026a.365.365 0 00.016-.026l.031-.048.015-.022.014-.022a.24.24 0 00.013-.021l.013-.019.024-.037.021-.033.009-.015.009-.013.016-.025.025-.039.009-.013.003-.006.003-.004.002-.003.002-.003.001-.001-1.68-1.085zM60.099 231.349v2h81.365v-4H60.099v2zM245.195 333h-2v2h2v-2zm0-56.545v-2h-2v2h2zm58.703 0h2v-2h-2v2zm-29.136 112.227l.907 1.782.017-.009.017-.009-.941-1.764zm-29.567 6.258h-2v2h2v-2zm0-29.567l-.369-1.966-1.631.306v1.66h2zm19.855-8.417l-1.361-1.466-.013.013-.014.013 1.388 1.44zM270.662 333l1.979-.283-.245-1.717h-1.734v2zm-25.467 0h2v-56.545h-4V333h2zm0-56.545v2h58.703v-4h-58.703v2zm58.703 0h-2v59.566h4v-59.566h-2zm-2 59.566c0 12.114-2.376 22.339-7.034 30.758-4.651 8.406-11.637 15.122-21.043 20.138l1.882 3.529c10.019-5.343 17.6-12.583 22.661-21.731 5.054-9.134 7.534-20.059 7.534-32.694h-4zm-28.043 50.878c-7.858 3.998-17.388 6.041-28.66 6.041v4c11.748 0 21.93-2.129 30.474-6.476l-1.814-3.565zm-28.66 8.041h2v-29.567h-4v29.567h2zm.368-27.601c9.361-1.755 16.434-4.66 20.876-8.943l-2.777-2.88c-3.616 3.487-9.78 6.193-18.836 7.891l.737 3.932zm20.848-8.917c4.536-4.212 6.682-10.126 6.682-17.437h-4c0 6.503-1.882 11.235-5.404 14.505l2.722 2.932zm6.682-17.437c0-3.353-.145-6.12-.452-8.268l-3.959.566c.268 1.881.411 4.437.411 7.702h4zM270.662 331h-25.467v4h25.467v-4zm53.229 2h-2v2h2v-2zm0-51.797l-1.374-1.453-.626.592v.861h2zm116.328-110.068l-1.367-1.461-.008.008 1.375 1.453zm28.704-34.1l-1.732-1-.006.009-.005.009 1.743.982zm-4.748-67.767l-1.478 1.347.005.006.006.006 1.467-1.36zm-70.574 3.021l1.568 1.242-1.568-1.242zm-14.028 46.833v2h2v-2h-2zm-57.84 0h-2v2h2v-2zm4.317-41.006l1.935.503.002-.006-1.937-.497zm14.244-31.941l-1.664-1.11-.008.011 1.672 1.099zM522.662 160.56l-1.733-.999-.006.011 1.739.988zm-49.423 56.544l1.346 1.48-1.346-1.48zm-66.688 60.646l-1.346-1.48-3.826 3.48h5.172v-2zm128.629 0h2v-2h-2v2zm0 55.25v2h2v-2h-2zm-211.289 0h2v-51.797h-4V333h2zm0-51.797c1.375 1.453 1.375 1.453 1.376 1.452l.001-.001.002-.002.003-.003.009-.008.012-.012.036-.034.023-.021.013-.013.014-.013.014-.013.016-.015.034-.032.078-.074.021-.021.023-.021.024-.022.024-.023.025-.024.026-.025.028-.026.027-.026.029-.027.03-.028.062-.059.033-.031.033-.031.034-.033.035-.033.073-.069.038-.035.038-.037.04-.037.04-.039.083-.079.37-.349.05-.047.051-.049.052-.049a42.972 42.972 0 00.106-.1l.055-.052a2.7 2.7 0 00.055-.053l.057-.053.057-.054.058-.055.059-.056.06-.057.061-.057a3.34 3.34 0 00.061-.059l.063-.059.063-.06.13-.122.066-.063.067-.063.068-.065.069-.065.07-.066.07-.066.072-.068.072-.068.147-.14.075-.071.076-.072.077-.072.077-.074.079-.074.079-.075.081-.076.081-.077.082-.078.083-.078.084-.08.085-.08.348-.329.089-.084.09-.086.091-.086.092-.087.092-.087.094-.089.095-.089.095-.091.391-.369.099-.095.101-.095.204-.193.104-.098.104-.098.105-.1.106-.1.433-.41.111-.105.111-.105.112-.106.114-.107.114-.108.115-.109.115-.11.117-.11.476-.45.121-.115.122-.115.123-.117.124-.117.124-.118.126-.119a13.772 13.772 0 00.254-.24l.128-.121.129-.122.13-.123.131-.124.132-.125.133-.125.133-.127.135-.127.135-.128.136-.129.137-.13.138-.13.139-.132.14-.132.141-.133.141-.134.143-.135.143-.135.144-.137.145-.137.146-.138.147-.139.148-.14.149-.141.149-.141.151-.143.303-.287.153-.145.154-.145.155-.147.156-.147.156-.148.158-.15.158-.149.16-.151.16-.152.161-.152.325-.307.164-.155.164-.156.166-.157.166-.157.336-.318.169-.16.17-.16a26.645 26.645 0 01.342-.325l.173-.163.173-.164.175-.165.175-.166.176-.167.177-.167.178-.169a27.782 27.782 0 00.359-.339l.18-.171.182-.171.182-.173.183-.173.185-.175.185-.175.186-.176.186-.176.188-.178.189-.179.189-.179.191-.18.191-.181.192-.182.193-.182.194-.184.195-.184.195-.185.197-.186.197-.187.199-.188.199-.188.2-.19.201-.19.202-.191.203-.192.204-.193.204-.193.206-.195.206-.195.207-.196.208-.197.209-.198.21-.198.211-.2.212-.2.212-.201.214-.202.214-.203.215-.203.216-.205.217-.205.218-.206a732768130783.539 732768130783.539 0 01.439-.415l.22-.209.222-.209.222-.211.223-.211.224-.212.225-.213.226-.214.227-.214.228-.216.228-.216.229-.217.231-.218.231-.219.232-.219.233-.221.234-.221.235-.222.235-.223.237-.224.237-.224.238-.226.24-.226.24-.227.241-.228.242-.229.242-.23.244-.23.244-.232.246-.232.246-.233.247-.234.248-.235a53.73 53.73 0 00.499-.471l.251-.238.251-.238a55.544 55.544 0 00.506-.478l.255-.241.255-.241.256-.243.257-.243.258-.244.258-.245.26-.245.26-.247.262-.247.262-.248.263-.249.264-.25.265-.251.266-.251.267-.252.267-.254.269-.254.269-.255.27-.255.271-.257.272-.257.273-.258.274-.259.275-.26.275-.261.277-.262.277-.262.278-.263.279-.264.28-.265.281-.266.282-.267.283-.267.283-.269.285-.269.285-.27.286-.271.287-.271.577-.546.29-.274.291-.275.291-.276.293-.277.587-.556.295-.279.296-.28.297-.281.298-.282.598-.566.301-.284.301-.285 1.214-1.149.306-.289.306-.29.308-.291.308-.292.31-.293.31-.293.311-.294.312-.296 1.257-1.189.316-.299.317-.3.318-.301.319-.302.32-.303.321-.304.322-.304.323-.305.323-.306.324-.307.326-.308.326-.309.327-.309.328-.31.329-.311.329-.312.331-.313.331-.314.333-.314.333-.316.334-.316.335-.317.336-.318.337-.318.338-.32.338-.32.34-.322.34-.322.341-.322.342-.324.344-.325.343-.325.345-.326.346-.327.346-.328.348-.329.348-.33.349-.33.351-.331.351-.333.352-.333.352-.333.354-.335.355-.336.355-.336.356-.337.358-.338.358-.339.359-.34.36-.34.36-.341a114.2 114.2 0 00.724-.686l.364-.344.729-.69.367-.346.367-.347.367-.349.369-.348.74-.701.372-.351.372-.352.373-.354a489.956 489.956 0 001.125-1.064l1.513-1.431.761-.72.382-.362.383-.362.384-.364.385-.364.385-.364.387-.366.387-.367.388-.367.39-.368.39-.369.391-.37.391-.371.393-.372.394-.372.394-.373.396-.374.396-.375.397-.376.398-.377.399-.377.4-.379.401-.379.401-.38.403-.381.403-.381.404-.383.405-.383.406-.384.407-.385.408-.386.409-.387.409-.387.411-.389.411-.389.413-.39.413-.391.414-.392.415-.392.415-.394.417-.394.418-.395.418-.396.419-.397.421-.398.421-.398a163.644 163.644 0 01.845-.799l.423-.401.425-.402.426-.403.426-.403.428-.405.428-.405.429-.406.43-.407.431-.408.431-.408.433-.409.434-.411a173.199 173.199 0 01.869-.823l.437-.412.437-.414.438-.414.439-.416.439-.416.441-.417.442-.417.442-.419.443-.419.444-.421.446-.421.446-.422.446-.423.448-.423.449-.425.449-.425.451-.426.451-.427.452-.428.453-.429.454-.429-2.749-2.906-27.264 25.797a8907.582 8907.582 0 01-3.153 2.983l-.39.369-.389.368-.388.368-.387.366-.387.366-.386.365-.384.364-.384.363-.383.363-.382.361-.381.361-.381.36-.379.359-.379.358-.377.357-.377.356-2.982 2.822-.369.349-.368.348-.733.694-.365.345-.364.345-.364.344-.362.343-.723.683-.36.341-.359.34-.358.339-.357.337-.712.674-.354.335a109.014 109.014 0 01-.707.669l-.352.333-.701.663-.349.331-.348.329-.348.329-.346.328-.691.653-.344.326-.343.324-.342.324-.341.323-.68.643-.339.321-.337.319-.337.319-.336.318-.669.633-.333.315-.333.315-.331.313-.331.313-.658.623-.655.62-.326.308-.326.308-.648.613-.322.306-.322.304-.321.304-.32.302-.637.603-.317.3-.317.3-.315.298-.315.298-.626.593-.312.295-.311.294-.311.294-.309.293-.616.582-.306.29-.306.29-.305.288-.304.288-.605.573-.302.285-.3.284-.3.283-.298.283a345.033 345.033 0 00-.891.843l-.295.279-.294.278-.293.278-.584.552-2.301 2.177-.283.268-.283.268-.282.266-.281.266-.28.265-.279.264-.278.263-.277.263-.277.261-.275.261-.275.26-.274.259-.273.258-.272.258-.271.256-.27.256-.27.255-.268.254-.268.253-.266.252-.266.252-.265.251-.264.249-.263.249-.263.249-.261.247a62.137 62.137 0 00-.52.492l-.259.245-.257.244-.257.243-.256.242a965.83 965.83 0 01-.51.482l-.253.24-.253.239-.251.238-.251.237-.25.236-.249.236-.248.235-.247.234-.246.233-.246.232-.244.231-.244.231-.243.229-.241.229-.241.228-.241.227-.239.227-.238.225-.237.225-.237.224-.236.222a48.11 48.11 0 01-.468.444l-.233.22-.232.22-.231.219-.231.218-.229.217-.229.216-.227.215-.227.215-.226.214-.225.212-.224.212-.223.212-.223.21-.221.21-.221.208a41.938 41.938 0 01-.438.415l-.218.206-.217.206-.216.204-.215.204-.215.202-.213.202-.212.202a20.03 20.03 0 00-.212.2l-.211.199-.21.199-.209.198a37.68 37.68 0 00-.415.393l-.207.195-.205.194-.205.194-.203.193-.203.191-.202.192a35.09 35.09 0 00-.201.19l-.2.189-.199.189-.199.187-.197.187-.197.186-.195.185-.195.185a34.551 34.551 0 00-.387.366l-.192.182-.192.181-.19.18-.189.179-.189.178-.188.178-.187.177-.186.176-.185.175-.184.174a29.09 29.09 0 01-.183.173l-.182.173-.182.172-.181.171-.179.17-.179.169-.178.168-.177.168-.176.166a26.82 26.82 0 01-.176.166l-.174.165-.173.165-.173.163-.172.162-.171.162-.17.161-.169.16-.168.159-.167.158-.167.158-.165.156-.165.156-.163.155-.325.307-.322.304-.317.301-.158.149-.156.148-.156.148-.155.146-.154.146-.153.145-.152.144-.152.143-.15.142a19.583 19.583 0 01-.298.282l-.148.14-.147.139-.146.138-.145.138-.144.136-.144.136-.142.134-4.09 3.87-.113.107-.112.106-.111.106-.111.104-.11.104-.108.103-.108.102a176.967 176.967 0 01-.213.201l-.105.1-.208.196a9.114 9.114 0 01-.102.097l-.102.097-.101.095-.1.094-.197.187-.097.092-.096.091-.096.09-.094.09-.186.176-.092.087-.091.086-.09.085-.09.085-.088.083-.087.083-.087.082a6.661 6.661 0 00-.085.081l-.085.08-.084.079-.083.079-.082.078-.32.302-.596.564-.277.262-.067.064-.066.062-.065.062-.065.061-.126.119-.122.116-.06.057-.059.055-.115.11a2.757 2.757 0 00-.112.105l-.055.052-.054.051-.052.05-.052.049-.101.096a19.25 19.25 0 00-.192.181l-.091.086-.044.041a1.626 1.626 0 01-.043.041l-.042.04-.041.039-.08.076-.149.141-.256.241-.341.323-.085.081-.021.02-.005.005-.002.001 1.374 1.453zm117.694-108.608c13.456-12.588 23.185-24.114 29.08-34.578l-3.485-1.964c-5.615 9.967-15.022 21.174-28.328 33.621l2.733 2.921zm29.07-34.56c6.055-10.486 9.116-21.259 9.116-32.294h-4c0 10.259-2.837 20.349-8.58 30.294l3.464 2zm9.116-32.294c0-14.987-4.69-27.644-14.129-37.833l-2.934 2.719c8.689 9.38 13.063 21.037 13.063 35.114h4zm-14.118-37.82c-9.309-10.21-21.073-15.33-35.146-15.33v4c12.976 0 23.657 4.666 32.19 14.024l2.956-2.695zm-35.146-15.33c-15.853 0-28.736 6.172-38.473 18.456l3.135 2.484c8.967-11.312 20.688-16.94 35.338-16.94v-4zm-38.473 18.456c-9.705 12.243-14.461 28.332-14.461 48.075h4c0-19.105 4.596-34.237 13.596-45.59l-3.135-2.485zm-12.461 46.075h-57.84v4h57.84v-4zm-55.84 2c0-16.154 1.431-29.641 4.252-40.503l-3.871-1.006c-2.934 11.296-4.381 25.146-4.381 41.509h4zm4.254-40.509c2.821-11 7.476-21.445 13.978-31.34l-3.343-2.197c-6.734 10.25-11.575 21.098-14.51 32.544l3.875.993zm13.971-31.329c9.298-13.947 21.695-24.871 37.228-32.779l-1.815-3.565c-16.121 8.207-29.048 19.585-38.741 34.125l3.328 2.22zm37.228-32.779c15.533-7.908 32.413-11.868 50.673-11.868v-4c-18.861 0-36.368 4.096-52.488 12.303l1.815 3.565zm50.673-11.868c30.014 0 54.89 9.89 74.776 29.634l2.818-2.839C486.764 8.89 460.851-1.363 429.859-1.363v4zm74.776 29.634c19.883 19.742 29.839 44.471 29.839 74.333h4c0-30.855-10.331-56.628-31.021-77.172l-2.818 2.839zm29.839 74.333c0 19.68-4.526 37.315-13.545 52.957l3.466 1.998c9.398-16.3 14.079-34.635 14.079-54.955h-4zm-13.551 52.968c-8.91 15.698-25.202 34.379-49.03 56.053l2.692 2.959c23.941-21.778 40.597-40.794 49.816-57.037l-3.478-1.975zm-49.029 56.053l-66.689 60.645 2.691 2.96 66.689-60.646-2.691-2.959zm-65.343 64.125H535.18v-4H406.551v4zm126.629-2V333h4v-55.25h-4zm2 53.25H323.891v4H535.18v-4z" fill="#E0E0E0"/></svg>