<svg width="16" height="17" fill="none" xmlns="http://www.w3.org/2000/svg"><g opacity=".3" clip-path="url(#clip0_684_513)" fill="#000"><path d="M11.613 9.005l-1.602-1.767a.909.909 0 01-.196-.486l-.059-1.834v-.053a.513.513 0 00-.513-.512H7.052a.762.762 0 00-.642.407L4.298 9.245a.501.501 0 00.253.676l.311.137a.537.537 0 00.688-.247l.99-1.968v1.978c-.005.012-.011.022-.015.034l-1.671 5.234a.818.818 0 00.57 1.047l.112.03a.898.898 0 001.075-.586l1.561-4.89.554 1.356c.136.33.281.91.319 1.266l.265 2.498c.043.4.359.69.752.69a.85.85 0 00.194-.023l.113-.028a.956.956 0 00.706-1.026l-.392-3.046a6.008 6.008 0 00-.372-1.351l-.53-1.22c-.007-.017-.017-.031-.025-.046v-.827l.955.997a.492.492 0 00.719-.003l.176-.188a.55.55 0 00.007-.734zM8.29 3.918A1.71 1.71 0 0010 2.208 1.71 1.71 0 008.29.5a1.71 1.71 0 00-1.708 1.709A1.71 1.71 0 008.29 3.918z"/></g><defs><clipPath id="clip0_684_513"><path fill="#fff" transform="translate(0 .5)" d="M0 0h16v16H0z"/></clipPath></defs></svg>