<svg width="30" height="30" fill="none" xmlns="http://www.w3.org/2000/svg"><g clip-path="url(#clip0_1315_9441)"><path d="M14.85 15.668c-.752-.423-2.193-1.343-3.76-2.91C9.523 11.191 8.593 9.74 8.163 8.98l2.527-2.56L4.308 0 1.164 3.123a3.955 3.955 0 00-.77 4.52c1.119 2.305 3.184 5.782 6.665 9.264 3.482 3.482 6.96 5.546 9.264 6.665a3.916 3.916 0 001.714.394 3.968 3.968 0 002.806-1.164l3.13-3.14-6.512-6.522-2.61 2.528zm4.669 5.812c-.63.63-1.586.794-2.379.409-2.175-1.056-5.46-3.008-8.757-6.305C5.085 12.286 3.133 9 2.077 6.826a2.081 2.081 0 01.408-2.377L4.3 2.646l3.756 3.779-2.153 2.18.26.584c.042.095 1.063 2.352 3.604 4.893 2.542 2.542 4.78 3.542 4.874 3.583l.576.253 2.222-2.152 3.89 3.897-1.81 1.817zM17.303 8.815L12.9 4.411 17.303.006l1.324 1.324-2.1 2.098h4.655c1.55 0 2.812 1.26 2.812 2.807L24 11.147l-1.871.002-.006-4.912a.94.94 0 00-.941-.937h-4.748l2.193 2.192-1.324 1.323z" fill="#fff"/></g><defs><clipPath id="clip0_1315_9441"><path fill="#fff" d="M0 0h30v30H0z"/></clipPath></defs></svg>