<svg width="28" height="16" fill="none" xmlns="http://www.w3.org/2000/svg"><path d="M24.515 7.137c-1.706 2.195-1.575 2.195.394 4.003 1.97 1.807 4.595 4.648 1.707 4.648H22.94c-2.1 0-2.494-1.162-4.2-2.84-1.576-1.55-2.364-.388-2.364 1.807 0 .517-.393 1.033-1.05 1.033-2.232 0-5.382.258-8.533-3.099C3.25 9.074.361 2.618.098 1.972-.164 1.326.098.939.886.939h3.807c.919 0 1.05.516 1.313 1.162 1.181 2.583 3.938 7.747 4.726 4.907.525-1.679.656-5.165-1.182-5.553-1.313-.258 1.838-1.807 5.514-1.033 1.312.388 1.312.904 1.312 1.808-.13 3.228-.525 5.165.394 5.682.788.516 3.02-2.841 4.2-5.553.395-.774.395-1.291 1.314-1.291h4.594c2.494 0-.262 3.357-2.363 6.069z" fill="#fff"/></svg>