<svg width="25" height="28" fill="none" xmlns="http://www.w3.org/2000/svg"><g clip-path="url(#clip0_1819_16320)" fill="#fff"><path d="M1.56 18.348l-.04-.07C.528 16.439 0 14.416 0 12.423v-.005c.005-3.305 1.312-6.416 3.678-8.762A12.456 12.456 0 0112.5.022a12.4 12.4 0 018.807 3.634C23.693 6.03 25.005 9.143 25 12.428c0 3.305-1.307 6.416-3.683 8.762a12.466 12.466 0 01-8.817 3.634h-.005c-1.943 0-3.887-.463-5.616-1.337l-.07-.035L.1 24.978l1.462-6.63zm5.731 3.593a10.948 10.948 0 005.204 1.317c6.034 0 10.94-4.86 10.94-10.83 0-2.863-1.149-5.581-3.236-7.664a10.847 10.847 0 00-7.704-3.176c-6.024 0-10.934 4.86-10.934 10.835 0 1.844.517 3.718 1.5 5.413l.155.263-1.059 4.811 4.876-1.108.258.139z"/><path d="M15.74 17.572c-.382 0-1.088-.08-2.818-.76-1.724-.676-3.43-2.172-4.806-4.205-.035-.05-.055-.084-.07-.1l-.004-.004c-.343-.457-1.144-1.65-1.144-2.868 0-1.252.612-1.899.905-2.212a.764.764 0 01.06-.064.853.853 0 01.62-.294h.553c.164.005.293.015.457.358l.01.025c.149.328.397.944.596 1.441.174.428.264.652.298.721.065.134.075.219.025.318-.02.04-.04.08-.054.115a1.33 1.33 0 01-.2.328 6.52 6.52 0 01-.442.462c-.144.144-.417.412-.159.85.22.377.825 1.332 1.675 2.087.96.85 1.795 1.218 2.197 1.397.075.035.134.06.174.08a.92.92 0 00.413.114c.179 0 .333-.08.472-.239.139-.159.74-.86.95-1.173.084-.124.133-.124.168-.124.065 0 .154.03.239.06.109.04.532.233 1.908.919l.05.025c.06.03.114.054.164.08.134.064.273.129.303.173.035.11.03.602-.184 1.203-.09.259-.378.557-.79.82-.353.229-.76.398-.994.423l-.16.015c-.123.015-.253.03-.412.03z"/></g><defs><clipPath id="clip0_1819_16320"><path fill="#fff" transform="translate(0 .022)" d="M0 0h25v24.955H0z"/></clipPath></defs></svg>