<svg width="599" height="600" viewBox="0 0 599 600" fill="none" xmlns="http://www.w3.org/2000/svg">
<circle cx="297.461" cy="291.461" r="63.4607" fill="url(#paint0_linear_1024_14)" fill-opacity="0.8"/>
<circle cx="296.884" cy="290.884" r="31.7304" fill="#1B1D32"/>
<circle cx="318.807" cy="270.115" r="14.4229" fill="white"/>
<path fill-rule="evenodd" clip-rule="evenodd" d="M302 555C442.833 555 557 440.833 557 300C557 159.167 442.833 45 302 45C161.167 45 47 159.167 47 300C47 440.833 161.167 555 302 555ZM333 224C291 216.696 250 218.318 226.5 229C203 239.682 189 249 172.5 265.5C156 282 132.5 315.5 133.5 322C134.5 328.5 211 361 292 361C373 361 439 327 436 314.5C433 302 375 231.304 333 224Z" fill="#E9F4FF"/>
<g clip-path="url(#clip0_1024_14)">
<path fill-rule="evenodd" clip-rule="evenodd" d="M347.539 189.04C348.108 188.837 348.732 189.445 348.53 190.016C348.394 190.605 347.536 190.774 347.172 190.301C346.794 189.903 347.014 189.182 347.539 189.04Z" fill="#2A2651"/>
<path fill-rule="evenodd" clip-rule="evenodd" d="M328.499 189.235C328.923 189.005 329.51 189.369 329.43 189.861C329.408 190.346 328.76 190.591 328.402 190.288C328.053 190.026 328.11 189.428 328.499 189.235Z" fill="#2A2651"/>
<path fill-rule="evenodd" clip-rule="evenodd" d="M281.197 189.467C281.459 189.323 281.829 189.574 281.728 189.874C281.689 190.205 281.176 190.268 281.049 189.966C280.94 189.791 281.024 189.563 281.197 189.467Z" fill="#2A2651"/>
<path fill-rule="evenodd" clip-rule="evenodd" d="M337.472 195.892C338.295 195.698 339.188 195.804 339.934 196.206C340.994 196.779 341.74 197.924 341.748 199.138C341.813 200.317 341.205 201.502 340.212 202.143C339.16 202.857 337.71 202.903 336.601 202.293C335.954 201.928 335.42 201.361 335.12 200.682C334.693 199.736 334.717 198.596 335.2 197.675C335.646 196.787 336.501 196.116 337.472 195.892Z" fill="#2A2651"/>
<path fill-rule="evenodd" clip-rule="evenodd" d="M290.15 196C290.825 195.883 291.544 195.914 292.178 196.198C293.134 196.595 293.865 197.468 294.106 198.472C294.332 199.467 294.116 200.573 293.451 201.361C292.743 202.25 291.559 202.718 290.433 202.56C288.847 202.402 287.522 200.947 287.526 199.354C287.438 197.794 288.618 196.3 290.15 196Z" fill="#2A2651"/>
<path fill-rule="evenodd" clip-rule="evenodd" d="M281.199 196.769C282.013 196.716 282.856 197.075 283.349 197.731C283.796 198.31 283.985 199.095 283.805 199.808C283.615 200.725 282.852 201.495 281.933 201.688C281.109 201.879 280.189 201.63 279.601 201.019C278.949 200.384 278.71 199.376 278.989 198.514C279.268 197.548 280.198 196.833 281.199 196.769Z" fill="#2A2651"/>
<path fill-rule="evenodd" clip-rule="evenodd" d="M300.219 196.766C301.059 196.724 301.912 197.129 302.39 197.825C302.815 198.4 302.915 199.16 302.772 199.848C302.572 200.698 301.887 201.419 301.042 201.65C300.147 201.924 299.108 201.634 298.489 200.933C297.889 200.284 297.692 199.311 297.972 198.477C298.27 197.513 299.211 196.809 300.219 196.766Z" fill="#2A2651"/>
<path fill-rule="evenodd" clip-rule="evenodd" d="M243.269 197.534C244.299 197.403 245.272 198.359 245.159 199.389C245.112 200.299 244.247 201.062 243.335 200.988C242.441 200.965 241.661 200.149 241.698 199.255C241.671 198.387 242.403 197.595 243.269 197.534Z" fill="#2A2651"/>
<path fill-rule="evenodd" clip-rule="evenodd" d="M318.908 197.547C319.919 197.274 321.045 198.087 321.068 199.14C321.168 200.079 320.367 200.994 319.419 201.006C318.575 201.086 317.747 200.457 317.594 199.627C317.371 198.728 318 197.739 318.908 197.547Z" fill="#2A2651"/>
<path fill-rule="evenodd" clip-rule="evenodd" d="M404.353 198.182C404.734 198.091 405.183 198.148 405.472 198.442C405.949 198.875 405.925 199.716 405.419 200.117C404.925 200.563 404.053 200.427 403.722 199.853C403.343 199.261 403.657 198.36 404.353 198.182Z" fill="#2A2651"/>
<path fill-rule="evenodd" clip-rule="evenodd" d="M375.819 198.293C376.478 197.992 377.309 198.525 377.281 199.255C377.329 200.046 376.335 200.599 375.683 200.157C374.957 199.765 375.044 198.576 375.819 198.293Z" fill="#2A2651"/>
<path fill-rule="evenodd" clip-rule="evenodd" d="M262.07 198.63C262.549 198.353 263.202 198.801 263.108 199.347C263.067 199.893 262.323 200.164 261.931 199.792C261.561 199.491 261.638 198.834 262.07 198.63Z" fill="#2A2651"/>
<path fill-rule="evenodd" clip-rule="evenodd" d="M394.972 198.644C395.418 198.455 395.943 198.883 395.85 199.358C395.815 199.833 395.195 200.071 394.826 199.798C394.401 199.53 394.488 198.795 394.972 198.644Z" fill="#2A2651"/>
<path fill-rule="evenodd" clip-rule="evenodd" d="M366.526 198.721C366.897 198.588 367.322 198.843 367.331 199.249C367.335 199.641 366.891 199.969 366.526 199.792C366.054 199.638 366.06 198.882 366.526 198.721Z" fill="#2A2651"/>
<path fill-rule="evenodd" clip-rule="evenodd" d="M271.792 198.957C272.065 198.842 272.318 199.208 272.152 199.434C272.033 199.635 271.684 199.616 271.602 199.394C271.514 199.229 271.615 199.007 271.792 198.957Z" fill="#2A2651"/>
<path fill-rule="evenodd" clip-rule="evenodd" d="M309.811 198.956C310.159 198.94 310.23 199.526 309.868 199.541C309.48 199.62 309.43 198.99 309.811 198.956Z" fill="#2A2651"/>
<path fill-rule="evenodd" clip-rule="evenodd" d="M328.619 198.938C329.001 198.68 329.408 199.351 329.003 199.566C328.604 199.858 328.182 199.16 328.619 198.938Z" fill="#2A2651"/>
<path fill-rule="evenodd" clip-rule="evenodd" d="M233.854 199.043C234.193 198.882 234.304 199.514 233.945 199.479C233.685 199.533 233.623 199.091 233.854 199.043Z" fill="#2A2651"/>
<path fill-rule="evenodd" clip-rule="evenodd" d="M290.27 204.275C292.128 204.002 294.077 205.036 294.889 206.727C295.811 208.539 295.315 210.946 293.701 212.203C292.15 213.508 289.708 213.54 288.118 212.287C286.651 211.191 286 209.155 286.558 207.413C287.036 205.759 288.556 204.477 290.27 204.275Z" fill="#2A2651"/>
<path fill-rule="evenodd" clip-rule="evenodd" d="M280.639 204.376C282.376 204.07 284.247 204.903 285.144 206.424C286.216 208.122 285.921 210.545 284.43 211.903C282.948 213.389 280.384 213.538 278.726 212.258C277.19 211.15 276.555 209.005 277.212 207.234C277.726 205.756 279.089 204.618 280.639 204.376Z" fill="#2A2651"/>
<path fill-rule="evenodd" clip-rule="evenodd" d="M299.558 204.385C301.219 204.079 303.021 204.799 303.969 206.203C305.099 207.768 305.003 210.07 303.749 211.539C302.513 213.076 300.193 213.584 298.428 212.696C296.754 211.923 295.705 210.022 295.963 208.196C296.146 206.317 297.693 204.689 299.558 204.385Z" fill="#2A2651"/>
<path fill-rule="evenodd" clip-rule="evenodd" d="M309.169 204.71C310.757 204.436 312.467 205.194 313.296 206.581C314.304 208.157 314.024 210.428 312.624 211.686C311.295 212.981 309.054 213.153 307.537 212.089C306.108 211.152 305.418 209.262 305.904 207.628C306.301 206.13 307.634 204.942 309.169 204.71Z" fill="#2A2651"/>
<path fill-rule="evenodd" clip-rule="evenodd" d="M328.297 204.713C329.897 204.494 331.58 205.337 332.343 206.761C333.235 208.306 332.925 210.425 331.607 211.635C330.212 213.047 327.748 213.131 326.237 211.855C324.877 210.782 324.376 208.793 325.05 207.201C325.577 205.867 326.869 204.878 328.297 204.713Z" fill="#2A2651"/>
<path fill-rule="evenodd" clip-rule="evenodd" d="M271.029 204.826C272.706 204.436 274.57 205.267 275.384 206.785C276.35 208.46 275.864 210.795 274.281 211.919C272.761 213.099 270.389 212.935 269.061 211.542C267.802 210.345 267.541 208.302 268.381 206.798C268.925 205.801 269.919 205.068 271.029 204.826Z" fill="#2A2651"/>
<path fill-rule="evenodd" clip-rule="evenodd" d="M261.864 205.063C263.457 204.808 265.147 205.72 265.784 207.203C266.358 208.459 266.154 210.029 265.261 211.085C264.314 212.254 262.621 212.725 261.204 212.225C260.026 211.842 259.089 210.822 258.801 209.621C258.577 208.631 258.72 207.536 259.302 206.689C259.868 205.812 260.829 205.207 261.864 205.063Z" fill="#2A2651"/>
<path fill-rule="evenodd" clip-rule="evenodd" d="M338.038 206.586C339.269 206.402 340.511 207.487 340.424 208.741C340.496 210.001 339.221 211.066 337.992 210.853C336.873 210.737 336.009 209.621 336.139 208.515C336.218 207.531 337.053 206.684 338.038 206.586Z" fill="#2A2651"/>
<path fill-rule="evenodd" clip-rule="evenodd" d="M318.909 207.257C319.843 206.963 320.891 207.764 320.834 208.741C320.868 209.65 319.935 210.411 319.049 210.222C318.3 210.109 317.73 209.375 317.794 208.626C317.819 207.991 318.297 207.419 318.909 207.257Z" fill="#2A2651"/>
<path fill-rule="evenodd" clip-rule="evenodd" d="M394.758 207.266C395.576 207.002 396.54 207.542 396.687 208.399C396.912 209.252 396.235 210.164 395.366 210.239C394.625 210.332 393.873 209.809 393.72 209.08C393.518 208.324 394 207.473 394.758 207.266Z" fill="#2A2651"/>
<path fill-rule="evenodd" clip-rule="evenodd" d="M366.222 207.349C367.063 207.012 368.12 207.607 368.201 208.523C368.349 209.37 367.604 210.244 366.733 210.181C365.869 210.223 365.129 209.354 365.299 208.508C365.348 207.986 365.734 207.531 366.222 207.349Z" fill="#2A2651"/>
<path fill-rule="evenodd" clip-rule="evenodd" d="M214.527 207.597C215.329 207.257 216.301 207.983 216.175 208.849C216.122 209.733 214.988 210.25 214.281 209.717C213.492 209.226 213.644 207.897 214.527 207.597Z" fill="#2A2651"/>
<path fill-rule="evenodd" clip-rule="evenodd" d="M252.552 208.023C253.056 207.731 253.747 208.17 253.696 208.747C253.723 209.361 252.925 209.73 252.452 209.361C251.97 209.057 252.041 208.257 252.552 208.023Z" fill="#2A2651"/>
<path fill-rule="evenodd" clip-rule="evenodd" d="M404.459 208.111C404.87 207.939 405.389 208.29 405.327 208.744C405.37 209.238 404.72 209.564 404.332 209.277C403.879 209.022 403.958 208.261 404.459 208.111Z" fill="#2A2651"/>
<path fill-rule="evenodd" clip-rule="evenodd" d="M243.145 208.219C243.514 207.994 244.039 208.303 244.006 208.738C244.025 209.183 243.449 209.457 243.098 209.203C242.759 208.984 242.777 208.4 243.145 208.219Z" fill="#2A2651"/>
<path fill-rule="evenodd" clip-rule="evenodd" d="M385.441 208.209C385.851 207.978 386.403 208.377 386.281 208.84C386.223 209.304 385.549 209.461 385.276 209.095C385.02 208.834 385.131 208.374 385.441 208.209Z" fill="#2A2651"/>
<path fill-rule="evenodd" clip-rule="evenodd" d="M423.37 208.219C423.733 208.001 424.282 208.294 424.232 208.736C424.252 209.146 423.763 209.427 423.409 209.243C422.991 209.079 422.976 208.419 423.37 208.219Z" fill="#2A2651"/>
<path fill-rule="evenodd" clip-rule="evenodd" d="M357.141 208.431C357.552 208.242 357.75 208.975 357.325 209.029C356.958 209.128 356.78 208.54 357.141 208.431Z" fill="#2A2651"/>
<path fill-rule="evenodd" clip-rule="evenodd" d="M413.983 208.453C414.311 208.24 414.68 208.717 414.382 208.967C414.062 209.24 413.631 208.705 413.983 208.453Z" fill="#2A2651"/>
<path fill-rule="evenodd" clip-rule="evenodd" d="M224.336 208.527C224.613 208.3 224.885 208.888 224.52 208.939C224.253 209.051 224.106 208.642 224.336 208.527Z" fill="#2A2651"/>
<path fill-rule="evenodd" clip-rule="evenodd" d="M347.732 208.55C347.935 208.495 348.005 208.838 347.812 208.892C347.601 208.948 347.527 208.597 347.732 208.55Z" fill="#2A2651"/>
<path fill-rule="evenodd" clip-rule="evenodd" d="M308.845 213.321C310.334 212.993 311.984 213.446 313.033 214.567C314.362 215.879 314.679 218.053 313.816 219.703C313.073 221.182 311.453 222.174 309.79 222.13C308.081 222.146 306.436 221.064 305.752 219.506C305.044 217.969 305.317 216.042 306.436 214.768C307.053 214.041 307.915 213.53 308.845 213.321Z" fill="#2A2651"/>
<path fill-rule="evenodd" clip-rule="evenodd" d="M328.188 213.664C329.592 213.469 331.083 213.965 332.065 214.991C333.19 216.097 333.634 217.816 333.231 219.335C332.83 220.966 331.445 222.297 329.801 222.644C328.132 223.031 326.281 222.39 325.227 221.042C324.058 219.629 323.908 217.491 324.832 215.914C325.519 214.696 326.799 213.84 328.188 213.664Z" fill="#2A2651"/>
<path fill-rule="evenodd" clip-rule="evenodd" d="M347.643 213.647C349.651 213.56 351.6 214.965 352.136 216.899C352.717 218.767 351.922 220.957 350.255 221.993C348.544 223.151 346.051 222.911 344.6 221.44C343.355 220.267 342.9 218.359 343.459 216.747C344.022 214.972 345.78 213.682 347.643 213.647Z" fill="#2A2651"/>
<path fill-rule="evenodd" clip-rule="evenodd" d="M376.055 213.649C378.005 213.549 379.919 214.845 380.529 216.699C381.203 218.56 380.484 220.808 378.834 221.913C377.238 223.056 374.907 222.984 373.389 221.738C371.822 220.532 371.252 218.26 372.024 216.449C372.672 214.836 374.315 213.701 376.055 213.649Z" fill="#2A2651"/>
<path fill-rule="evenodd" clip-rule="evenodd" d="M233.657 213.761C235.355 213.635 237.073 214.58 237.86 216.09C238.565 217.388 238.551 219.053 237.833 220.342C236.934 222.002 234.905 222.945 233.057 222.532C231.059 222.169 229.463 220.271 229.515 218.235C229.453 216.665 230.35 215.124 231.711 214.35C232.303 214.006 232.975 213.811 233.657 213.761Z" fill="#2A2651"/>
<path fill-rule="evenodd" clip-rule="evenodd" d="M242.595 213.754C244.481 213.37 246.527 214.348 247.414 216.049C248.356 217.749 248.028 220.041 246.618 221.389C245.207 222.843 242.781 223.126 241.071 222.041C239.411 221.071 238.562 218.979 239.032 217.124C239.423 215.432 240.877 214.046 242.595 213.754Z" fill="#2A2651"/>
<path fill-rule="evenodd" clip-rule="evenodd" d="M252.103 213.749C253.93 213.388 255.898 214.298 256.821 215.906C257.84 217.589 257.568 219.919 256.178 221.314C254.761 222.846 252.248 223.147 250.501 222.008C248.908 221.04 248.07 219.019 248.5 217.208C248.86 215.471 250.347 214.038 252.103 213.749Z" fill="#2A2651"/>
<path fill-rule="evenodd" clip-rule="evenodd" d="M356.589 213.751C357.848 213.56 359.176 213.927 360.151 214.747C361.65 215.969 362.177 218.197 361.391 219.961C360.648 221.777 358.605 222.933 356.661 222.633C354.539 222.403 352.791 220.465 352.766 218.339C352.637 216.13 354.393 214.033 356.589 213.751Z" fill="#2A2651"/>
<path fill-rule="evenodd" clip-rule="evenodd" d="M224.03 214.092C225.916 213.862 227.848 215.109 228.389 216.93C228.97 218.636 228.254 220.666 226.73 221.631C225.73 222.298 224.438 222.468 223.288 222.142C222.143 221.813 221.167 220.958 220.688 219.87C220.025 218.417 220.305 216.588 221.398 215.417C222.073 214.674 223.028 214.189 224.03 214.092Z" fill="#2A2651"/>
<path fill-rule="evenodd" clip-rule="evenodd" d="M299.775 214.103C301.362 213.775 303.097 214.523 303.926 215.914C304.907 217.453 304.624 219.651 303.267 220.877C302.013 222.094 299.938 222.3 298.462 221.371C297.075 220.539 296.303 218.807 296.648 217.225C296.926 215.676 298.225 214.384 299.775 214.103Z" fill="#2A2651"/>
<path fill-rule="evenodd" clip-rule="evenodd" d="M270.474 214.312C272.238 213.909 274.183 214.885 274.909 216.54C275.707 218.225 275.118 220.425 273.547 221.451C271.961 222.596 269.556 222.292 268.3 220.796C267.044 219.411 267.001 217.128 268.204 215.696C268.77 214.992 269.588 214.495 270.474 214.312Z" fill="#2A2651"/>
<path fill-rule="evenodd" clip-rule="evenodd" d="M403.916 214.302C405.168 214.05 406.528 214.44 407.444 215.331C408.824 216.608 409.05 218.895 407.969 220.427C406.989 221.909 404.954 222.548 403.299 221.902C401.564 221.298 400.444 219.375 400.767 217.573C400.988 215.963 402.316 214.592 403.916 214.302Z" fill="#2A2651"/>
<path fill-rule="evenodd" clip-rule="evenodd" d="M291.372 214.423C293.222 214.354 294.982 215.739 295.333 217.553C295.785 219.453 294.595 221.558 292.725 222.138C291.004 222.75 288.927 221.993 288.032 220.401C287.135 218.941 287.357 216.921 288.542 215.686C289.26 214.899 290.309 214.448 291.372 214.423Z" fill="#2A2651"/>
<path fill-rule="evenodd" clip-rule="evenodd" d="M318.786 214.869C320.48 214.558 322.267 215.77 322.598 217.455C322.984 218.997 322.082 220.715 320.603 221.292C319.103 221.944 317.203 221.307 316.405 219.882C315.754 218.784 315.808 217.311 316.551 216.27C317.064 215.525 317.889 215.01 318.786 214.869Z" fill="#2A2651"/>
<path fill-rule="evenodd" clip-rule="evenodd" d="M337.587 214.983C338.971 214.668 340.505 215.349 341.17 216.607C341.781 217.705 341.686 219.159 340.919 220.159C340.208 221.122 338.937 221.631 337.756 221.422C336.67 221.262 335.707 220.509 335.275 219.507C334.842 218.52 334.93 217.322 335.519 216.417C335.978 215.687 336.744 215.165 337.587 214.983Z" fill="#2A2651"/>
<path fill-rule="evenodd" clip-rule="evenodd" d="M366.229 214.974C367.303 214.8 368.46 215.198 369.179 216.018C369.723 216.612 370.007 217.422 370.009 218.224C370.002 219.345 369.374 220.436 368.399 220.997C367.031 221.823 365.085 221.454 364.144 220.156C363.319 219.096 363.264 217.512 364.019 216.402C364.51 215.642 365.334 215.112 366.229 214.974Z" fill="#2A2651"/>
<path fill-rule="evenodd" clip-rule="evenodd" d="M280.429 215.199C281.19 215.066 282.008 215.112 282.705 215.474C283.735 215.964 284.479 216.996 284.615 218.128C284.856 219.695 283.856 221.328 282.356 221.843C281.131 222.294 279.673 221.978 278.746 221.063C277.759 220.127 277.457 218.597 277.93 217.337C278.339 216.272 279.304 215.43 280.429 215.199Z" fill="#2A2651"/>
<path fill-rule="evenodd" clip-rule="evenodd" d="M384.916 215.195C385.852 214.955 386.901 215.152 387.654 215.769C388.575 216.489 389.024 217.763 388.735 218.897C388.509 219.906 387.736 220.772 386.755 221.105C385.365 221.624 383.657 220.984 382.985 219.658C382.489 218.749 382.492 217.588 383.003 216.686C383.4 215.955 384.108 215.402 384.916 215.195Z" fill="#2A2651"/>
<path fill-rule="evenodd" clip-rule="evenodd" d="M261.969 216.646C262.914 216.349 263.997 217.117 264.001 218.11C264.079 219.005 263.256 219.854 262.351 219.779C261.529 219.799 260.794 219.049 260.807 218.234C260.755 217.517 261.277 216.823 261.969 216.646Z" fill="#2A2651"/>
<path fill-rule="evenodd" clip-rule="evenodd" d="M413.981 216.943C414.773 216.787 415.559 217.552 415.418 218.349C415.366 219.147 414.429 219.674 413.707 219.358C413.041 219.12 412.719 218.277 413.032 217.651C413.198 217.271 413.572 217.005 413.981 216.943Z" fill="#2A2651"/>
<path fill-rule="evenodd" clip-rule="evenodd" d="M214.634 217.165C215.314 216.92 216.117 217.509 216.036 218.236C216.07 219.076 214.948 219.577 214.318 219.046C213.634 218.575 213.829 217.385 214.634 217.165Z" fill="#2A2651"/>
<path fill-rule="evenodd" clip-rule="evenodd" d="M195.613 217.293C196.3 216.981 197.132 217.635 196.953 218.372C196.857 219.1 195.86 219.41 195.344 218.91C194.83 218.475 194.975 217.534 195.613 217.293Z" fill="#2A2651"/>
<path fill-rule="evenodd" clip-rule="evenodd" d="M394.96 217.493C395.429 217.315 395.991 217.719 395.928 218.226C395.947 218.807 395.164 219.144 394.74 218.758C394.303 218.434 394.427 217.644 394.96 217.493Z" fill="#2A2651"/>
<path fill-rule="evenodd" clip-rule="evenodd" d="M205.121 218.213C205.074 217.93 205.377 217.835 205.596 217.79C205.706 217.915 205.888 218.026 205.844 218.224C205.859 218.66 205.099 218.651 205.121 218.213Z" fill="#2A2651"/>
<path fill-rule="evenodd" clip-rule="evenodd" d="M442.387 217.812C442.64 217.644 443.045 217.801 443.067 218.122C443.14 218.456 442.744 218.746 442.444 218.597C442.119 218.477 442.091 217.977 442.387 217.812Z" fill="#2A2651"/>
<path fill-rule="evenodd" clip-rule="evenodd" d="M433.094 218.033C433.282 217.968 433.375 218.289 433.178 218.333C432.984 218.39 432.896 218.08 433.094 218.033Z" fill="#2A2651"/>
<path fill-rule="evenodd" clip-rule="evenodd" d="M204.791 223.246C206.66 222.929 208.659 223.94 209.48 225.65C210.442 227.481 209.895 229.94 208.229 231.177C206.653 232.441 204.214 232.417 202.667 231.117C201.133 229.917 200.581 227.663 201.377 225.888C201.963 224.499 203.298 223.468 204.791 223.246Z" fill="#2A2651"/>
<path fill-rule="evenodd" clip-rule="evenodd" d="M356.387 223.252C357.68 223.002 359.081 223.327 360.101 224.172C361.528 225.294 362.108 227.322 361.537 229.038C360.984 230.821 359.215 232.147 357.337 232.131C355.482 232.206 353.673 230.976 353.05 229.234C352.611 228.071 352.679 226.728 353.247 225.621C353.859 224.41 355.045 223.498 356.387 223.252Z" fill="#2A2651"/>
<path fill-rule="evenodd" clip-rule="evenodd" d="M385.355 223.469C387.233 223.277 389.133 224.515 389.704 226.311C390.321 228.047 389.619 230.132 388.07 231.138C386.837 231.978 385.153 232.078 383.824 231.407C382.278 230.649 381.312 228.883 381.538 227.175C381.716 225.24 383.414 223.597 385.355 223.469Z" fill="#2A2651"/>
<path fill-rule="evenodd" clip-rule="evenodd" d="M347.226 223.597C348.524 223.415 349.895 223.895 350.776 224.869C351.947 226.078 352.212 228.043 351.423 229.526C350.87 230.614 349.803 231.429 348.6 231.661C347.38 231.923 346.047 231.58 345.104 230.766C343.677 229.588 343.248 227.404 344.126 225.777C344.721 224.603 345.916 223.757 347.226 223.597Z" fill="#2A2651"/>
<path fill-rule="evenodd" clip-rule="evenodd" d="M375.642 223.602C377.641 223.271 379.737 224.646 380.201 226.619C380.715 228.452 379.747 230.547 378.012 231.341C376.336 232.185 374.135 231.669 373 230.182C372.095 229.058 371.894 227.44 372.429 226.111C372.952 224.782 374.224 223.794 375.642 223.602Z" fill="#2A2651"/>
<path fill-rule="evenodd" clip-rule="evenodd" d="M195.064 223.692C196.771 223.275 198.677 224.088 199.535 225.62C200.247 226.85 200.255 228.457 199.534 229.684C198.727 231.13 196.975 231.958 195.342 231.665C193.402 231.399 191.853 229.553 191.928 227.6C191.908 225.779 193.286 224.08 195.064 223.692Z" fill="#2A2651"/>
<path fill-rule="evenodd" clip-rule="evenodd" d="M214.959 223.692C216.907 223.641 218.716 225.227 218.909 227.164C219.175 228.964 218.01 230.828 216.28 231.397C214.546 232.03 212.45 231.26 211.543 229.657C210.604 228.11 210.921 225.949 212.273 224.742C212.994 224.07 213.974 223.695 214.959 223.692Z" fill="#2A2651"/>
<path fill-rule="evenodd" clip-rule="evenodd" d="M366.114 224.248C367.255 224.041 368.494 224.421 369.277 225.287C370.42 226.45 370.527 228.441 369.529 229.727C368.756 230.782 367.347 231.322 366.067 231.049C365.123 230.869 364.271 230.272 363.777 229.453C363.242 228.589 363.133 227.49 363.459 226.533C363.842 225.364 364.901 224.46 366.114 224.248Z" fill="#2A2651"/>
<path fill-rule="evenodd" clip-rule="evenodd" d="M432.676 225.124C433.674 224.931 434.767 225.388 435.307 226.253C435.934 227.191 435.835 228.546 435.062 229.372C434.406 230.13 433.283 230.411 432.337 230.096C431.356 229.791 430.632 228.845 430.574 227.824C430.463 226.561 431.42 225.326 432.676 225.124Z" fill="#2A2651"/>
<path fill-rule="evenodd" clip-rule="evenodd" d="M413.652 226.111C414.51 225.8 415.551 226.35 415.752 227.245C416.037 228.183 415.269 229.262 414.28 229.264C413.393 229.367 412.555 228.6 412.547 227.718C412.506 227.016 412.978 226.325 413.652 226.111Z" fill="#2A2651"/>
<path fill-rule="evenodd" clip-rule="evenodd" d="M423.158 226.109C424.022 225.798 425.06 226.376 425.245 227.275C425.517 228.237 424.688 229.327 423.673 229.265C422.816 229.323 422.039 228.566 422.033 227.718C421.987 227.009 422.475 226.312 423.158 226.109Z" fill="#2A2651"/>
<path fill-rule="evenodd" clip-rule="evenodd" d="M224.034 226.665C224.769 226.305 225.686 227.023 225.518 227.82C225.447 228.656 224.289 229.02 223.717 228.436C223.147 227.949 223.333 226.921 224.034 226.665Z" fill="#2A2651"/>
<path fill-rule="evenodd" clip-rule="evenodd" d="M404.46 227.183C404.807 226.983 405.278 227.329 405.208 227.721C405.19 228.106 404.696 228.286 404.396 228.09C404.067 227.897 404.097 227.322 404.46 227.183Z" fill="#2A2651"/>
<path fill-rule="evenodd" clip-rule="evenodd" d="M442.218 227.72C442.11 227.288 442.768 227.046 442.986 227.423C443.151 227.654 442.975 227.898 442.825 228.078C442.583 228.054 442.231 228.036 442.218 227.72Z" fill="#2A2651"/>
<path fill-rule="evenodd" clip-rule="evenodd" d="M186.319 227.438C186.603 227.173 187.008 227.663 186.694 227.881C186.423 228.123 186.029 227.662 186.319 227.438Z" fill="#2A2651"/>
<path fill-rule="evenodd" clip-rule="evenodd" d="M394.894 227.602C394.9 227.349 395.274 227.255 395.429 227.434C395.564 227.557 395.481 227.735 395.46 227.888C395.382 227.917 395.228 227.973 395.151 228.001C395.024 227.896 394.83 227.797 394.894 227.602Z" fill="#2A2651"/>
<path fill-rule="evenodd" clip-rule="evenodd" d="M394.29 232.724C396.177 232.312 398.252 233.261 399.152 234.968C400.2 236.823 399.687 239.393 397.96 240.664C396.38 241.934 393.937 241.905 392.38 240.615C390.942 239.496 390.362 237.473 390.917 235.752C391.389 234.238 392.727 233.026 394.29 232.724Z" fill="#2A2651"/>
<path fill-rule="evenodd" clip-rule="evenodd" d="M195.525 232.973C197.462 232.712 199.453 234.008 199.994 235.882C200.596 237.706 199.733 239.85 198.043 240.762C196.369 241.727 194.056 241.325 192.822 239.835C191.6 238.454 191.488 236.246 192.557 234.745C193.228 233.763 194.339 233.101 195.525 232.973Z" fill="#2A2651"/>
<path fill-rule="evenodd" clip-rule="evenodd" d="M366.244 232.976C367.542 232.809 368.901 233.304 369.794 234.257C371.018 235.521 371.28 237.586 370.414 239.117C369.574 240.719 367.617 241.605 365.853 241.194C364.512 240.915 363.349 239.93 362.855 238.657C362.28 237.218 362.577 235.472 363.63 234.328C364.299 233.58 365.245 233.091 366.244 232.976Z" fill="#2A2651"/>
<path fill-rule="evenodd" clip-rule="evenodd" d="M375.508 232.955C376.282 232.832 377.093 232.904 377.822 233.201C379.094 233.704 380.078 234.866 380.366 236.202C380.572 237.269 380.424 238.423 379.831 239.349C378.874 240.935 376.803 241.726 375.03 241.169C373.15 240.656 371.812 238.711 372.014 236.775C372.125 234.9 373.653 233.242 375.508 232.955Z" fill="#2A2651"/>
<path fill-rule="evenodd" clip-rule="evenodd" d="M186.011 233.189C187.664 232.955 189.4 233.885 190.096 235.405C190.63 236.512 190.608 237.872 190.032 238.962C189.533 239.907 188.64 240.641 187.607 240.927C186.166 241.342 184.511 240.876 183.53 239.738C182.549 238.64 182.264 236.981 182.835 235.624C183.353 234.321 184.612 233.347 186.011 233.189Z" fill="#2A2651"/>
<path fill-rule="evenodd" clip-rule="evenodd" d="M385.146 233.198C386.315 233.028 387.557 233.397 388.418 234.211C389.771 235.423 390.09 237.597 389.132 239.142C388.315 240.571 386.552 241.333 384.943 241.006C383.648 240.763 382.515 239.82 382.032 238.599C381.451 237.152 381.794 235.373 382.93 234.288C383.53 233.704 384.315 233.312 385.146 233.198Z" fill="#2A2651"/>
<path fill-rule="evenodd" clip-rule="evenodd" d="M422.945 234.295C423.994 234.039 425.178 234.379 425.875 235.219C426.645 236.086 426.794 237.43 426.254 238.453C425.877 239.198 425.158 239.767 424.341 239.95C423.446 240.171 422.449 239.933 421.755 239.329C420.939 238.637 420.551 237.472 420.824 236.435C421.054 235.399 421.912 234.544 422.945 234.295Z" fill="#2A2651"/>
<path fill-rule="evenodd" clip-rule="evenodd" d="M404.127 235.478C405.143 235.104 406.375 235.874 406.409 236.969C406.532 237.912 405.726 238.833 404.775 238.842C403.89 238.918 403.036 238.197 402.967 237.314C402.861 236.529 403.368 235.715 404.127 235.478Z" fill="#2A2651"/>
<path fill-rule="evenodd" clip-rule="evenodd" d="M205.132 235.61C206.052 235.358 207.058 236.139 207.036 237.092C207.077 237.922 206.34 238.677 205.509 238.663C204.74 238.694 204.018 238.077 203.949 237.31C203.834 236.549 204.374 235.765 205.132 235.61Z" fill="#2A2651"/>
<path fill-rule="evenodd" clip-rule="evenodd" d="M433.11 236.036C433.919 235.987 434.509 236.948 434.091 237.644C433.715 238.396 432.471 238.352 432.164 237.567C431.833 236.895 432.363 236.044 433.11 236.036Z" fill="#2A2651"/>
<path fill-rule="evenodd" clip-rule="evenodd" d="M357.161 236.148C357.853 236.057 358.441 236.82 358.168 237.468C357.932 238.189 356.829 238.304 356.447 237.653C356.037 237.08 356.454 236.193 357.161 236.148Z" fill="#2A2651"/>
<path fill-rule="evenodd" clip-rule="evenodd" d="M414.104 236.146C414.816 236.066 415.394 236.897 415.055 237.535C414.778 238.198 413.749 238.277 413.372 237.671C412.945 237.091 413.372 236.167 414.104 236.146Z" fill="#2A2651"/>
<path fill-rule="evenodd" clip-rule="evenodd" d="M177.032 236.486C177.532 236.465 177.845 237.109 177.533 237.492C177.281 237.869 176.642 237.805 176.461 237.395C176.255 236.996 176.578 236.468 177.032 236.486Z" fill="#2A2651"/>
<path fill-rule="evenodd" clip-rule="evenodd" d="M375.407 242.118C376.568 241.921 377.811 242.147 378.786 242.824C380.311 243.833 381.093 245.799 380.67 247.577C380.259 249.594 378.311 251.169 376.242 251.109C374.418 251.168 372.661 249.96 372.008 248.271C371.262 246.48 371.835 244.254 373.364 243.053C373.949 242.572 374.662 242.255 375.407 242.118Z" fill="#2A2651"/>
<path fill-rule="evenodd" clip-rule="evenodd" d="M394.307 242.105C396.221 241.696 398.321 242.672 399.226 244.407C400.199 246.134 399.854 248.475 398.409 249.84C396.903 251.381 394.269 251.579 392.541 250.298C390.961 249.206 390.241 247.069 390.827 245.243C391.294 243.666 392.685 242.407 394.307 242.105Z" fill="#2A2651"/>
<path fill-rule="evenodd" clip-rule="evenodd" d="M403.809 242.21C405.059 241.964 406.415 242.26 407.422 243.051C408.693 244.003 409.352 245.672 409.11 247.235C408.914 248.656 407.975 249.95 406.681 250.576C404.915 251.479 402.574 251.026 401.302 249.499C400.076 248.121 399.877 245.963 400.8 244.374C401.425 243.263 402.553 242.447 403.809 242.21Z" fill="#2A2651"/>
<path fill-rule="evenodd" clip-rule="evenodd" d="M413.444 242.235C414.642 242.041 415.921 242.339 416.88 243.094C418.225 244.117 418.877 245.935 418.479 247.576C418.058 249.566 416.096 251.095 414.054 250.979C411.891 250.994 409.95 249.165 409.777 247.027C409.583 245.3 410.519 243.519 412.06 242.709C412.489 242.474 412.959 242.316 413.444 242.235Z" fill="#2A2651"/>
<path fill-rule="evenodd" clip-rule="evenodd" d="M423.279 242.665C425.224 242.431 427.172 243.868 427.523 245.79C427.892 247.426 427.055 249.23 425.578 250.025C424.347 250.716 422.745 250.674 421.556 249.913C420.192 249.084 419.452 247.366 419.795 245.808C420.093 244.144 421.59 242.799 423.279 242.665Z" fill="#2A2651"/>
<path fill-rule="evenodd" clip-rule="evenodd" d="M385.011 242.764C386.207 242.558 387.492 242.896 388.375 243.743C389.526 244.783 389.918 246.54 389.35 247.979C388.899 249.179 387.808 250.113 386.55 250.377C385.754 250.514 384.906 250.479 384.162 250.146C382.583 249.493 381.587 247.711 381.868 246.03C382.063 244.413 383.407 243.032 385.011 242.764Z" fill="#2A2651"/>
<path fill-rule="evenodd" clip-rule="evenodd" d="M432.337 243.321C433.312 243.091 434.391 243.293 435.186 243.91C436.047 244.548 436.553 245.622 436.504 246.691C436.49 247.873 435.774 249.007 434.727 249.55C433.352 250.299 431.477 249.932 430.52 248.687C429.834 247.849 429.601 246.665 429.918 245.63C430.236 244.503 431.194 243.588 432.337 243.321Z" fill="#2A2651"/>
<path fill-rule="evenodd" clip-rule="evenodd" d="M452.139 243.99C453.132 243.832 454.199 244.298 454.738 245.149C455.333 246.035 455.3 247.284 454.66 248.138C454.175 248.805 453.361 249.217 452.535 249.211C451.574 249.213 450.63 248.654 450.201 247.794C449.69 246.835 449.856 245.56 450.626 244.786C451.019 244.356 451.562 244.077 452.139 243.99Z" fill="#2A2651"/>
<path fill-rule="evenodd" clip-rule="evenodd" d="M442.391 245.186C443.304 244.991 444.215 245.88 444.032 246.795C443.946 247.602 443.067 248.171 442.292 247.959C441.668 247.819 441.197 247.22 441.214 246.582C441.194 245.907 441.726 245.288 442.391 245.186Z" fill="#2A2651"/>
<path fill-rule="evenodd" clip-rule="evenodd" d="M366.429 245.856C366.926 245.638 367.572 246.025 367.525 246.589C367.57 247.208 366.783 247.581 366.3 247.236C365.795 246.923 365.872 246.068 366.429 245.856Z" fill="#2A2651"/>
<path fill-rule="evenodd" clip-rule="evenodd" d="M176.937 245.962C177.413 245.865 177.817 246.42 177.6 246.848C177.438 247.243 176.842 247.338 176.569 247.009C176.219 246.673 176.45 246.004 176.937 245.962Z" fill="#2A2651"/>
<path fill-rule="evenodd" clip-rule="evenodd" d="M470.813 246.07C471.182 245.889 471.694 246.145 471.665 246.588C471.703 247.077 471.02 247.347 470.694 247.003C470.396 246.754 470.482 246.249 470.813 246.07Z" fill="#2A2651"/>
<path fill-rule="evenodd" clip-rule="evenodd" d="M158.015 246.294C158.343 246.223 158.49 246.775 158.146 246.857C157.77 247.004 157.615 246.333 158.015 246.294Z" fill="#2A2651"/>
<path fill-rule="evenodd" clip-rule="evenodd" d="M167.168 246.575C167.291 246.457 167.373 246.207 167.589 246.271C167.935 246.293 167.941 246.869 167.594 246.893C167.371 246.955 167.288 246.7 167.168 246.575Z" fill="#2A2651"/>
<path fill-rule="evenodd" clip-rule="evenodd" d="M186.312 246.269C186.708 245.988 187.134 246.677 186.698 246.896C186.309 247.175 185.905 246.496 186.312 246.269Z" fill="#2A2651"/>
<path fill-rule="evenodd" clip-rule="evenodd" d="M384.797 251.602C386.046 251.346 387.406 251.629 388.427 252.399C389.856 253.438 390.571 255.344 390.15 257.062C389.73 259.062 387.806 260.622 385.751 260.578C383.839 260.643 382.003 259.323 381.411 257.518C380.819 255.815 381.341 253.782 382.734 252.618C383.315 252.106 384.037 251.757 384.797 251.602Z" fill="#2A2651"/>
<path fill-rule="evenodd" clip-rule="evenodd" d="M422.836 251.93C424.045 251.697 425.357 251.994 426.312 252.785C427.806 253.948 428.295 256.171 427.458 257.865C426.665 259.577 424.63 260.584 422.784 260.154C420.903 259.792 419.404 257.989 419.469 256.067C419.384 254.108 420.915 252.274 422.836 251.93Z" fill="#2A2651"/>
<path fill-rule="evenodd" clip-rule="evenodd" d="M403.927 252.265C404.751 252.124 405.628 252.202 406.385 252.577C407.444 253.085 408.239 254.103 408.471 255.253C408.611 256.018 408.56 256.828 408.251 257.548C407.725 258.821 406.468 259.757 405.091 259.885C403.342 260.098 401.549 258.953 401.022 257.273C400.476 255.705 401.079 253.826 402.461 252.892C402.894 252.578 403.401 252.372 403.927 252.265Z" fill="#2A2651"/>
<path fill-rule="evenodd" clip-rule="evenodd" d="M394.536 252.381C395.714 252.172 396.98 252.542 397.828 253.393C398.98 254.497 399.265 256.363 398.518 257.768C397.967 258.829 396.883 259.6 395.69 259.741C394.115 259.975 392.465 259.068 391.813 257.622C391.341 256.594 391.349 255.352 391.879 254.346C392.392 253.323 393.407 252.577 394.536 252.381Z" fill="#2A2651"/>
<path fill-rule="evenodd" clip-rule="evenodd" d="M441.962 252.594C443.134 252.369 444.412 252.765 445.216 253.655C446.489 254.957 446.452 257.255 445.139 258.516C443.901 259.84 441.621 259.906 440.293 258.682C438.967 257.558 438.723 255.422 439.747 254.025C440.27 253.291 441.071 252.759 441.962 252.594Z" fill="#2A2651"/>
<path fill-rule="evenodd" clip-rule="evenodd" d="M375.846 254.248C376.751 254.039 377.758 254.621 377.995 255.525C378.312 256.482 377.669 257.614 376.678 257.826C375.771 258.071 374.741 257.518 374.481 256.613C374.119 255.621 374.807 254.437 375.846 254.248Z" fill="#2A2651"/>
<path fill-rule="evenodd" clip-rule="evenodd" d="M470.599 254.359C471.488 254.085 472.513 254.625 472.769 255.52C473.085 256.427 472.501 257.515 471.562 257.741C470.585 258.045 469.449 257.32 469.351 256.298C469.206 255.455 469.769 254.574 470.599 254.359Z" fill="#2A2651"/>
<path fill-rule="evenodd" clip-rule="evenodd" d="M176.816 254.461C177.749 254.306 178.673 255.12 178.634 256.063C178.649 257.002 177.709 257.81 176.778 257.628C175.947 257.519 175.31 256.673 175.441 255.846C175.504 255.14 176.112 254.54 176.816 254.461Z" fill="#2A2651"/>
<path fill-rule="evenodd" clip-rule="evenodd" d="M167.522 254.573C168.498 254.53 169.286 255.598 168.94 256.511C168.699 257.323 167.705 257.74 166.943 257.392C166.275 257.114 165.908 256.302 166.133 255.618C166.307 255.017 166.898 254.583 167.522 254.573Z" fill="#2A2651"/>
<path fill-rule="evenodd" clip-rule="evenodd" d="M413.857 255.102C414.48 254.889 415.22 255.391 415.164 256.067C415.206 256.808 414.272 257.311 413.661 256.904C412.941 256.525 413.064 255.311 413.857 255.102Z" fill="#2A2651"/>
<path fill-rule="evenodd" clip-rule="evenodd" d="M461.309 255.23C461.895 255 462.587 255.556 462.461 256.18C462.396 256.795 461.605 257.123 461.11 256.766C460.533 256.405 460.656 255.431 461.309 255.23Z" fill="#2A2651"/>
<path fill-rule="evenodd" clip-rule="evenodd" d="M433.013 255.351C433.524 255.228 434.004 255.779 433.82 256.272C433.666 256.84 432.779 256.913 432.524 256.393C432.277 255.995 432.551 255.421 433.013 255.351Z" fill="#2A2651"/>
<path fill-rule="evenodd" clip-rule="evenodd" d="M138.888 255.785C139.218 255.555 139.585 256.037 139.296 256.297C138.974 256.564 138.554 256.037 138.888 255.785Z" fill="#2A2651"/>
<path fill-rule="evenodd" clip-rule="evenodd" d="M413.166 261.167C415.041 260.701 417.15 261.622 418.069 263.32C419.09 265.06 418.712 267.467 417.195 268.803C416.642 269.338 415.925 269.632 415.218 269.898C417.046 270.286 418.627 271.69 419.139 273.496C419.742 275.448 419.057 277.715 417.449 278.986C415.743 280.412 413.1 280.528 411.273 279.263C409.593 278.158 408.687 276.017 409.079 274.047C409.425 271.965 411.187 270.225 413.272 269.884C411.336 269.518 409.786 267.742 409.714 265.773C409.538 263.665 411.095 261.599 413.166 261.167Z" fill="#2A2651"/>
<path fill-rule="evenodd" clip-rule="evenodd" d="M422.844 261.098C424.66 260.745 426.626 261.633 427.54 263.241C428.608 264.989 428.251 267.44 426.718 268.804C425.166 270.296 422.522 270.394 420.86 269.029C419.365 267.871 418.76 265.732 419.436 263.967C419.962 262.503 421.306 261.364 422.844 261.098Z" fill="#2A2651"/>
<path fill-rule="evenodd" clip-rule="evenodd" d="M442.409 261.527C444.314 261.385 446.178 262.795 446.54 264.669C446.943 266.393 446.031 268.312 444.428 269.076C443.318 269.644 441.942 269.635 440.831 269.078C439.82 268.565 439.031 267.615 438.762 266.512C438.369 265.038 438.904 263.371 440.103 262.42C440.75 261.887 441.571 261.58 442.409 261.527Z" fill="#2A2651"/>
<path fill-rule="evenodd" clip-rule="evenodd" d="M451.351 261.518C452.579 261.283 453.912 261.634 454.838 262.482C456.04 263.519 456.491 265.29 455.989 266.786C455.684 267.734 455.008 268.555 454.141 269.046C452.929 269.742 451.351 269.749 450.132 269.066C448.67 268.281 447.818 266.544 448.088 264.911C448.307 263.24 449.688 261.807 451.351 261.518Z" fill="#2A2651"/>
<path fill-rule="evenodd" clip-rule="evenodd" d="M404.045 261.867C405.012 261.707 406.042 261.917 406.84 262.496C407.79 263.156 408.378 264.287 408.397 265.439C408.444 266.914 407.511 268.356 406.142 268.917C405.06 269.375 403.754 269.29 402.754 268.671C402.188 268.33 401.725 267.828 401.412 267.25C400.822 266.157 400.843 264.764 401.458 263.686C402 262.743 402.963 262.043 404.045 261.867Z" fill="#2A2651"/>
<path fill-rule="evenodd" clip-rule="evenodd" d="M166.983 263.514C167.483 263.41 168.035 263.419 168.494 263.669C169.121 263.982 169.565 264.634 169.607 265.336C169.702 266.234 169.133 267.155 168.275 267.452C167.239 267.865 165.949 267.286 165.592 266.228C165.16 265.14 165.845 263.797 166.983 263.514Z" fill="#2A2651"/>
<path fill-rule="evenodd" clip-rule="evenodd" d="M432.658 263.499C433.445 263.32 434.333 263.6 434.811 264.267C435.433 265.08 435.332 266.357 434.552 267.035C433.799 267.768 432.469 267.763 431.724 267.023C431.003 266.384 430.869 265.221 431.38 264.417C431.666 263.963 432.127 263.615 432.658 263.499Z" fill="#2A2651"/>
<path fill-rule="evenodd" clip-rule="evenodd" d="M394.854 263.732C395.857 263.511 396.94 264.299 397.007 265.329C397.126 266.284 396.355 267.25 395.386 267.309C394.379 267.447 393.375 266.579 393.395 265.562C393.339 264.697 394.005 263.885 394.854 263.732Z" fill="#2A2651"/>
<path fill-rule="evenodd" clip-rule="evenodd" d="M157.904 263.839C158.825 263.731 159.73 264.508 159.736 265.438C159.814 266.431 158.848 267.335 157.858 267.18C156.923 267.101 156.205 266.129 156.398 265.215C156.515 264.484 157.167 263.895 157.904 263.839Z" fill="#2A2651"/>
<path fill-rule="evenodd" clip-rule="evenodd" d="M385.241 264.4C385.86 264.12 386.66 264.477 386.862 265.126C387.089 265.737 386.711 266.485 386.081 266.662C385.441 266.891 384.661 266.452 384.543 265.783C384.403 265.232 384.707 264.608 385.241 264.4Z" fill="#2A2651"/>
<path fill-rule="evenodd" clip-rule="evenodd" d="M148.268 264.702C148.813 264.476 149.497 264.945 149.43 265.543C149.457 266.218 148.56 266.629 148.05 266.201C147.505 265.839 147.64 264.894 148.268 264.702Z" fill="#2A2651"/>
<path fill-rule="evenodd" clip-rule="evenodd" d="M461.526 265.159C461.755 265.105 462.023 265.299 461.966 265.553C461.963 265.917 461.37 266.002 461.271 265.656C461.148 265.459 461.31 265.188 461.526 265.159Z" fill="#2A2651"/>
<path fill-rule="evenodd" clip-rule="evenodd" d="M451.149 270.92C451.993 270.726 452.902 270.786 453.707 271.117C454.915 271.599 455.858 272.688 456.17 273.948C456.609 275.601 455.909 277.482 454.474 278.425C452.806 279.605 450.286 279.292 448.968 277.727C447.668 276.291 447.59 273.946 448.801 272.433C449.378 271.679 450.219 271.131 451.149 270.92Z" fill="#2A2651"/>
<path fill-rule="evenodd" clip-rule="evenodd" d="M432.461 271.019C434.24 270.684 436.146 271.711 436.842 273.379C437.266 274.362 437.275 275.518 436.866 276.509C436.374 277.723 435.247 278.664 433.956 278.907C432.282 279.284 430.429 278.432 429.625 276.921C428.762 275.416 429.041 273.37 430.281 272.154C430.866 271.562 431.639 271.161 432.461 271.019Z" fill="#2A2651"/>
<path fill-rule="evenodd" clip-rule="evenodd" d="M442.076 271.027C443.355 270.836 444.708 271.326 445.58 272.277C446.853 273.615 446.979 275.846 445.87 277.321C444.893 278.708 442.981 279.316 441.377 278.766C440.167 278.375 439.174 277.368 438.811 276.153C438.343 274.67 438.83 272.941 440.032 271.945C440.606 271.45 441.324 271.131 442.076 271.027Z" fill="#2A2651"/>
<path fill-rule="evenodd" clip-rule="evenodd" d="M423.165 271.123C424.88 270.875 426.669 271.924 427.28 273.544C427.75 274.734 427.6 276.158 426.85 277.203C426.243 278.073 425.267 278.683 424.21 278.819C422.716 279.056 421.14 278.316 420.354 277.033C419.658 275.928 419.579 274.468 420.15 273.295C420.702 272.126 421.876 271.275 423.165 271.123Z" fill="#2A2651"/>
<path fill-rule="evenodd" clip-rule="evenodd" d="M147.955 271.996C149.015 271.792 150.172 272.145 150.872 272.978C151.924 274.129 151.845 276.096 150.7 277.158C149.629 278.251 147.701 278.308 146.571 277.275C145.745 276.584 145.367 275.438 145.578 274.389C145.792 273.209 146.777 272.22 147.955 271.996Z" fill="#2A2651"/>
<path fill-rule="evenodd" clip-rule="evenodd" d="M157.469 272.23C158.151 272.096 158.886 272.197 159.488 272.555C160.348 273.059 160.916 274.043 160.861 275.047C160.874 276.31 159.883 277.479 158.649 277.72C157.732 277.929 156.719 277.628 156.061 276.959C155.342 276.246 155.053 275.129 155.364 274.164C155.639 273.196 156.485 272.43 157.469 272.23Z" fill="#2A2651"/>
<path fill-rule="evenodd" clip-rule="evenodd" d="M461.532 272.664C462.337 272.64 463.147 273.06 463.566 273.753C464.097 274.58 464.011 275.747 463.357 276.483C462.638 277.361 461.238 277.542 460.311 276.893C459.467 276.35 459.083 275.229 459.395 274.282C459.663 273.356 460.574 272.694 461.532 272.664Z" fill="#2A2651"/>
<path fill-rule="evenodd" clip-rule="evenodd" d="M394.86 273.764C395.656 273.508 396.55 274.218 396.459 275.052C396.451 275.848 395.554 276.454 394.809 276.175C394.057 275.957 393.707 274.995 394.111 274.337C394.272 274.058 394.549 273.854 394.86 273.764Z" fill="#2A2651"/>
<path fill-rule="evenodd" clip-rule="evenodd" d="M404.353 273.761C405.183 273.504 406.092 274.283 405.94 275.142C405.859 276.098 404.57 276.595 403.869 275.936C403.105 275.345 403.4 273.968 404.353 273.761Z" fill="#2A2651"/>
<path fill-rule="evenodd" clip-rule="evenodd" d="M139.003 274.536C139.381 274.447 139.667 274.909 139.465 275.225C139.271 275.557 138.667 275.436 138.65 275.041C138.602 274.811 138.769 274.567 139.003 274.536Z" fill="#2A2651"/>
<path fill-rule="evenodd" clip-rule="evenodd" d="M432.569 280.176C434.568 279.867 436.656 281.169 437.245 283.102C437.895 284.977 437.037 287.225 435.288 288.178C433.524 289.219 431.046 288.77 429.788 287.146C428.517 285.627 428.525 283.231 429.804 281.718C430.484 280.878 431.495 280.318 432.569 280.176Z" fill="#2A2651"/>
<path fill-rule="evenodd" clip-rule="evenodd" d="M422.822 280.489C424.005 280.245 425.296 280.537 426.229 281.315C427.743 282.504 428.157 284.817 427.17 286.464C426.257 288.106 424.121 288.907 422.352 288.266C420.543 287.698 419.345 285.73 419.652 283.866C419.864 282.225 421.191 280.804 422.822 280.489Z" fill="#2A2651"/>
<path fill-rule="evenodd" clip-rule="evenodd" d="M441.846 280.827C443.091 280.548 444.463 280.967 445.332 281.903C446.373 282.977 446.633 284.701 445.978 286.042C445.509 287.013 444.599 287.773 443.548 288.027C442.413 288.312 441.153 288.042 440.257 287.287C439.021 286.298 438.59 284.479 439.201 283.028C439.656 281.926 440.67 281.064 441.846 280.827Z" fill="#2A2651"/>
<path fill-rule="evenodd" clip-rule="evenodd" d="M413.989 281.163C414.772 281.123 415.572 281.365 416.192 281.851C417.195 282.608 417.681 283.979 417.371 285.196C417.16 286.15 416.48 286.98 415.599 287.399C414.255 288.065 412.482 287.662 411.581 286.462C410.833 285.527 410.678 284.176 411.177 283.092C411.661 281.993 412.787 281.223 413.989 281.163Z" fill="#2A2651"/>
<path fill-rule="evenodd" clip-rule="evenodd" d="M451.247 281.386C452.348 281.062 453.613 281.401 454.403 282.232C455.003 282.834 455.325 283.689 455.295 284.535C455.275 285.629 454.639 286.694 453.67 287.212C453.015 287.595 452.221 287.683 451.482 287.553C450.494 287.356 449.612 286.668 449.212 285.743C448.84 284.914 448.84 283.933 449.229 283.111C449.604 282.277 450.365 281.633 451.247 281.386Z" fill="#2A2651"/>
<path fill-rule="evenodd" clip-rule="evenodd" d="M148.4 282.371C149.36 282.281 150.331 282.943 150.569 283.88C150.821 284.727 150.454 285.721 149.695 286.184C149.13 286.554 148.378 286.608 147.759 286.35C146.958 286.029 146.43 285.167 146.501 284.311C146.531 283.307 147.404 282.441 148.4 282.371Z" fill="#2A2651"/>
<path fill-rule="evenodd" clip-rule="evenodd" d="M138.563 282.49C139.51 282.229 140.586 282.739 140.951 283.655C141.22 284.293 141.139 285.074 140.723 285.635C140.243 286.307 139.321 286.623 138.528 286.382C137.677 286.159 137.024 285.313 137.079 284.427C137.029 283.533 137.707 282.704 138.563 282.49Z" fill="#2A2651"/>
<path fill-rule="evenodd" clip-rule="evenodd" d="M404.361 283.143C405.204 282.901 406.12 283.652 406.022 284.528C406.01 285.35 405.109 285.972 404.332 285.731C403.595 285.551 403.143 284.675 403.43 283.974C403.576 283.565 403.937 283.245 404.361 283.143Z" fill="#2A2651"/>
<path fill-rule="evenodd" clip-rule="evenodd" d="M461.528 284.134C461.899 284.031 462.079 284.624 461.711 284.746C461.301 284.892 461.104 284.226 461.528 284.134Z" fill="#2A2651"/>
<path fill-rule="evenodd" clip-rule="evenodd" d="M432.334 289.439C433.527 289.244 434.802 289.488 435.787 290.208C437.261 291.223 438 293.165 437.584 294.903C437.171 296.907 435.241 298.478 433.182 298.435C431.241 298.504 429.382 297.147 428.816 295.301C428.241 293.581 428.822 291.55 430.242 290.413C430.835 289.909 431.568 289.577 432.334 289.439Z" fill="#2A2651"/>
<path fill-rule="evenodd" clip-rule="evenodd" d="M441.956 289.656C443.769 289.343 445.703 290.332 446.497 291.99C447.099 293.2 447.085 294.697 446.46 295.895C445.977 296.82 445.147 297.563 444.168 297.931C442.483 298.584 440.421 298.053 439.294 296.635C438.129 295.258 437.995 293.138 438.973 291.624C439.62 290.58 440.735 289.837 441.956 289.656Z" fill="#2A2651"/>
<path fill-rule="evenodd" clip-rule="evenodd" d="M423.27 290.649C424.258 290.526 425.294 290.885 425.995 291.591C426.462 292.074 426.796 292.693 426.901 293.361C427.141 294.647 426.504 296.038 425.376 296.707C424.107 297.504 422.305 297.278 421.283 296.179C420.436 295.301 420.14 293.942 420.565 292.797C420.959 291.642 422.057 290.781 423.27 290.649Z" fill="#2A2651"/>
<path fill-rule="evenodd" clip-rule="evenodd" d="M451.568 291.962C452.489 291.689 453.568 292.168 453.953 293.053C454.442 294.027 453.958 295.334 452.948 295.751C451.97 296.209 450.679 295.737 450.269 294.732C449.753 293.661 450.405 292.243 451.568 291.962Z" fill="#2A2651"/>
<path fill-rule="evenodd" clip-rule="evenodd" d="M470.826 292.756C471.452 292.6 472.147 293.037 472.249 293.679C472.416 294.369 471.817 295.107 471.106 295.084C470.507 295.11 469.958 294.616 469.913 294.025C469.838 293.452 470.255 292.866 470.826 292.756Z" fill="#2A2651"/>
<path fill-rule="evenodd" clip-rule="evenodd" d="M139.007 292.853C139.594 292.803 140.15 293.316 140.139 293.908C140.154 294.51 139.569 295.042 138.965 294.946C138.399 294.903 137.956 294.341 138.044 293.782C138.08 293.283 138.521 292.896 139.007 292.853Z" fill="#2A2651"/>
<path fill-rule="evenodd" clip-rule="evenodd" d="M414.094 293.069C414.747 292.97 415.249 293.76 414.909 294.316C414.633 294.855 413.793 294.891 413.475 294.379C413.106 293.886 413.479 293.1 414.094 293.069Z" fill="#2A2651"/>
<path fill-rule="evenodd" clip-rule="evenodd" d="M480.303 293.165C480.901 292.925 481.555 293.564 481.323 294.162C481.157 294.75 480.265 294.875 479.936 294.37C479.618 293.971 479.825 293.325 480.303 293.165Z" fill="#2A2651"/>
<path fill-rule="evenodd" clip-rule="evenodd" d="M129.497 293.289C129.865 293.216 130.255 293.522 130.225 293.907C130.268 294.419 129.567 294.731 129.195 294.392C128.782 294.085 128.979 293.337 129.497 293.289Z" fill="#2A2651"/>
<path fill-rule="evenodd" clip-rule="evenodd" d="M461.427 293.303C461.815 293.182 462.262 293.493 462.23 293.912C462.261 294.421 461.579 294.724 461.203 294.398C460.814 294.106 460.95 293.416 461.427 293.303Z" fill="#2A2651"/>
<path fill-rule="evenodd" clip-rule="evenodd" d="M451.591 298.943C453.441 298.695 455.37 299.748 456.151 301.442C457.036 303.229 456.532 305.573 454.962 306.815C453.311 308.224 450.622 308.142 449.064 306.632C447.616 305.33 447.239 303.043 448.14 301.33C448.796 300.025 450.135 299.101 451.591 298.943Z" fill="#2A2651"/>
<path fill-rule="evenodd" clip-rule="evenodd" d="M470.385 298.938C472.361 298.595 474.46 299.75 475.223 301.599C476.03 303.41 475.45 305.711 473.862 306.907C472.288 308.177 469.85 308.161 468.285 306.884C466.809 305.742 466.204 303.638 466.844 301.888C467.36 300.352 468.779 299.174 470.385 298.938Z" fill="#2A2651"/>
<path fill-rule="evenodd" clip-rule="evenodd" d="M460.758 299.258C461.861 299.032 463.057 299.264 463.986 299.908C464.934 300.556 465.6 301.603 465.764 302.741C466.002 304.255 465.342 305.864 464.093 306.759C462.946 307.611 461.355 307.806 460.031 307.269C458.406 306.637 457.283 304.916 457.404 303.171C457.452 301.305 458.918 299.597 460.758 299.258Z" fill="#2A2651"/>
<path fill-rule="evenodd" clip-rule="evenodd" d="M432.452 299.361C433.222 299.245 434.027 299.319 434.748 299.628C436.09 300.185 437.072 301.513 437.2 302.961C437.425 304.785 436.224 306.647 434.477 307.217C432.878 307.789 430.961 307.23 429.934 305.88C428.719 304.376 428.807 301.995 430.156 300.603C430.757 299.954 431.578 299.51 432.452 299.361Z" fill="#2A2651"/>
<path fill-rule="evenodd" clip-rule="evenodd" d="M442.078 299.606C443.194 299.45 444.377 299.789 445.206 300.559C446.364 301.592 446.76 303.352 446.174 304.784C445.77 305.813 444.889 306.637 443.84 306.982C442.899 307.288 441.841 307.225 440.953 306.787C440.004 306.337 439.278 305.466 438.977 304.465C438.711 303.554 438.785 302.544 439.208 301.691C439.749 300.585 440.852 299.77 442.078 299.606Z" fill="#2A2651"/>
<path fill-rule="evenodd" clip-rule="evenodd" d="M479.995 300.248C481.022 300.06 482.139 300.395 482.857 301.16C483.639 301.936 483.932 303.135 483.648 304.193C483.285 305.683 481.711 306.741 480.192 306.522C479.218 306.41 478.313 305.826 477.828 304.977C477.342 304.168 477.277 303.138 477.594 302.257C477.967 301.229 478.916 300.438 479.995 300.248Z" fill="#2A2651"/>
<path fill-rule="evenodd" clip-rule="evenodd" d="M119.888 302.897C120.186 302.752 120.593 302.942 120.629 303.284C120.73 303.696 120.216 304.059 119.861 303.831C119.491 303.661 119.504 303.045 119.888 302.897Z" fill="#2A2651"/>
<path fill-rule="evenodd" clip-rule="evenodd" d="M138.778 302.875C139.116 302.676 139.62 302.878 139.657 303.287C139.757 303.744 139.197 304.108 138.805 303.88C138.421 303.688 138.421 303.092 138.778 302.875Z" fill="#2A2651"/>
<path fill-rule="evenodd" clip-rule="evenodd" d="M423.379 303.017C423.629 302.81 424.057 302.972 424.099 303.296C424.17 303.615 423.8 303.933 423.499 303.786C423.177 303.69 423.13 303.21 423.379 303.017Z" fill="#2A2651"/>
<path fill-rule="evenodd" clip-rule="evenodd" d="M489.759 303.529C489.775 303.331 489.842 303.006 490.121 303.089C490.363 303.123 490.338 303.41 490.324 303.595C490.123 303.65 489.929 303.64 489.759 303.529Z" fill="#2A2651"/>
<path fill-rule="evenodd" clip-rule="evenodd" d="M110.452 303.203C110.662 302.967 111.023 303.327 110.799 303.528C110.601 303.763 110.236 303.427 110.452 303.203Z" fill="#2A2651"/>
<path fill-rule="evenodd" clip-rule="evenodd" d="M451.687 308.634C453.783 308.373 455.907 309.921 456.265 312.003C456.672 313.83 455.676 315.846 453.973 316.633C452.233 317.521 449.93 316.979 448.762 315.419C447.581 313.927 447.597 311.636 448.824 310.176C449.52 309.306 450.578 308.744 451.687 308.634Z" fill="#2A2651"/>
<path fill-rule="evenodd" clip-rule="evenodd" d="M480.112 308.637C482.027 308.393 483.997 309.633 484.583 311.471C485.209 313.216 484.511 315.312 482.957 316.33C481.256 317.537 478.693 317.201 477.365 315.594C476.083 314.16 476.004 311.846 477.169 310.32C477.858 309.382 478.951 308.756 480.112 308.637Z" fill="#2A2651"/>
<path fill-rule="evenodd" clip-rule="evenodd" d="M442.406 308.746C444.406 308.597 446.359 310.12 446.666 312.104C447.048 313.968 445.916 315.987 444.132 316.648C442.401 317.354 440.247 316.696 439.23 315.129C438.182 313.631 438.332 311.442 439.576 310.102C440.287 309.294 441.332 308.808 442.406 308.746Z" fill="#2A2651"/>
<path fill-rule="evenodd" clip-rule="evenodd" d="M460.969 308.738C462.811 308.426 464.772 309.519 465.449 311.261C466.196 312.998 465.554 315.189 463.978 316.24C462.34 317.422 459.852 317.15 458.525 315.624C457.216 314.237 457.089 311.933 458.233 310.41C458.877 309.52 459.876 308.896 460.969 308.738Z" fill="#2A2651"/>
<path fill-rule="evenodd" clip-rule="evenodd" d="M489.388 308.957C490.554 308.761 491.804 309.092 492.683 309.893C494.108 311.103 494.421 313.367 493.404 314.929C492.546 316.349 490.733 317.061 489.129 316.66C487.759 316.343 486.61 315.238 486.258 313.879C485.832 312.386 486.389 310.678 487.628 309.734C488.138 309.338 488.747 309.061 489.388 308.957Z" fill="#2A2651"/>
<path fill-rule="evenodd" clip-rule="evenodd" d="M470.368 309.179C471.53 308.971 472.792 309.289 473.647 310.122C474.804 311.165 475.151 312.97 474.49 314.376C473.976 315.541 472.818 316.393 471.549 316.529C470.411 316.683 469.216 316.269 468.421 315.443C467.357 314.394 467.062 312.684 467.67 311.33C468.146 310.23 469.186 309.398 470.368 309.179Z" fill="#2A2651"/>
<path fill-rule="evenodd" clip-rule="evenodd" d="M129.054 311.385C129.915 311.041 130.986 311.629 131.119 312.551C131.308 313.384 130.668 314.273 129.819 314.37C129.01 314.505 128.165 313.89 128.065 313.073C127.947 312.369 128.376 311.623 129.054 311.385Z" fill="#2A2651"/>
<path fill-rule="evenodd" clip-rule="evenodd" d="M138.576 312.705C138.674 312.206 139.486 312.189 139.592 312.693C139.717 313.055 139.386 313.323 139.071 313.407C138.771 313.314 138.469 313.05 138.576 312.705Z" fill="#2A2651"/>
<path fill-rule="evenodd" clip-rule="evenodd" d="M442.19 318.468C443.925 318.237 445.707 319.348 446.274 320.997C446.641 322.045 446.546 323.254 445.988 324.218C445.366 325.321 444.169 326.073 442.903 326.147C441.177 326.297 439.45 325.14 438.949 323.484C438.41 321.887 439.071 319.987 440.497 319.082C441.001 318.748 441.586 318.537 442.19 318.468Z" fill="#2A2651"/>
<path fill-rule="evenodd" clip-rule="evenodd" d="M461.312 318.453C462.983 318.302 464.671 319.374 465.229 320.957C465.587 321.93 465.54 323.051 465.084 323.986C464.568 325.054 463.535 325.86 462.365 326.081C460.708 326.444 458.889 325.561 458.152 324.039C457.505 322.782 457.629 321.168 458.475 320.033C459.13 319.126 460.191 318.531 461.312 318.453Z" fill="#2A2651"/>
<path fill-rule="evenodd" clip-rule="evenodd" d="M432.566 318.566C434.351 318.253 436.236 319.413 436.752 321.145C437.325 322.83 436.512 324.846 434.913 325.643C433.796 326.241 432.377 326.221 431.279 325.591C430.294 325.043 429.581 324.03 429.412 322.918C429.155 321.51 429.802 319.991 430.99 319.192C431.458 318.868 432.001 318.653 432.566 318.566Z" fill="#2A2651"/>
<path fill-rule="evenodd" clip-rule="evenodd" d="M451.348 319.219C452.342 318.977 453.455 319.226 454.22 319.916C454.919 320.523 455.327 321.447 455.296 322.373C455.289 323.472 454.645 324.531 453.687 325.065C453.01 325.463 452.183 325.546 451.424 325.4C450.221 325.148 449.223 324.132 449 322.927C448.628 321.324 449.74 319.576 451.348 319.219Z" fill="#2A2651"/>
<path fill-rule="evenodd" clip-rule="evenodd" d="M129.164 321.431C129.801 321.09 130.671 321.647 130.563 322.378C130.561 323.167 129.462 323.562 128.93 323.006C128.431 322.576 128.575 321.703 129.164 321.431Z" fill="#2A2651"/>
<path fill-rule="evenodd" clip-rule="evenodd" d="M413.761 321.42C414.399 321.1 415.231 321.653 415.145 322.372C415.134 323.123 414.146 323.534 413.579 323.073C413.015 322.665 413.114 321.69 413.761 321.42Z" fill="#2A2651"/>
<path fill-rule="evenodd" clip-rule="evenodd" d="M110.347 321.731C110.771 321.508 111.345 321.893 111.249 322.377C111.221 322.857 110.599 323.092 110.239 322.798C109.872 322.538 109.943 321.915 110.347 321.731Z" fill="#2A2651"/>
<path fill-rule="evenodd" clip-rule="evenodd" d="M432.788 327.502C434.465 327.343 436.174 328.273 436.941 329.77C437.61 331.037 437.592 332.647 436.868 333.888C436.374 334.763 435.557 335.447 434.612 335.786C433.042 336.365 431.145 335.937 430.02 334.689C428.6 333.248 428.479 330.776 429.724 329.188C430.443 328.225 431.587 327.598 432.788 327.502Z" fill="#2A2651"/>
<path fill-rule="evenodd" clip-rule="evenodd" d="M451.911 327.936C453.548 327.828 455.175 328.885 455.718 330.434C456.122 331.527 456.001 332.811 455.374 333.8C454.919 334.523 454.215 335.093 453.406 335.375C451.669 336.028 449.557 335.206 448.719 333.557C448.089 332.376 448.141 330.866 448.858 329.734C449.503 328.685 450.681 328 451.911 327.936Z" fill="#2A2651"/>
<path fill-rule="evenodd" clip-rule="evenodd" d="M423.609 329.376C424.522 329.352 425.423 329.894 425.813 330.723C426.283 331.647 426.041 332.863 425.258 333.543C424.5 334.245 423.273 334.35 422.403 333.8C421.498 333.269 421.05 332.096 421.363 331.098C421.623 330.111 422.591 329.389 423.609 329.376Z" fill="#2A2651"/>
<path fill-rule="evenodd" clip-rule="evenodd" d="M119.656 330.592C120.435 330.253 121.405 330.903 121.371 331.752C121.42 332.574 120.507 333.25 119.734 332.965C119.049 332.774 118.663 331.949 118.94 331.299C119.064 330.976 119.332 330.712 119.656 330.592Z" fill="#2A2651"/>
<path fill-rule="evenodd" clip-rule="evenodd" d="M139.005 330.583C139.863 330.495 140.567 331.502 140.155 332.27C139.81 333.127 138.454 333.167 138.051 332.34C137.612 331.625 138.167 330.61 139.005 330.583Z" fill="#2A2651"/>
<path fill-rule="evenodd" clip-rule="evenodd" d="M470.929 330.915C471.568 330.764 472.165 331.48 471.897 332.081C471.69 332.681 470.813 332.816 470.423 332.324C470.002 331.854 470.287 330.998 470.929 330.915Z" fill="#2A2651"/>
<path fill-rule="evenodd" clip-rule="evenodd" d="M404.686 331.023C405.282 331.001 405.661 331.79 405.255 332.231C404.937 332.658 404.2 332.55 404.012 332.058C403.788 331.593 404.175 331.014 404.686 331.023Z" fill="#2A2651"/>
<path fill-rule="evenodd" clip-rule="evenodd" d="M129.369 331.234C129.715 331.077 130.156 331.331 130.177 331.714C130.231 332.13 129.735 332.484 129.357 332.29C128.912 332.117 128.919 331.396 129.369 331.234Z" fill="#2A2651"/>
<path fill-rule="evenodd" clip-rule="evenodd" d="M442.388 331.326C442.69 331.142 443.144 331.384 443.121 331.749C443.182 332.137 442.667 332.409 442.364 332.184C442.043 332.007 442.063 331.485 442.388 331.326Z" fill="#2A2651"/>
<path fill-rule="evenodd" clip-rule="evenodd" d="M461.401 331.553C461.661 331.303 462.069 331.709 461.817 331.962C461.576 332.265 461.098 331.801 461.401 331.553Z" fill="#2A2651"/>
<path fill-rule="evenodd" clip-rule="evenodd" d="M413.428 337.097C414.525 336.914 415.698 337.145 416.605 337.8C418.081 338.803 418.737 340.794 418.19 342.484C417.818 343.693 416.861 344.709 415.674 345.155C414.039 345.794 412.035 345.281 410.933 343.912C409.785 342.569 409.65 340.49 410.603 339.006C411.225 338.015 412.27 337.295 413.428 337.097Z" fill="#2A2651"/>
<path fill-rule="evenodd" clip-rule="evenodd" d="M423.281 337.101C424.955 336.924 426.664 337.885 427.391 339.399C428.04 340.701 427.93 342.351 427.104 343.553C426.152 345.006 424.228 345.712 422.559 345.228C420.757 344.773 419.418 342.976 419.514 341.123C419.502 339.079 421.243 337.241 423.281 337.101Z" fill="#2A2651"/>
<path fill-rule="evenodd" clip-rule="evenodd" d="M441.964 337.321C442.782 337.204 443.64 337.3 444.385 337.673C445.374 338.154 446.149 339.067 446.445 340.129C446.819 341.394 446.509 342.838 445.632 343.83C444.616 345.026 442.856 345.503 441.373 344.986C440.295 344.639 439.396 343.798 438.964 342.756C438.498 341.619 438.577 340.259 439.218 339.206C439.792 338.21 440.833 337.514 441.964 337.321Z" fill="#2A2651"/>
<path fill-rule="evenodd" clip-rule="evenodd" d="M460.965 337.53C462.098 337.338 463.307 337.682 464.152 338.464C465.287 339.482 465.674 341.222 465.094 342.63C464.73 343.544 463.982 344.303 463.073 344.684C461.872 345.196 460.403 345.034 459.36 344.244C458.131 343.358 457.567 341.699 457.974 340.245C458.328 338.86 459.551 337.756 460.965 337.53Z" fill="#2A2651"/>
<path fill-rule="evenodd" clip-rule="evenodd" d="M385.577 338.422C386.477 338.38 387.39 338.788 387.94 339.506C388.659 340.4 388.716 341.75 388.106 342.716C387.561 343.617 386.471 344.141 385.427 344.019C384.503 343.94 383.647 343.359 383.227 342.538C382.756 341.665 382.802 340.544 383.347 339.715C383.822 338.953 384.683 338.467 385.577 338.422Z" fill="#2A2651"/>
<path fill-rule="evenodd" clip-rule="evenodd" d="M167.205 339.851C167.982 339.644 168.85 340.211 168.944 341.014C169.11 341.858 168.345 342.7 167.491 342.649C166.75 342.637 166.108 341.976 166.124 341.235C166.107 340.596 166.583 339.993 167.205 339.851Z" fill="#2A2651"/>
<path fill-rule="evenodd" clip-rule="evenodd" d="M148.412 340.513C148.944 340.366 149.478 340.959 149.268 341.466C149.127 341.966 148.416 342.138 148.059 341.761C147.629 341.389 147.854 340.606 148.412 340.513Z" fill="#2A2651"/>
<path fill-rule="evenodd" clip-rule="evenodd" d="M451.903 340.835C452.227 340.651 452.671 340.977 452.549 341.344C452.485 341.713 451.899 341.788 451.734 341.462C451.587 341.249 451.684 340.953 451.903 340.835Z" fill="#2A2651"/>
<path fill-rule="evenodd" clip-rule="evenodd" d="M432.969 341.038C433.211 340.911 433.508 341.126 433.338 341.385C433.104 341.619 432.76 341.277 432.969 341.038Z" fill="#2A2651"/>
<path fill-rule="evenodd" clip-rule="evenodd" d="M404.036 346.254C405.846 345.969 407.756 346.91 408.625 348.52C409.595 350.222 409.269 352.543 407.84 353.894C406.372 355.398 403.81 355.604 402.111 354.372C400.491 353.286 399.782 351.088 400.428 349.256C400.941 347.684 402.395 346.477 404.036 346.254Z" fill="#2A2651"/>
<path fill-rule="evenodd" clip-rule="evenodd" d="M394.528 347.136C395.471 346.969 396.486 347.159 397.272 347.719C398.309 348.42 398.917 349.689 398.821 350.936C398.749 352.405 397.675 353.755 396.259 354.16C394.949 354.573 393.43 354.154 392.516 353.134C391.46 352.006 391.274 350.189 392.068 348.867C392.582 347.967 393.508 347.325 394.528 347.136Z" fill="#2A2651"/>
<path fill-rule="evenodd" clip-rule="evenodd" d="M422.837 347.926C423.718 347.673 424.716 347.846 425.44 348.415C426.363 349.112 426.768 350.392 426.44 351.498C426.232 352.222 425.729 352.853 425.069 353.217C424.081 353.778 422.761 353.681 421.878 352.967C421.027 352.33 420.614 351.192 420.821 350.157C420.999 349.111 421.815 348.214 422.837 347.926Z" fill="#2A2651"/>
<path fill-rule="evenodd" clip-rule="evenodd" d="M413.77 348.021C414.634 347.884 415.553 348.202 416.15 348.843C416.776 349.506 417.043 350.501 416.793 351.385C416.52 352.507 415.439 353.386 414.275 353.381C413.454 353.435 412.628 353.07 412.106 352.44C411.32 351.55 411.259 350.126 411.941 349.162C412.353 348.545 413.039 348.136 413.77 348.021Z" fill="#2A2651"/>
<path fill-rule="evenodd" clip-rule="evenodd" d="M385.241 348.353C386.053 348.192 386.943 348.466 387.49 349.095C388.288 349.925 388.309 351.345 387.561 352.216C386.908 353.05 385.665 353.31 384.714 352.863C383.849 352.483 383.272 351.547 383.333 350.606C383.332 349.528 384.185 348.547 385.241 348.353Z" fill="#2A2651"/>
<path fill-rule="evenodd" clip-rule="evenodd" d="M204.902 348.679C206.034 348.315 207.346 349.11 207.549 350.278C207.79 351.343 207.056 352.506 205.982 352.734C204.852 353.049 203.579 352.218 203.418 351.061C203.205 350.038 203.893 348.944 204.902 348.679Z" fill="#2A2651"/>
<path fill-rule="evenodd" clip-rule="evenodd" d="M186.207 349.443C186.871 349.272 187.615 349.707 187.764 350.379C187.928 351.003 187.559 351.717 186.932 351.909C186.306 352.136 185.525 351.797 185.313 351.156C185.02 350.469 185.474 349.594 186.207 349.443Z" fill="#2A2651"/>
<path fill-rule="evenodd" clip-rule="evenodd" d="M432.869 350.098C433.271 349.925 433.789 350.197 433.806 350.651C433.855 351.169 433.202 351.554 432.78 351.24C432.353 350.986 432.415 350.285 432.869 350.098Z" fill="#2A2651"/>
<path fill-rule="evenodd" clip-rule="evenodd" d="M451.898 350.1C452.341 349.929 452.852 350.359 452.731 350.826C452.662 351.292 451.994 351.492 451.681 351.142C451.347 350.852 451.473 350.23 451.898 350.1Z" fill="#2A2651"/>
<path fill-rule="evenodd" clip-rule="evenodd" d="M366.543 350.209C366.882 350.06 367.321 350.35 367.271 350.731C367.265 351.117 366.758 351.358 366.449 351.127C366.103 350.925 366.164 350.336 366.543 350.209Z" fill="#2A2651"/>
<path fill-rule="evenodd" clip-rule="evenodd" d="M214.585 350.531C214.746 350.412 214.957 350.23 215.163 350.373C215.503 350.547 215.308 351.13 214.93 351.055C214.648 351.053 214.609 350.742 214.585 350.531Z" fill="#2A2651"/>
<path fill-rule="evenodd" clip-rule="evenodd" d="M357.036 350.309C357.28 350.145 357.652 350.315 357.694 350.608C357.785 350.93 357.402 351.26 357.096 351.11C356.75 351.012 356.717 350.457 357.036 350.309Z" fill="#2A2651"/>
<path fill-rule="evenodd" clip-rule="evenodd" d="M167.388 350.404C167.538 350.382 167.729 350.353 167.807 350.527C168.013 350.775 167.636 351.153 167.384 350.97C167.161 350.845 167.196 350.534 167.388 350.404Z" fill="#2A2651"/>
<path fill-rule="evenodd" clip-rule="evenodd" d="M176.83 350.548C177.01 350.315 177.403 350.573 177.23 350.828C177.049 351.087 176.654 350.806 176.83 350.548Z" fill="#2A2651"/>
<path fill-rule="evenodd" clip-rule="evenodd" d="M442.484 350.515C442.668 350.315 443.014 350.643 442.82 350.84C442.626 351.13 442.198 350.702 442.484 350.515Z" fill="#2A2651"/>
<path fill-rule="evenodd" clip-rule="evenodd" d="M385.347 355.632C387.37 355.436 389.411 356.765 390.026 358.701C390.688 360.557 389.958 362.787 388.318 363.885C386.647 365.086 384.158 364.936 382.658 363.52C381.219 362.265 380.773 360.067 381.547 358.335C382.191 356.827 383.709 355.753 385.347 355.632Z" fill="#2A2651"/>
<path fill-rule="evenodd" clip-rule="evenodd" d="M375.291 355.851C377.09 355.445 379.087 356.285 380.017 357.881C381.099 359.608 380.75 362.052 379.224 363.408C377.716 364.839 375.174 364.953 373.544 363.663C371.989 362.521 371.389 360.302 372.127 358.527C372.647 357.182 373.877 356.144 375.291 355.851Z" fill="#2A2651"/>
<path fill-rule="evenodd" clip-rule="evenodd" d="M404.48 355.963C406.146 355.86 407.803 356.858 408.497 358.37C409.097 359.63 409.011 361.187 408.268 362.37C407.286 364.021 405.094 364.788 403.291 364.121C401.397 363.495 400.156 361.399 400.544 359.442C400.832 357.551 402.564 356.025 404.48 355.963Z" fill="#2A2651"/>
<path fill-rule="evenodd" clip-rule="evenodd" d="M365.997 356.617C367.182 356.359 368.488 356.744 369.332 357.618C370.419 358.682 370.681 360.453 369.984 361.797C369.468 362.819 368.443 363.575 367.303 363.734C366.136 363.925 364.896 363.504 364.094 362.639C363.041 361.546 362.818 359.778 363.542 358.451C364.04 357.52 364.959 356.825 365.997 356.617Z" fill="#2A2651"/>
<path fill-rule="evenodd" clip-rule="evenodd" d="M318.667 357.944C319.569 357.672 320.617 358.01 321.172 358.776C321.862 359.666 321.753 361.065 320.918 361.827C320.197 362.534 318.998 362.665 318.135 362.148C317.255 361.645 316.792 360.52 317.084 359.549C317.287 358.787 317.9 358.15 318.667 357.944Z" fill="#2A2651"/>
<path fill-rule="evenodd" clip-rule="evenodd" d="M309.489 358.596C310.35 358.389 311.285 359.009 311.411 359.886C311.598 360.793 310.844 361.751 309.91 361.755C309.047 361.83 308.227 361.082 308.238 360.217C308.177 359.463 308.746 358.732 309.489 358.596Z" fill="#2A2651"/>
<path fill-rule="evenodd" clip-rule="evenodd" d="M205.108 358.819C205.888 358.582 206.805 359.157 206.858 359.986C207.018 360.856 206.17 361.691 205.301 361.531C204.426 361.466 203.859 360.453 204.185 359.66C204.334 359.252 204.69 358.934 205.108 358.819Z" fill="#2A2651"/>
<path fill-rule="evenodd" clip-rule="evenodd" d="M252.564 358.947C253.473 358.642 254.43 359.595 254.129 360.502C253.923 361.411 252.635 361.73 252.017 361.042C251.333 360.424 251.672 359.159 252.564 358.947Z" fill="#2A2651"/>
<path fill-rule="evenodd" clip-rule="evenodd" d="M214.736 359.268C215.443 359.046 216.154 359.869 215.812 360.534C215.564 361.178 214.59 361.261 214.218 360.693C213.846 360.195 214.133 359.413 214.736 359.268Z" fill="#2A2651"/>
<path fill-rule="evenodd" clip-rule="evenodd" d="M328.413 359.381C328.976 359.074 329.733 359.572 329.671 360.208C329.657 360.841 328.864 361.251 328.338 360.896C327.775 360.574 327.816 359.644 328.413 359.381Z" fill="#2A2651"/>
<path fill-rule="evenodd" clip-rule="evenodd" d="M442.379 359.583C442.793 359.398 443.332 359.741 443.25 360.213C443.259 360.77 442.437 360.973 442.13 360.549C441.887 360.237 442 359.724 442.379 359.583Z" fill="#2A2651"/>
<path fill-rule="evenodd" clip-rule="evenodd" d="M243.163 359.701C243.407 359.602 243.763 359.627 243.886 359.902C244.152 360.289 243.669 360.846 243.243 360.65C242.833 360.529 242.793 359.893 243.163 359.701Z" fill="#2A2651"/>
<path fill-rule="evenodd" clip-rule="evenodd" d="M290.59 359.704C290.858 359.577 291.263 359.661 291.354 359.98C291.53 360.372 291.06 360.835 290.668 360.646C290.259 360.523 290.221 359.897 290.59 359.704Z" fill="#2A2651"/>
<path fill-rule="evenodd" clip-rule="evenodd" d="M233.741 359.791C234.086 359.562 234.532 360.025 234.313 360.365C234.166 360.652 233.698 360.653 233.572 360.351C233.448 360.159 233.548 359.89 233.741 359.791Z" fill="#2A2651"/>
<path fill-rule="evenodd" clip-rule="evenodd" d="M300.217 359.808C300.499 359.689 300.799 360.009 300.692 360.289C300.594 360.603 300.078 360.606 299.997 360.281C299.897 360.091 300.045 359.884 300.217 359.808Z" fill="#2A2651"/>
<path fill-rule="evenodd" clip-rule="evenodd" d="M224.374 359.939C224.676 359.789 224.832 360.361 224.5 360.389C224.227 360.465 224.106 360.009 224.374 359.939Z" fill="#2A2651"/>
<path fill-rule="evenodd" clip-rule="evenodd" d="M262.28 359.89C262.48 359.807 262.746 359.989 262.681 360.213C262.663 360.411 262.434 360.471 262.273 360.418C262.067 360.318 262.074 359.982 262.28 359.89Z" fill="#2A2651"/>
<path fill-rule="evenodd" clip-rule="evenodd" d="M271.859 360.473C271.442 360.425 271.537 359.895 271.866 359.785C272.263 359.849 272.322 360.502 271.859 360.473Z" fill="#2A2651"/>
<path fill-rule="evenodd" clip-rule="evenodd" d="M357.025 360.111C357.047 359.879 357.328 359.928 357.489 359.96C357.479 360.051 357.46 360.23 357.45 360.321C357.292 360.484 356.957 360.349 357.025 360.111Z" fill="#2A2651"/>
<path fill-rule="evenodd" clip-rule="evenodd" d="M394.928 360.042C395.053 359.999 395.244 359.834 395.364 359.991C395.536 360.116 395.385 360.451 395.175 360.388C394.986 360.398 394.989 360.157 394.928 360.042Z" fill="#2A2651"/>
<path fill-rule="evenodd" clip-rule="evenodd" d="M423.615 359.923C423.885 359.848 424.015 360.315 423.733 360.383C423.425 360.491 423.28 359.971 423.615 359.923Z" fill="#2A2651"/>
<path fill-rule="evenodd" clip-rule="evenodd" d="M414.139 360.372C413.997 360.229 413.981 360.082 414.148 359.956C414.204 360.005 414.315 360.105 414.372 360.155C414.289 360.224 414.211 360.296 414.139 360.372Z" fill="#2A2651"/>
<path fill-rule="evenodd" clip-rule="evenodd" d="M347.31 365.555C349.08 365.327 350.908 366.401 351.567 368.056C352.345 369.847 351.612 372.12 349.924 373.112C348.734 373.854 347.153 373.912 345.907 373.273C344.297 372.483 343.36 370.554 343.755 368.806C344.068 367.101 345.584 365.723 347.31 365.555Z" fill="#2A2651"/>
<path fill-rule="evenodd" clip-rule="evenodd" d="M366.332 366C368.015 365.777 369.747 366.893 370.231 368.517C370.518 369.476 370.429 370.562 369.919 371.435C369.361 372.429 368.306 373.129 367.168 373.242C365.937 373.401 364.644 372.873 363.884 371.895C362.932 370.736 362.832 368.976 363.631 367.711C364.205 366.767 365.23 366.115 366.332 366Z" fill="#2A2651"/>
<path fill-rule="evenodd" clip-rule="evenodd" d="M242.721 366.771C243.727 366.517 244.856 366.839 245.567 367.595C246.622 368.662 246.634 370.541 245.592 371.619C244.651 372.679 242.919 372.864 241.764 372.051C240.678 371.339 240.204 369.863 240.646 368.649C240.968 367.732 241.769 366.992 242.721 366.771Z" fill="#2A2651"/>
<path fill-rule="evenodd" clip-rule="evenodd" d="M252.782 367.106C254.119 367.006 255.4 368.134 255.43 369.48C255.554 370.815 254.417 372.104 253.07 372.128C252.251 372.201 251.43 371.823 250.928 371.181C250.294 370.397 250.223 369.218 250.731 368.353C251.145 367.625 251.946 367.15 252.782 367.106Z" fill="#2A2651"/>
<path fill-rule="evenodd" clip-rule="evenodd" d="M375.844 367.213C376.807 367.048 377.849 367.529 378.335 368.379C378.876 369.272 378.758 370.511 378.035 371.273C377.345 372.054 376.132 372.278 375.195 371.836C374.342 371.451 373.747 370.53 373.804 369.589C373.758 368.432 374.711 367.377 375.844 367.213Z" fill="#2A2651"/>
<path fill-rule="evenodd" clip-rule="evenodd" d="M423.279 367.987C424.274 367.722 425.362 368.561 425.336 369.592C425.413 370.621 424.342 371.503 423.346 371.272C422.631 371.153 422.046 370.52 421.987 369.801C421.885 368.984 422.466 368.153 423.279 367.987Z" fill="#2A2651"/>
<path fill-rule="evenodd" clip-rule="evenodd" d="M337.789 368.077C338.735 367.74 339.87 368.469 339.904 369.481C340.018 370.388 339.231 371.273 338.313 371.245C337.505 371.288 336.741 370.628 336.673 369.825C336.558 369.073 337.061 368.291 337.789 368.077Z" fill="#2A2651"/>
<path fill-rule="evenodd" clip-rule="evenodd" d="M233.521 368.409C234.435 368.041 235.47 368.986 235.195 369.927C235.019 370.854 233.728 371.236 233.068 370.568C232.352 369.969 232.622 368.669 233.521 368.409Z" fill="#2A2651"/>
<path fill-rule="evenodd" clip-rule="evenodd" d="M357.022 368.955C357.488 368.776 358.035 369.194 357.96 369.693C357.954 370.229 357.243 370.523 356.837 370.194C356.387 369.892 356.496 369.108 357.022 368.955Z" fill="#2A2651"/>
<path fill-rule="evenodd" clip-rule="evenodd" d="M394.948 369.164C395.251 368.983 395.736 369.2 395.711 369.582C395.797 370.008 395.235 370.306 394.907 370.055C394.586 369.854 394.603 369.326 394.948 369.164Z" fill="#2A2651"/>
<path fill-rule="evenodd" clip-rule="evenodd" d="M214.833 369.286C215.276 369.077 215.565 369.845 215.09 369.975C214.657 370.144 214.398 369.428 214.833 369.286Z" fill="#2A2651"/>
<path fill-rule="evenodd" clip-rule="evenodd" d="M224.218 369.486C224.385 369.363 224.647 369.339 224.712 369.591C224.689 369.852 224.448 369.865 224.247 369.812C224.239 369.73 224.225 369.568 224.218 369.486Z" fill="#2A2651"/>
<path fill-rule="evenodd" clip-rule="evenodd" d="M262.27 369.373C262.492 369.203 262.81 369.546 262.651 369.77C262.556 369.996 262.29 369.858 262.117 369.837C262.159 369.683 262.081 369.442 262.27 369.373Z" fill="#2A2651"/>
<path fill-rule="evenodd" clip-rule="evenodd" d="M328.558 369.457C328.687 369.437 328.943 369.301 329.001 369.501C329.158 369.736 328.803 369.985 328.622 369.787C328.605 369.704 328.575 369.539 328.558 369.457Z" fill="#2A2651"/>
<path fill-rule="evenodd" clip-rule="evenodd" d="M290.145 374.711C291.993 374.388 293.963 375.371 294.806 377.043C295.741 378.792 295.313 381.134 293.795 382.422C292.261 383.814 289.737 383.888 288.125 382.588C286.489 381.371 285.946 378.965 286.859 377.153C287.468 375.868 288.737 374.927 290.145 374.711Z" fill="#2A2651"/>
<path fill-rule="evenodd" clip-rule="evenodd" d="M299.555 374.829C300.709 374.635 301.949 374.878 302.894 375.584C304.436 376.663 305.092 378.8 304.427 380.557C303.809 382.375 301.865 383.609 299.953 383.398C298.181 383.272 296.59 381.926 296.153 380.213C295.84 379.039 296.035 377.734 296.709 376.719C297.347 375.737 298.402 375.041 299.555 374.829Z" fill="#2A2651"/>
<path fill-rule="evenodd" clip-rule="evenodd" d="M356.828 375.493C357.932 375.361 359.083 375.757 359.86 376.557C360.944 377.638 361.195 379.424 360.476 380.771C360.026 381.627 359.222 382.291 358.289 382.561C357.03 382.94 355.583 382.575 354.668 381.629C353.579 380.556 353.315 378.771 354.034 377.425C354.569 376.372 355.65 375.621 356.828 375.493Z" fill="#2A2651"/>
<path fill-rule="evenodd" clip-rule="evenodd" d="M318.558 375.923C319.4 375.731 320.323 375.864 321.054 376.335C321.987 376.907 322.582 377.978 322.576 379.071C322.585 379.957 322.214 380.837 321.568 381.446C320.762 382.224 319.535 382.535 318.457 382.225C317.618 382.011 316.892 381.435 316.472 380.686C316.033 379.904 315.935 378.943 316.21 378.091C316.54 377.025 317.468 376.17 318.558 375.923Z" fill="#2A2651"/>
<path fill-rule="evenodd" clip-rule="evenodd" d="M338.035 376.37C339.052 376.265 340.099 376.791 340.624 377.667C341.035 378.321 341.11 379.149 340.905 379.886C340.601 380.926 339.619 381.717 338.539 381.806C337.504 381.913 336.435 381.37 335.925 380.464C335.41 379.605 335.436 378.464 335.978 377.625C336.413 376.91 337.205 376.449 338.035 376.37Z" fill="#2A2651"/>
<path fill-rule="evenodd" clip-rule="evenodd" d="M271.695 377.474C272.62 377.334 273.546 378.136 273.51 379.076C273.557 379.959 272.747 380.755 271.865 380.715C270.914 380.734 270.103 379.785 270.275 378.853C270.369 378.141 270.978 377.544 271.695 377.474Z" fill="#2A2651"/>
<path fill-rule="evenodd" clip-rule="evenodd" d="M243.032 377.896C243.843 377.577 244.8 378.331 244.671 379.192C244.667 380.151 243.39 380.706 242.663 380.093C241.862 379.54 242.082 378.148 243.032 377.896Z" fill="#2A2651"/>
<path fill-rule="evenodd" clip-rule="evenodd" d="M394.749 378.14C395.359 377.824 396.197 378.273 396.242 378.965C396.322 379.464 395.974 379.965 395.493 380.097C394.899 380.292 394.197 379.822 394.16 379.201C394.106 378.768 394.343 378.315 394.749 378.14Z" fill="#2A2651"/>
<path fill-rule="evenodd" clip-rule="evenodd" d="M252.765 378.449C253.282 378.293 253.777 378.925 253.498 379.385C253.299 379.861 252.519 379.854 252.324 379.38C252.131 379.019 252.363 378.524 252.765 378.449Z" fill="#2A2651"/>
<path fill-rule="evenodd" clip-rule="evenodd" d="M281.302 378.569C281.729 378.483 282.069 379.04 281.803 379.384C281.595 379.743 280.973 379.661 280.875 379.259C280.745 378.957 280.983 378.6 281.302 378.569Z" fill="#2A2651"/>
<path fill-rule="evenodd" clip-rule="evenodd" d="M413.967 378.547C414.37 378.387 414.841 378.761 414.743 379.191C414.686 379.533 414.274 379.775 413.957 379.621C413.477 379.474 413.493 378.689 413.967 378.547Z" fill="#2A2651"/>
<path fill-rule="evenodd" clip-rule="evenodd" d="M205.359 378.802C205.582 378.665 205.875 378.945 205.776 379.18C205.742 379.468 205.219 379.468 205.198 379.178C205.152 379.023 205.208 378.865 205.359 378.802Z" fill="#2A2651"/>
<path fill-rule="evenodd" clip-rule="evenodd" d="M233.77 378.892C233.921 378.826 234.194 378.835 234.166 379.07C234.218 379.279 233.993 379.331 233.836 379.318C233.676 379.221 233.696 379.031 233.77 378.892Z" fill="#2A2651"/>
<path fill-rule="evenodd" clip-rule="evenodd" d="M262.264 379.279C262.072 379.187 262.165 378.85 262.368 378.86C262.523 378.807 262.589 379.015 262.701 379.09C262.577 379.201 262.453 379.426 262.264 379.279Z" fill="#2A2651"/>
<path fill-rule="evenodd" clip-rule="evenodd" d="M328.647 378.91C328.903 378.667 329.215 379.154 328.907 379.293C328.659 379.461 328.451 379.049 328.647 378.91Z" fill="#2A2651"/>
<path fill-rule="evenodd" clip-rule="evenodd" d="M366.645 378.992C366.776 378.833 367.006 379.074 366.87 379.212C366.734 379.35 366.489 379.125 366.645 378.992Z" fill="#2A2651"/>
<path fill-rule="evenodd" clip-rule="evenodd" d="M347.127 386.091C347.64 385.227 348.992 385.102 349.665 385.843C350.291 386.453 350.272 387.569 349.62 388.154C349.161 388.605 348.456 388.694 347.861 388.496C347.825 388.548 347.754 388.654 347.718 388.707C347.709 388.63 347.693 388.478 347.684 388.402C346.895 387.953 346.612 386.844 347.127 386.091Z" fill="#2A2651"/>
<path fill-rule="evenodd" clip-rule="evenodd" d="M290.703 387.833C291.187 387.706 291.687 388.185 291.58 388.676C291.518 389.227 290.75 389.507 290.363 389.093C289.917 388.728 290.134 387.923 290.703 387.833Z" fill="#2A2651"/>
<path fill-rule="evenodd" clip-rule="evenodd" d="M252.78 388.261C252.941 388.217 253.188 388.253 253.21 388.463C253.328 388.73 252.917 389.017 252.719 388.797C252.534 388.658 252.567 388.358 252.78 388.261Z" fill="#2A2651"/>
<path fill-rule="evenodd" clip-rule="evenodd" d="M300.005 388.4C300.119 388.087 300.652 388.132 300.702 388.467C300.751 388.636 300.619 388.772 300.536 388.904C300.439 388.903 300.245 388.901 300.149 388.9C300.056 388.751 299.897 388.581 300.005 388.4Z" fill="#2A2651"/>
<path fill-rule="evenodd" clip-rule="evenodd" d="M337.926 388.629C337.827 388.28 338.352 388.011 338.569 388.319C338.747 388.511 338.6 388.766 338.451 388.926C338.245 388.891 337.955 388.893 337.926 388.629Z" fill="#2A2651"/>
<path fill-rule="evenodd" clip-rule="evenodd" d="M243.254 388.372C243.329 388.366 243.48 388.353 243.555 388.347C243.734 388.449 243.678 388.802 243.442 388.782C243.231 388.821 243.102 388.517 243.254 388.372Z" fill="#2A2651"/>
<path fill-rule="evenodd" clip-rule="evenodd" d="M271.806 388.465C271.978 388.4 272.04 388.462 271.992 388.65C271.815 388.709 271.752 388.647 271.806 388.465Z" fill="#2A2651"/>
<path fill-rule="evenodd" clip-rule="evenodd" d="M318.964 366.765C319.824 366.559 320.76 367.179 320.886 368.056C321.072 368.962 320.318 369.92 319.384 369.924C318.522 369.999 317.701 369.252 317.712 368.387C317.651 367.632 318.221 366.902 318.964 366.765Z" fill="#2A2651"/>
<path fill-rule="evenodd" clip-rule="evenodd" d="M285.262 359.661C285.506 359.562 285.862 359.587 285.985 359.862C286.251 360.249 285.768 360.806 285.342 360.61C284.932 360.49 284.892 359.853 285.262 359.661Z" fill="#2A2651"/>
<path fill-rule="evenodd" clip-rule="evenodd" d="M277.388 359.752C277.733 359.522 278.179 359.986 277.96 360.325C277.813 360.612 277.345 360.613 277.219 360.311C277.095 360.119 277.195 359.85 277.388 359.752Z" fill="#2A2651"/>
<path fill-rule="evenodd" clip-rule="evenodd" d="M334.981 359.447C335.248 359.32 335.653 359.404 335.745 359.722C335.921 360.114 335.451 360.577 335.058 360.389C334.649 360.265 334.612 359.64 334.981 359.447Z" fill="#2A2651"/>
<path fill-rule="evenodd" clip-rule="evenodd" d="M344.608 359.55C344.89 359.431 345.19 359.751 345.082 360.031C344.985 360.346 344.469 360.348 344.388 360.023C344.287 359.834 344.436 359.626 344.608 359.55Z" fill="#2A2651"/>
<path fill-rule="evenodd" clip-rule="evenodd" d="M270.901 367.723C271.711 367.404 272.669 368.158 272.539 369.019C272.536 369.978 271.259 370.533 270.531 369.919C269.731 369.367 269.951 367.974 270.901 367.723Z" fill="#2A2651"/>
<path fill-rule="evenodd" clip-rule="evenodd" d="M277.977 368.135C278.494 367.98 278.989 368.612 278.71 369.072C278.511 369.548 277.731 369.541 277.536 369.067C277.343 368.706 277.575 368.21 277.977 368.135Z" fill="#2A2651"/>
<path fill-rule="evenodd" clip-rule="evenodd" d="M285.099 367.461C285.736 367.12 286.606 367.677 286.498 368.409C286.496 369.198 285.397 369.592 284.865 369.036C284.366 368.606 284.51 367.734 285.099 367.461Z" fill="#2A2651"/>
<path fill-rule="evenodd" clip-rule="evenodd" d="M309.441 367.138C310.252 366.819 311.209 367.572 311.08 368.434C311.077 369.393 309.799 369.948 309.072 369.334C308.271 368.781 308.491 367.389 309.441 367.138Z" fill="#2A2651"/>
<path fill-rule="evenodd" clip-rule="evenodd" d="M291.863 367.376C292.338 367.279 292.743 367.834 292.525 368.262C292.364 368.657 291.768 368.752 291.495 368.423C291.144 368.086 291.375 367.418 291.863 367.376Z" fill="#2A2651"/>
<path fill-rule="evenodd" clip-rule="evenodd" d="M301.238 367.683C301.633 367.401 302.059 368.091 301.623 368.309C301.234 368.588 300.831 367.91 301.238 367.683Z" fill="#2A2651"/>
</g>
<g filter="url(#filter0_d_1024_14)">
<path d="M564 298C564 444.381 445.554 563 299.5 563C153.446 563 35 444.381 35 298C35 151.619 153.446 33 299.5 33C445.554 33 564 151.619 564 298Z" stroke="white" stroke-opacity="0.7" stroke-width="30"/>
</g>
<g filter="url(#filter1_d_1024_14)">
<path d="M522 297.5C522 420.377 422.166 520 299 520C175.834 520 76 420.377 76 297.5C76 174.623 175.834 75 299 75C422.166 75 522 174.623 522 297.5Z" stroke="white" stroke-opacity="0.6" stroke-width="6"/>
</g>
<defs>
<filter id="filter0_d_1024_14" x="0" y="0" width="599" height="600" filterUnits="userSpaceOnUse" color-interpolation-filters="sRGB">
<feFlood flood-opacity="0" result="BackgroundImageFix"/>
<feColorMatrix in="SourceAlpha" type="matrix" values="0 0 0 0 0 0 0 0 0 0 0 0 0 0 0 0 0 0 127 0" result="hardAlpha"/>
<feOffset dy="2"/>
<feGaussianBlur stdDeviation="10"/>
<feColorMatrix type="matrix" values="0 0 0 0 0.305882 0 0 0 0 0.498039 0 0 0 0 0.870588 0 0 0 0.2 0"/>
<feBlend mode="normal" in2="BackgroundImageFix" result="effect1_dropShadow_1024_14"/>
<feBlend mode="normal" in="SourceGraphic" in2="effect1_dropShadow_1024_14" result="shape"/>
</filter>
<filter id="filter1_d_1024_14" x="53" y="54" width="492" height="491" filterUnits="userSpaceOnUse" color-interpolation-filters="sRGB">
<feFlood flood-opacity="0" result="BackgroundImageFix"/>
<feColorMatrix in="SourceAlpha" type="matrix" values="0 0 0 0 0 0 0 0 0 0 0 0 0 0 0 0 0 0 127 0" result="hardAlpha"/>
<feOffset dy="2"/>
<feGaussianBlur stdDeviation="10"/>
<feColorMatrix type="matrix" values="0 0 0 0 0.305882 0 0 0 0 0.498039 0 0 0 0 0.870588 0 0 0 0.2 0"/>
<feBlend mode="normal" in2="BackgroundImageFix" result="effect1_dropShadow_1024_14"/>
<feBlend mode="normal" in="SourceGraphic" in2="effect1_dropShadow_1024_14" result="shape"/>
</filter>
<linearGradient id="paint0_linear_1024_14" x1="234" y1="281.341" x2="360.921" y2="281.341" gradientUnits="userSpaceOnUse">
<stop stop-color="#107BB7"/>
<stop offset="1" stop-color="#39B6C0"/>
</linearGradient>
<clipPath id="clip0_1024_14">
<rect width="384" height="209" fill="white" transform="translate(110 189)"/>
</clipPath>
</defs>
</svg>
