<?xml version="1.0" encoding="utf-8"?><svg viewBox="0 0 80 80" xmlns="http://www.w3.org/2000/svg" xmlns:xlink="http://www.w3.org/1999/xlink"><style>:root>svg{display:none}:root>svg:target{display:block}</style><svg viewBox="0 0 60 60" id="about-list-1" xmlns="http://www.w3.org/2000/svg"><g clip-path="url(#aa)"><path d="M57.081 50.713c-4.142-5.959-11.164-13.328-16.814-18.218a.88.88 0 00-1.15 1.33c9.63 8.336 18.938 19.872 19.135 22.9-.297-.028-1.103-.224-2.84-1.322-9.422-6.006-24.897-23.482-25.108-27.488.592.048 2.521.801 6.543 4.017a.879.879 0 101.098-1.373c-2.066-1.652-3.823-2.86-5.224-3.593-1.153-.603-2.793-1.293-3.727-.332-.289.297-.413.668-.441 1.054-1.55 4.316-1.714 8.982-.626 13.41-2.038-.111-4.16-.168-6.325-.168C17.529 40.93 0 41.264 0 45.349c0 .42.169.774.415 1.068 3.653 8.155 11.952 13.416 21.187 13.416a23.71 23.71 0 008.744-1.651.88.88 0 10-.646-1.636c-9.776 3.858-21.16.244-26.532-8.654 6.886 2.173 21.227 2.113 28.474 1.437a25.389 25.389 0 003.517 4.073 21.421 21.421 0 01-2.856 1.911.88.88 0 00.857 1.535 23.2 23.2 0 003.347-2.275c6.297 5.094 14.628 6.705 22.005 3.907.527-.044.86-.271 1.05-.466 1.485-1.53-1.177-5.426-2.48-7.301zm-55.26-5.365c1.868-1.728 13.997-3.222 26.62-2.46a25.096 25.096 0 002.14 4.769c-12.53 1.044-26.722-.383-28.76-2.31zM29.494 30.74c2.386 4.564 8.097 10.97 11.721 14.7 3.576 3.679 9.935 9.706 14.37 12.107-15.293 3.68-29.52-11.495-26.091-26.807zm-16.194.907c.083-4.205 2.317-6.444 3.641-7.405a1.1 1.1 0 00.388-1.29 1.1 1.1 0 00-1.141-.715c-1.63.148-4.785-.068-7.615-3.18a1.107 1.107 0 00-1.214-.294 1.107 1.107 0 00-.72 1.021c-.082 4.205-2.316 6.444-3.64 7.405a1.1 1.1 0 00-.389 1.29 1.1 1.1 0 001.141.715 8.672 8.672 0 012.492.143.88.88 0 00.353-1.723 10.488 10.488 0 00-1.213-.176c1.233-1.274 2.535-3.267 2.91-6.187 2.204 1.95 4.496 2.594 6.263 2.742-1.233 1.275-2.535 3.268-2.91 6.189-.325-.288-.66-.554-1.004-.797a.88.88 0 10-1.017 1.435c.612.434 1.198.956 1.74 1.554.31.34.786.455 1.215.294.429-.161.712-.562.72-1.02zm15.294-18.184c.066-3.349 1.845-5.133 2.9-5.898a.876.876 0 00.309-1.027.876.876 0 00-.91-.57c-1.297.118-3.81-.054-6.064-2.533a.882.882 0 00-.967-.234.882.882 0 00-.574.813c-.066 3.349-1.845 5.133-2.9 5.898a.876.876 0 00-.309 1.027.876.876 0 00.909.57 6.904 6.904 0 011.985.114.7.7 0 10.28-1.372 8.399 8.399 0 00-.966-.14c.983-1.016 2.02-2.603 2.319-4.929 1.755 1.554 3.58 2.067 4.988 2.185-.982 1.015-2.02 2.603-2.318 4.929a9.556 9.556 0 00-.8-.635.7.7 0 10-.81 1.143c.488.346.954.762 1.387 1.238.246.27.626.363.967.234a.882.882 0 00.574-.813z"/></g><defs><clipPath id="aa"><path d="M0 0h60v60H0z"/></clipPath></defs></svg><svg viewBox="0 0 44 60" id="about-list-2" xmlns="http://www.w3.org/2000/svg"><g clip-path="url(#ba)"><path d="M37.53 6.53V3.952A3.962 3.962 0 0033.58 0H9.877a3.962 3.962 0 00-3.951 3.95v7.297l-3.95 1.975V26.1l7.493 7.481h2.235c.58 3.297 1.05 6.099 1.11 10.617H4.939A4.937 4.937 0 000 49.136v6.913h4.173L5.16 60h9.445l.988-3.95h12.284l.987 3.95h9.445l.987-3.95h4.16v-6.914a4.937 4.937 0 00-4.938-4.939h-7.876c.062-4.518.53-7.32 1.111-10.617h2.235l7.493-7.494V13.222l-3.95-1.975V6.53zM7.902 3.95c0-1.086.89-1.975 1.976-1.975H33.58c1.087 0 1.976.89 1.976 1.976v18.765a1.981 1.981 0 01-1.976 1.975H9.877A1.981 1.981 0 017.9 22.716V3.951zm5.16 54.075h-6.37l-.493-1.976h7.345l-.481 1.976zm23.704 0h-6.358l-.493-1.976h7.345l-.494 1.976zm1.754-11.852a2.972 2.972 0 012.962 2.963v4.938H1.975V52.1h33.58v-1.975H1.976v-.988a2.972 2.972 0 012.963-2.963h33.58zM18.654 33.58h6.148c-.567 3.334-1.024 6.136-1.086 10.617h-3.988c-.049-4.481-.506-7.283-1.074-10.617zm20.852-19.148V25.26l-6.333 6.346h-1.05c.198-.988.408-1.926.605-2.729l-1.913-.469c-.95 3.84-2.062 8.63-2.148 15.79h-2.963c.098-6.962 1.172-11.58 2.098-15.32l-1.913-.47c-.235.939-.47 2.013-.704 3.198H18.31a86.608 86.608 0 00-.704-3.198l-1.914.47c.914 3.74 2 8.345 2.1 15.32h-2.964c-.099-7.16-1.21-11.95-2.148-15.79l-1.914.47c.198.802.408 1.728.605 2.728h-1.049l-6.37-6.333V14.444l1.975-.987v9.259a3.962 3.962 0 003.95 3.95H33.58a3.962 3.962 0 003.95-3.95v-9.272l1.976.988z"/><path d="M39.506 51.358h-1.975v1.975h1.975v-1.975zM23.444 12.284c0-.914-.74-1.667-1.666-1.667-.914 0-1.654.74-1.654 1.667 0 .913.74 1.666 1.666 1.666a1.673 1.673 0 001.654-1.666z"/><path d="M32.012 12.605a.584.584 0 000-.778c-.049-.062-1.123-1.271-2.913-2.494C26.95 7.864 24.407 6.84 21.79 6.84s-5.16 1.024-7.308 2.493c-1.79 1.223-2.865 2.432-2.914 2.494l.136.124-.136-.124a.584.584 0 000 .778c.05.062 1.123 1.272 2.914 2.494 2.148 1.469 4.69 2.494 7.308 2.494 2.617 0 5.16-1.025 7.309-2.494 1.79-1.222 2.864-2.432 2.913-2.494zm-14.494-3.63a5.378 5.378 0 00-1.086 3.247c0 1.223.408 2.346 1.087 3.247a15.45 15.45 0 01-2.37-1.32l-.1.147.1-.148a16.743 16.743 0 01-2.346-1.926 18.069 18.069 0 012.32-1.913 16.407 16.407 0 012.396-1.334zm.087 3.247a4.191 4.191 0 014.185-4.197 4.191 4.191 0 014.185 4.197 4.191 4.191 0 01-4.185 4.198 4.191 4.191 0 01-4.185-4.198zm10.827-1.926a16.762 16.762 0 012.346 1.926 18.068 18.068 0 01-2.321 1.914c-.655.444-1.47.926-2.383 1.333a5.378 5.378 0 001.086-3.247 5.378 5.378 0 00-1.086-3.247c.901.408 1.704.877 2.358 1.321z"/><path d="M21.79 17.778c-3.074 0-5.728-1.37-7.42-2.531-1.814-1.235-2.9-2.47-2.95-2.518a.796.796 0 01-.111-.865v-.012l.123-.136.012-.012.112-.124a17.165 17.165 0 012.827-2.382c1.691-1.149 4.345-2.531 7.42-2.531 3.074 0 5.728 1.37 7.42 2.53 1.802 1.235 2.9 2.47 2.95 2.52.26.295.26.727 0 1.011-.05.05-1.136 1.284-2.95 2.519-1.704 1.16-4.359 2.53-7.433 2.53zm-10.086-5.815a.397.397 0 000 .53c.05.05 1.098 1.248 2.876 2.458 1.642 1.123 4.222 2.456 7.21 2.456 2.976 0 5.568-1.333 7.21-2.456 1.778-1.21 2.84-2.408 2.877-2.457a.397.397 0 000-.531c-.05-.05-1.111-1.247-2.877-2.457-1.642-1.136-4.235-2.469-7.21-2.469-2.975 0-5.568 1.333-7.21 2.457-1.765 1.222-2.827 2.42-2.876 2.469zm10.086 4.642a4.381 4.381 0 01-4.37-4.383 4.381 4.381 0 014.37-4.382 4.381 4.381 0 014.37 4.382 4.381 4.381 0 01-4.37 4.383zm0-8.395c-2.21 0-4 1.802-4 4.012 0 2.21 1.803 4.013 4 4.013 2.198 0 4-1.803 4-4.013a4.01 4.01 0 00-4-4.012zm-3.69 7.716l-.654-.284a15.487 15.487 0 01-2.248-1.234l-.123-.087c-.012 0-.012-.012-.025-.012-.012-.013-.024-.013-.037-.025l-.11-.074a16.973 16.973 0 01-2.21-1.84l-.136-.135.135-.136a16.11 16.11 0 012.346-1.926c.79-.543 1.605-.988 2.42-1.346l.654-.284-.432.568a5.13 5.13 0 00-1.05 3.136c0 1.136.371 2.222 1.05 3.136l.42.543zm-2.84-1.938c.568.383 1.16.728 1.741 1.024a5.499 5.499 0 01-.753-2.79c0-.987.26-1.95.753-2.79-.593.296-1.185.642-1.765 1.037a16.746 16.746 0 00-2.16 1.753c.493.47 1.234 1.124 2.184 1.766zm10.223 1.938l.432-.568a5.129 5.129 0 001.049-3.136 5.23 5.23 0 00-1.05-3.136l-.431-.567.654.284c.815.358 1.617.802 2.395 1.333a18.208 18.208 0 012.37 1.938l.136.136-.136.136a16.118 16.118 0 01-2.345 1.926c-.79.543-1.605.987-2.42 1.345l-.654.309zm1.098-6.494c.494.852.753 1.803.753 2.79 0 1-.259 1.95-.753 2.79a15.29 15.29 0 001.766-1.037 16.746 16.746 0 002.16-1.753 16.171 16.171 0 00-2.185-1.765 12.574 12.574 0 00-1.74-1.025z"/></g><defs><clipPath id="ba"><path d="M0 0h43.457v60H0z"/></clipPath></defs></svg><svg viewBox="0 0 60 50" id="about-list-3" xmlns="http://www.w3.org/2000/svg"><path d="M42.987.001a16.861 16.861 0 00-12.987 6 16.632 16.632 0 00-12.987-6C7.617.001 0 7.618 0 17.014c0 16.101 28.101 31.823 29.24 32.43a1.37 1.37 0 001.52 0C31.898 48.836 60 33.343 60 17.014 60 7.618 52.383 0 42.987 0zM30 46.406C25.595 43.824 3.038 30.077 3.038 17.014c0-7.718 6.257-13.975 13.975-13.975a13.671 13.671 0 0111.696 6.304 1.595 1.595 0 002.582 0c4.224-6.46 12.885-8.272 19.344-4.049a13.975 13.975 0 016.327 11.72C56.962 30.229 34.405 43.9 30 46.406z"/><path d="M42.987.001a16.861 16.861 0 00-12.987 6 16.632 16.632 0 00-12.987-6C7.617.001 0 7.618 0 17.014c0 16.101 28.101 31.823 29.24 32.43a1.37 1.37 0 001.52 0C31.898 48.836 60 33.343 60 17.014 60 7.618 52.383 0 42.987 0zM30 46.406C25.595 43.824 3.038 30.077 3.038 17.014c0-7.718 6.257-13.975 13.975-13.975a13.671 13.671 0 0111.696 6.304 1.595 1.595 0 002.582 0c4.224-6.46 12.885-8.272 19.344-4.049a13.975 13.975 0 016.327 11.72C56.962 30.229 34.405 43.9 30 46.406z"/></svg><svg viewBox="0 0 48 60" id="about-list-4" xmlns="http://www.w3.org/2000/svg"><path fill-rule="evenodd" clip-rule="evenodd" d="M6.525.126c-.316.184-.43.835-.522 2.986L5.92 5.078H.52l-.25.319c-.58.737-.175 4.97.738 7.716 1.287 3.871 4.035 7.28 7.564 9.381.8.477.917.6 1.426 1.502a21.534 21.534 0 003.57 4.674c1.895 1.897 3.754 3.138 5.926 3.956.434.163.856.353.94.422.116.097.15 1.297.15 5.244v5.118l-2.793.039c-2.768.038-2.795.04-3.024.324-.21.26-.231.504-.231 2.744v2.46l-2.286.037c-2.047.034-2.313.062-2.54.268-.25.226-.255.314-.255 4.567v4.336h-.042c-3.507 0-3.559.045-3.802.13-.61.212-.753.937-.292 1.473.172.2 1.562.212 18.774.212 18.494 0 18.593-.001 18.813-.243.302-.334.28-.92-.045-1.246-.265-.264-2.097-.265-4.315-.299l.064-.034v-4.274c0-4.142-.008-4.285-.251-4.594l-.25-.319h-4.563l-.04-2.528c-.035-2.284-.06-2.552-.269-2.782-.221-.244-.34-.254-2.994-.254H27.48V32.943l1.201-.455c2.231-.845 4.084-2.1 5.94-4.02 1.547-1.603 2.37-2.729 3.668-5.023.23-.407.506-.672.98-.944 2.834-1.62 5.468-4.5 6.91-7.552 1.17-2.476 1.614-4.368 1.71-7.284.092-2.804.353-2.587-3.11-2.587h-2.661l-.006-1.119C42.102 1.953 41.94.51 41.696.24 41.477 0 41.36-.003 24.104 0 12.718.004 6.661.047 6.525.127zm33.83 2.744c.129 1.67.097 6.365-.054 7.894-.283 2.865-.975 6.062-1.808 8.347-.539 1.48-1.804 4-2.643 5.262-2.162 3.256-5.108 5.63-8.249 6.65-.737.24-1.368.66-1.601 1.067-.114.2-.168 1.653-.213 5.772l-.06 5.504-1.604.034-1.603.034v-5.339c0-5.83.008-5.76-.714-6.452-.187-.18-.85-.516-1.474-.748-6.657-2.475-11.194-9.703-12.396-19.75-.192-1.604-.257-6.953-.104-8.508l.082-.825h32.359l.081 1.058zM23.697 6.318c-.11.083-.73 1.24-1.378 2.57-.648 1.331-1.224 2.452-1.28 2.49-.056.04-1.277.248-2.712.463-1.436.216-2.738.45-2.893.521-.331.151-.54.66-.413 1.003.082.219 1.265 1.413 3.378 3.41l.78.736-.45 2.645c-.248 1.454-.45 2.794-.448 2.977.006.45.398.817.873.817.255 0 1.19-.427 2.783-1.27 1.32-.699 2.454-1.27 2.521-1.27.068 0 1.122.571 2.342 1.27 2.355 1.348 2.768 1.48 3.22 1.028a.956.956 0 00.245-.575c.002-.183-.199-1.523-.446-2.977l-.45-2.645.718-.675c1.922-1.804 3.252-3.135 3.389-3.393.2-.376.017-.908-.374-1.086-.16-.073-1.464-.309-2.897-.523-1.433-.215-2.65-.421-2.706-.458-.055-.037-.628-1.157-1.274-2.487-.645-1.331-1.264-2.488-1.374-2.571-.11-.083-.37-.151-.578-.151-.207 0-.467.068-.576.15zm-17.871.665c.013 1.066.304 4.489.49 5.762.263 1.801.986 4.803 1.489 6.18.169.463.295.855.28.87-.078.077-1.773-1.478-2.346-2.15-2.336-2.747-3.558-5.801-3.852-9.633l-.085-1.12h2.011c1.107 0 2.012.041 2.013.091zm40.466 1.09c-.3 4.312-1.955 7.909-4.947 10.755-.658.626-1.218 1.116-1.245 1.089-.026-.027.057-.317.187-.645.794-2.016 1.64-6.089 1.84-8.857l.19-2.645.063-.877h3.994l-.082 1.18zm-21.116 3.044c.53 1.06 1.017 1.958 1.081 1.998.064.04.896.179 1.85.309.952.13 1.915.269 2.14.309l.41.072-1.529 1.544c-1.774 1.794-1.686 1.506-1.224 3.992.165.892.301 1.715.301 1.83 0 .163-.385.002-1.784-.743-.982-.523-1.935-.952-2.119-.953-.184 0-1.21.437-2.279.973-1.928.965-1.945.97-1.876.635.367-1.804.684-3.868.63-4.087-.038-.15-.752-.912-1.586-1.695-.835-.784-1.496-1.447-1.469-1.475.028-.027.956-.177 2.063-.333 1.116-.158 2.132-.364 2.282-.464.152-.1.667-.982 1.175-2.009.497-1.006.919-1.829.937-1.829.018 0 .466.867.997 1.926zm6.416 36v1.874h-15.12v-3.75h15.121v1.875zm5.202 7.379v3.69H11.391v-7.38h25.404v3.69z"/></svg><svg viewBox="0 0 30 30" id="checked" xmlns="http://www.w3.org/2000/svg"><path d="M15 0C6.729 0 0 6.729 0 15s6.729 15 15 15 15-6.729 15-15S23.271 0 15 0zm0 27.273C8.233 27.273 2.727 21.767 2.727 15 2.727 8.233 8.233 2.727 15 2.727c6.767 0 12.273 5.506 12.273 12.273 0 6.767-5.506 12.273-12.273 12.273z"/><path d="M15 0C6.729 0 0 6.729 0 15s6.729 15 15 15 15-6.729 15-15S23.271 0 15 0zm0 27.273C8.233 27.273 2.727 21.767 2.727 15 2.727 8.233 8.233 2.727 15 2.727c6.767 0 12.273 5.506 12.273 12.273 0 6.767-5.506 12.273-12.273 12.273z"/><path d="M20.625 9.697L12.91 17.41l-3.536-3.536a1.364 1.364 0 00-1.928 1.928l4.5 4.5a1.364 1.364 0 001.928 0l8.678-8.678a1.364 1.364 0 10-1.928-1.928z"/><path d="M20.625 9.697L12.91 17.41l-3.536-3.536a1.364 1.364 0 00-1.928 1.928l4.5 4.5a1.364 1.364 0 001.928 0l8.678-8.678a1.364 1.364 0 10-1.928-1.928z"/></svg><svg viewBox="0 0 10 12" id="geolocation" xmlns="http://www.w3.org/2000/svg"><path fill-rule="evenodd" clip-rule="evenodd" d="M4.105.025A4.741 4.741 0 001.735 1a6.514 6.514 0 00-.703.699A4.666 4.666 0 000 4.593c0 .875.288 1.828.766 2.534.075.112.922 1.253 1.882 2.538L4.394 12h.4l1.747-2.335a270.64 270.64 0 001.882-2.538c.075-.11.203-.335.283-.498.635-1.28.64-2.764.016-4.04A4.6 4.6 0 004.105.025zm.806 3.08a1.571 1.571 0 011.172 1.171c.072.343.028.67-.132.997-.137.28-.397.539-.677.676a1.474 1.474 0 01-1.36 0 1.553 1.553 0 01-.676-.676 1.474 1.474 0 010-1.36 1.58 1.58 0 011.028-.807c.201-.044.442-.044.645-.002z"/></svg><svg viewBox="0 0 60 60" id="services-icon-1" xmlns="http://www.w3.org/2000/svg"><g clip-path="url(#ga)"><path d="M44.18 3.502c-6.785 0-12.305 5.52-12.305 12.305s5.52 12.305 12.305 12.305 12.304-5.52 12.304-12.305S50.964 3.502 44.18 3.502zm0 22.852c-5.816 0-10.547-4.731-10.547-10.547 0-5.815 4.731-10.547 10.547-10.547 5.815 0 10.547 4.732 10.547 10.547 0 5.816-4.732 10.547-10.547 10.547zM15.82 56.471c6.785 0 12.305-5.52 12.305-12.305 0-6.784-5.52-12.304-12.305-12.304-6.784 0-12.304 5.52-12.304 12.304 0 6.785 5.52 12.305 12.304 12.305zm0-22.851c5.816 0 10.547 4.731 10.547 10.547 0 5.815-4.731 10.546-10.547 10.546-5.815 0-10.547-4.73-10.547-10.546 0-5.816 4.732-10.547 10.547-10.547zm19.111 2.535l1.259-1.227 1.227 1.258-1.259 1.227-1.227-1.258z"/><path d="M21.038 46.078l-1.243-1.243-2.063 2.063-5.886-5.886-1.243 1.243 7.129 7.129 3.306-3.306zM45.839 14.39a2.96 2.96 0 00-.86-2.212 2.955 2.955 0 00-2.212-.859 3.215 3.215 0 00-2.18.946L38.4 14.453l7.133 7.135 1.243-1.242-2.593-2.594 5.252.335.112-1.755-4.24-.27c.328-.495.514-1.07.533-1.672zm-4.954.063l.945-.945a1.49 1.49 0 01.992-.432c.356-.01.68.112.914.345.234.234.357.559.346.914a1.486 1.486 0 01-.435.995l-.939.947-1.823-1.824zm4.423-6.792h1.758V9.42h-1.758V7.661zm3.516 1.758h1.757v1.758h-1.758V9.419z"/><path d="M60 15.834C60 7.11 52.903.014 44.18.014c-8.672 0-15.735 7.012-15.819 15.664-1.256 4.406-8.261 11.412-12.668 12.67A15.798 15.798 0 005.348 32.31l1.164 1.317a14.044 14.044 0 019.308-3.523c7.755 0 14.063 6.308 14.063 14.062 0 7.755-6.308 14.063-14.063 14.063-7.754 0-14.062-6.309-14.062-14.063a14.04 14.04 0 013.552-9.34l-1.314-1.169A15.796 15.796 0 000 44.167c0 8.723 7.097 15.82 15.82 15.82 8.68 0 15.748-7.026 15.819-15.69.443-1.553 1.652-3.545 3.42-5.625l-1.34-1.139c-.967 1.14-1.785 2.268-2.425 3.337-1.295-6.084-6.096-10.884-12.18-12.178 1.711-1.024 3.564-2.496 5.33-4.261 1.763-1.764 3.233-3.614 4.257-5.322 1.286 6.082 6.076 10.885 12.15 12.191a25.409 25.409 0 00-3.3 2.403l1.137 1.34c2.039-1.73 3.992-2.926 5.53-3.39C52.924 31.633 60 24.544 60 15.833zM44.18 29.896c-7.754 0-14.063-6.309-14.063-14.063 0-7.754 6.309-14.062 14.063-14.062 7.754 0 14.062 6.308 14.062 14.062S51.934 29.896 44.18 29.896z"/></g><defs><clipPath id="ga"><path d="M0 0h60v60H0z"/></clipPath></defs></svg><svg viewBox="0 0 60 50" id="services-icon-2" xmlns="http://www.w3.org/2000/svg"><path d="M15.82 27.996c-4.846 0-8.789 3.943-8.789 8.789s3.943 8.789 8.79 8.789c4.846 0 8.788-3.943 8.788-8.789s-3.942-8.79-8.789-8.79zm0 15.82a7.04 7.04 0 01-7.03-7.031 7.04 7.04 0 017.03-7.031 7.04 7.04 0 017.032 7.031 7.04 7.04 0 01-7.032 7.031z"/><path d="M57.363 31.512h-2.067c-1.859-3.904-5.714-6.68-10.237-7v-.91a2.64 2.64 0 00-2.637-2.637H36.27a2.64 2.64 0 00-2.637 2.636v6.844a12.25 12.25 0 00-1.007 2.106H30.88v-19.4a6.164 6.164 0 004.376-2.892h3.651V8.501h-2.925a6.143 6.143 0 00-.19-3.515h11.025V8.5H44.18v1.758h12.304A3.52 3.52 0 0060 6.744a3.52 3.52 0 00-3.516-3.516H34.806a6.143 6.143 0 00-9.612 0H3.516A3.52 3.52 0 000 6.744a3.52 3.52 0 003.516 3.515h21.23a6.164 6.164 0 004.375 2.892v19.4h-1.747a12.248 12.248 0 00-1.007-2.106v-6.843a2.64 2.64 0 00-2.637-2.637h-6.152a2.64 2.64 0 00-2.637 2.637v.91c-4.523.32-8.378 3.097-10.237 7H2.637A2.64 2.64 0 000 34.148v5.274a2.64 2.64 0 002.637 2.637h2.067c1.978 4.153 6.217 7.03 11.116 7.03 4.697 0 8.786-2.644 10.86-6.522a5.337 5.337 0 003.32 1.15c1.225 0 2.383-.41 3.32-1.15 2.074 3.878 6.163 6.523 10.86 6.523 4.899 0 9.138-2.878 11.116-7.031h2.067A2.64 2.64 0 0060 39.422v-5.273a2.64 2.64 0 00-2.637-2.637zM48.574 4.986h1.758V8.5h-1.758V4.986zm9.668 1.758A1.76 1.76 0 0156.484 8.5H52.09V4.986h4.394c.97 0 1.758.788 1.758 1.758zM11.426 4.986V8.5H9.668V4.986h1.758zM1.758 6.744c0-.97.788-1.758 1.758-1.758H7.91V8.5H3.516a1.76 1.76 0 01-1.758-1.757zM13.184 8.5V4.986h11.025a6.122 6.122 0 00-.19 3.515H13.184zm12.421-1.438A4.4 4.4 0 0130 2.668a4.4 4.4 0 014.395 4.395A4.4 4.4 0 0130 11.457a4.4 4.4 0 01-4.395-4.394zM4.027 40.3h-1.39a.88.88 0 01-.88-.88v-5.273a.88.88 0 01.88-.879h1.39a12.267 12.267 0 00-.511 3.516c0 1.221.178 2.401.511 3.516zm31.364-16.7a.88.88 0 01.879-.878h6.152a.88.88 0 01.879.878v.88h-7.91v-.88zm-3.265 10.71c-.108.525-.18 1.059-.22 1.597h-3.813a12.312 12.312 0 00-.219-1.597h4.252zM15.82 47.332c-5.815 0-10.547-4.732-10.547-10.547 0-5.816 4.732-10.547 10.547-10.547h3.516V24.48h-2.637v-.879a.88.88 0 01.88-.878h6.151a.88.88 0 01.88.878v.88h-3.516v1.757h3.515v4.71l.136.215a10.515 10.515 0 011.622 5.622c0 5.816-4.731 10.547-10.547 10.547zM30 41.959c-.979 0-1.895-.39-2.576-1.08.36-1.017.59-2.096.67-3.215h3.813c.08 1.12.31 2.197.67 3.215A3.598 3.598 0 0130 41.959zm14.18 5.373c-5.816 0-10.547-4.732-10.547-10.547 0-1.997.56-3.94 1.622-5.621l.136-.216v-4.71h8.789c5.815 0 10.546 4.732 10.546 10.547 0 5.816-4.73 10.547-10.546 10.547zm14.062-7.91a.88.88 0 01-.879.879h-1.39c.333-1.115.511-2.295.511-3.516s-.178-2.401-.511-3.516h1.39a.88.88 0 01.88.88v5.273z"/><path d="M44.18 27.996c-4.847 0-8.79 3.943-8.79 8.789s3.943 8.789 8.79 8.789c4.846 0 8.789-3.943 8.789-8.789s-3.943-8.79-8.79-8.79zm0 15.82a7.04 7.04 0 01-7.032-7.031 7.04 7.04 0 017.032-7.031 7.04 7.04 0 017.03 7.031 7.04 7.04 0 01-7.03 7.031zM40.664 8.501h1.758v1.758h-1.758V8.501zM29.121 5.865h1.758v1.757H29.12V5.865z"/><path d="M46.816 33.404h1.758v1.757h-1.758v-1.757zM43.3 31.646h1.759v1.758H43.3v-1.758z"/></svg><svg viewBox="0 0 80 80" id="services-icon-3" xmlns="http://www.w3.org/2000/svg"><path d="M30.772 29.747c-6.154-1.305-12.664-1.486-19.35-.54a5.238 5.238 0 00-3.535 2.13 5.208 5.208 0 00-.92 3.998c.114.644.227 1.245.335 1.788.488 2.453 1.017 4.665 1.574 6.573.849 2.913 3.193 5.092 6.12 5.688l.201.04c1.105.218 2.232.328 3.35.328 7.452 0 14.074-4.768 16.478-11.865l.145-.432a5.935 5.935 0 00-4.398-7.708zm2.8 7.178l-.142.421c-2.172 6.413-8.153 10.722-14.884 10.722-1.008 0-2.025-.1-3.02-.295l-.196-.04c-2.31-.47-4.164-2.198-4.837-4.508-.543-1.862-1.06-4.025-1.54-6.43a85.269 85.269 0 01-.328-1.754c-.17-.96.052-1.925.626-2.716a3.568 3.568 0 012.408-1.45c6.49-.919 12.803-.744 18.763.52a4.254 4.254 0 013.15 5.53z"/><path d="M30.24 32.252c-3.368-.715-6.908-1.077-10.52-1.077-.957 0-1.937.026-2.912.078a.842.842 0 10.089 1.682c.945-.05 1.895-.076 2.823-.076 3.495 0 6.917.35 10.171 1.04a1.68 1.68 0 011.127.822c.241.424.288.912.132 1.374a.842.842 0 101.595.54c.313-.925.22-1.9-.264-2.748a3.345 3.345 0 00-2.24-1.635zm42.458 4.871c.108-.542.22-1.144.335-1.788a5.207 5.207 0 00-.92-3.999 5.237 5.237 0 00-3.536-2.128c-6.686-.947-13.196-.766-19.35.539a5.936 5.936 0 00-4.4 7.708l.148.431C47.378 44.984 54 49.752 61.453 49.752c1.118 0 2.244-.11 3.352-.328l.2-.04c2.925-.596 5.27-2.775 6.119-5.688.556-1.907 1.086-4.118 1.574-6.573zm-3.19 6.102c-.674 2.31-2.528 4.038-4.836 4.508l-.195.039c-.998.197-2.015.296-3.024.296-6.73 0-12.71-4.309-14.883-10.722l-.145-.43a4.25 4.25 0 013.153-5.522 51.444 51.444 0 0110.682-1.099c2.653 0 5.352.193 8.081.58a3.568 3.568 0 012.408 1.45c.574.79.796 1.755.626 2.715a86.734 86.734 0 01-.329 1.754c-.479 2.407-.997 4.57-1.539 6.43z"/><path d="M68.218 31.743a56.83 56.83 0 00-7.938-.568c-1.01 0-2.028.029-3.026.086a.842.842 0 00.096 1.681 51.853 51.853 0 012.93-.083c2.528 0 5.12.186 7.702.552.282.04.528.188.694.417a.985.985 0 01.177.766.842.842 0 001.658.294 2.667 2.667 0 00-.471-2.049 2.697 2.697 0 00-1.822-1.096z"/><path d="M79.803 53.123l-6.534-7.795c.117-.299.222-.603.313-.915 1.3-4.46 2.137-9.432 2.422-11.262h1.665a.842.842 0 00.842-.842v-4.097a.842.842 0 00-.604-.808c-15.64-4.613-27.698-2.111-33.494-.21a14.037 14.037 0 01-8.826 0c-5.796-1.901-17.853-4.404-33.494.21a.842.842 0 00-.604.808v4.097c0 .465.377.842.842.842h1.665c.285 1.83 1.122 6.802 2.422 11.262.09.312.196.617.313.915L.197 53.123a.843.843 0 00.212 1.263 5.76 5.76 0 002.97.829c1.526 0 3.03-.613 4.154-1.788l3.062-3.204a10.67 10.67 0 003.971 1.686l.136.027a19.68 19.68 0 003.815.373c7.351 0 14.213-4.123 17.675-10.677l7.133-.988C46.598 47.768 53.77 52.31 61.483 52.31a19.72 19.72 0 003.813-.373l.119-.023c1.46-.293 2.81-.877 3.988-1.691l3.063 3.205a5.734 5.734 0 004.154 1.788 5.765 5.765 0 002.97-.829.842.842 0 00.212-1.263zm-73.487-.86a4.049 4.049 0 01-4.115 1.09l5.344-6.374a10.66 10.66 0 001.742 2.175l-2.971 3.11zm30.718-12.448c.148-.363.289-.731.416-1.107.432-1.277.814-2.41 1.1-3.263a1.528 1.528 0 012.9 0c.286.853.667 1.986 1.1 3.263.037.11.079.218.118.327l-5.634.78zm28.051 10.447l-.113.022c-8.937 1.762-17.891-3.448-20.827-12.117-.432-1.274-.813-2.407-1.099-3.258A3.21 3.21 0 0040 32.72a3.21 3.21 0 00-3.046 2.19c-.286.852-.667 1.984-1.099 3.258-2.936 8.67-11.89 13.878-20.827 12.117l-.13-.026a8.982 8.982 0 01-6.863-6.316c-1.587-5.444-2.471-11.687-2.48-11.75a.842.842 0 00-.834-.725H3.173v-2.622c14.908-4.246 26.354-1.867 31.888-.05a15.728 15.728 0 009.878 0c5.534-1.817 16.98-4.195 31.888.05v2.622h-1.548c-.42 0-.776.31-.834.725-.009.063-.892 6.302-2.48 11.75a8.992 8.992 0 01-6.88 6.32zm8.6 2.002l-2.973-3.111a10.668 10.668 0 001.742-2.175l5.345 6.376a4.049 4.049 0 01-4.115-1.09z"/></svg></svg>