<?xml version="1.0" encoding="utf-8"?><svg viewBox="0 0 40 42" xmlns="http://www.w3.org/2000/svg" xmlns:xlink="http://www.w3.org/1999/xlink"><style>:root>svg{display:none}:root>svg:target{display:block}</style><svg viewBox="0 0 30 17" id="arrow-down" xmlns="http://www.w3.org/2000/svg"><path d="M1 1.706l14 14 14-14"/></svg><svg viewBox="0 0 40 20" id="arrow-right" xmlns="http://www.w3.org/2000/svg"><path d="M23.385 1L38 10l-14.615 9M0 10h37.026"/></svg><svg viewBox="0 0 22 20" id="calculation" xmlns="http://www.w3.org/2000/svg"><path d="M20.714 8.765h-20v10.37h20V8.765zm-17.037 0v5.926M7.38 8.765v2.222m2.964-2.222v5.926m3.704-5.926v2.222m2.962-2.222v5.926M.714 8.765V1.357m20 8.148V1.357m-20 2.223h20M3.677 1.357L.714 3.58l2.963 2.223M17.01 1.357l3.704 2.222-3.703 2.223"/></svg><svg viewBox="0 0 23 20" id="calculator" xmlns="http://www.w3.org/2000/svg"><path d="M21.5.91h-20v17.931h20V.911zM11.155 9.876v8.965M1.5 9.876h19.31M6.328 12.634v3.449m-2.069-2.07h4.138m5.517-.689h4.827m-4.827 2.069h4.827"/></svg><svg viewBox="0 0 31 21" id="dollar" xmlns="http://www.w3.org/2000/svg"><path clip-rule="evenodd" d="M11 19.312h14.286c2.857 0 4.285-1.428 4.285-4.285v-10c0-1.429-1.428-4.286-4.285-4.286H11C9.571.74 7.625 1.9 6.714 3.598 3.562 4.339.937 6.303.937 10.589c0 2.857 2.92 5.866 5.777 5.866 1.429 1.429 2.857 2.857 4.286 2.857z"/><path d="M7.955 13.223a2.857 2.857 0 100-5.714 2.857 2.857 0 000 5.714zm8.759 1.804v-10s3.715 0 3.715 2.857-3.286 2.857-3.286 2.857m-1.857 2.857h3.286"/></svg><svg viewBox="0 0 22 23" id="email" xmlns="http://www.w3.org/2000/svg"><path fill-rule="evenodd" clip-rule="evenodd" d="M22 11.286v9.534c0 .733-.733 1.466-1.467 1.466H2.2c-1.467 0-2.2-.733-2.2-1.466v-9.534l11 5.133 11-5.133zm-19.8-.733h1.467V6.886c0-.733.733-1.467 1.466-1.467H17.6c.733 0 1.467.734 1.467 1.467v3.667h1.466c.734 0 1.467-.734 1.467-1.467V5.42L11 .286 0 5.42v3.667c0 .733.733 1.467 2.2 1.467z"/></svg><svg viewBox="0 0 24 22" id="fb" xmlns="http://www.w3.org/2000/svg"><path d="M22.878 1.004H1.765v19.842h21.113V1.005z"/><path d="M13.65 20.29v-9.456h-1.63V9.398h1.63v-1.16c0-.73.065-1.274.195-1.63.178-.478.489-.865.933-1.159.452-.3 1.08-.451 1.887-.451.52 0 1.094.062 1.723.185l-.277 1.61a6.194 6.194 0 00-1.087-.103c-.56 0-.957.12-1.19.36-.232.238-.348.686-.348 1.343v1.005h2.123v1.436h-2.123v9.455H13.65z"/></svg><svg viewBox="0 0 24 22" id="inst" xmlns="http://www.w3.org/2000/svg"><path d="M22.96 1.004H1.847v19.842H22.96V1.005z"/><path d="M12.483 15.132a4.286 4.286 0 100-8.572 4.286 4.286 0 000 8.572zm7.143-9.525a.794.794 0 100-1.587.794.794 0 000 1.587z"/></svg><svg viewBox="0 0 20 27" id="mark-2" xmlns="http://www.w3.org/2000/svg"><path fill-rule="evenodd" clip-rule="evenodd" d="M10 .677c5.385 0 10 4.616 10 10 0 5.385-7.692 15.385-10 15.385-3.077 0-10-10-10-15.385 0-5.384 4.615-10 10-10zm0 5.385c2.308 0 4.615 2.308 4.615 4.615 0 3.077-2.307 4.616-4.615 4.616-3.077 0-4.615-1.539-4.615-4.616 0-2.307 1.538-4.615 4.615-4.615z"/></svg><svg viewBox="0 0 27 24" id="message" xmlns="http://www.w3.org/2000/svg"><path clip-rule="evenodd" d="M5 .75h18.75c1.25 0 2.5 1.25 2.5 3.75V17c0 1.25-1.25 2.5-2.5 2.5H20s1.25 2.5-2.5 3.75c1.25-1.25-1.25-3.75-1.25-3.75H5c-2.5 0-3.75-1.25-3.75-2.5V4.5C1.25 2 2.5.75 5 .75z"/><path d="M6.25 7H22.5M6.25 10.75h7.5m-7.5 3.75H17.5"/></svg><svg viewBox="0 0 23 22" id="ok" xmlns="http://www.w3.org/2000/svg"><path d="M22.365 1.004H1.252v19.842h21.113V1.005z"/><path d="M11.888 10.687a3.016 3.016 0 100-6.032 3.016 3.016 0 000 6.032zm3.334 1.27c-.318.952-1.747 1.587-3.334 1.587-1.746 0-3.175-.635-3.492-1.587M15.539 16.72l-3.651-3.176-3.81 3.493"/></svg><svg viewBox="0 0 25 27" id="phones" xmlns="http://www.w3.org/2000/svg"><path fill-rule="evenodd" clip-rule="evenodd" d="M4.688.411s-.782 0-.782.781c-.781 0-.781.782-1.562.782 0 .78 0 .78-.781.78v1.563H.78V5.88c-.78 0-.78 0-.78.782v3.906l.781.782v1.562l.781.781v1.562h.782v.782h.781v.781l.781.782v.78c.781 0 0 0 0 0 .781 0 .781.782 1.563.782l.781 1.563.781.78c.782.782.782 0 .782.782 0 0 .78 0 .78.781l1.563.782v.78h1.564l.781.782c.781 0 .781.781.781.781h2.343l.781.782h1.563l1.562-.782h.782l.78-.78h.782l.781-.782c0-.781 0-.781.782-.781l.78-.782v-2.343h-.78v-.782h-.782v-.78h-.781L20.312 17.6h-.78l-.782-.782-.781.782h-.782l-.78.78h-.782c0 .782-.781.782-.781 1.563H13.28s-.781 0-.781-.78h-.781L10.155 17.6c0-.782-1.562-1.563-1.562-2.344h-.781v-.781l-.782-.782v-.78c-.781-.782-.781-1.563-.781-1.563 0-.782.781-.782.781-1.563h.782l.78-.781v-.781c.782-.782 1.563-.782.782-1.563V4.317l-.781-.78-.781-.782v-.781H7.03v-.782s-.781 0-.781-.78H4.687zM12.5 9.786h.781s.781.781 1.563.781h.781c0 .782.781.782.781.782v.78s.782 0 .782.782v1.563l.78.78h2.345v-.78l-.782-.782V11.35h-.781v-.782h-.781v-.78c-.782 0-.782 0-.782-.782h-.78c0-.781-1.563-.781-1.563-.781h-.781l-.782-.782H12.5v2.344zm0-4.687h1.562v.78h2.345s.782.782 1.563.782l.781.781h.781v.782c.782 0 .782 0 .782.78l.78.782.782 1.563v1.562l.781.781v1.563h.782c.78-.781.78 0 1.562 0v-1.563l-.781-.78v-2.345l-.782-.78v-.782c-.78 0-.78-.781-.78-.781v-.782h-.782v-.78h-.781V5.88h-.782v-.781h-.78s-.782 0-.782-.782h-1.564v-.78h-2.343v-.782H12.5v2.344z"/></svg><svg viewBox="0 0 22 42" id="products-arrow" xmlns="http://www.w3.org/2000/svg"><path d="M.5 1l20 20-20 20"/><path d="M.5 1l20 20-20 20"/></svg><svg viewBox="0 0 25 22" id="tw" xmlns="http://www.w3.org/2000/svg"><path d="M23.042 1.004H1.929v19.842h21.113V1.005z"/><path d="M7.803 9.735L18.12 5.448l-3.175 11.43-4.286-2.699-3.016.16 5.397-3.493"/></svg><svg viewBox="0 0 23 22" id="vk" xmlns="http://www.w3.org/2000/svg"><path d="M21.748 1.004H.635v19.842h21.113V1.005z"/><path d="M7.597 14.591v-9.09h3.41c.695 0 1.251.093 1.669.279.421.181.75.465.986.85.24.38.36.778.36 1.196 0 .388-.106.754-.317 1.097-.21.344-.529.62-.955.831.55.162.972.437 1.265.825.298.389.447.848.447 1.377 0 .426-.091.822-.273 1.19-.178.364-.4.645-.664.844a2.82 2.82 0 01-.998.452c-.397.1-.885.15-1.463.15H7.597zM8.8 9.321h1.966c.533 0 .916-.036 1.147-.106.306-.091.535-.242.688-.453.157-.21.236-.475.236-.793 0-.302-.072-.567-.217-.794a1.08 1.08 0 00-.62-.471c-.269-.087-.73-.13-1.383-.13H8.8V9.32zm0 4.197h2.264c.388 0 .661-.014.818-.043.277-.05.509-.132.695-.248.186-.116.339-.283.459-.502a1.6 1.6 0 00.18-.77c0-.338-.087-.632-.261-.88a1.352 1.352 0 00-.726-.527c-.305-.103-.748-.155-1.327-.155H8.8v3.125z"/></svg><svg viewBox="0 0 24 22" id="yt" xmlns="http://www.w3.org/2000/svg"><path d="M22.965 1.004H1.853v19.842h21.112V1.005z"/><path clip-rule="evenodd" d="M10.107 6.4l6.032 4.287-6.032 3.651V6.401z"/></svg></svg>