<?xml version="1.0" encoding="utf-8"?><svg viewBox="0 0 102 36" xmlns="http://www.w3.org/2000/svg" xmlns:xlink="http://www.w3.org/1999/xlink"><style>:root>svg{display:none}:root>svg:target{display:block}</style><svg viewBox="0 0 24 22" id="arrow-down" xmlns="http://www.w3.org/2000/svg"><path d="M10.94 21.06a1.5 1.5 0 002.12 0l9.547-9.545a1.5 1.5 0 10-2.122-2.122L12 17.88 3.515 9.393a1.5 1.5 0 00-2.122 2.122l9.546 9.546zM10.5 0v20h3V0h-3z"/></svg><svg viewBox="0 0 20 20" id="arrow-left" xmlns="http://www.w3.org/2000/svg"><path d="M12.5 5l-5 5 5 5"/></svg><svg viewBox="0 0 102 24" id="arrow-right" xmlns="http://www.w3.org/2000/svg"><path d="M101.061 13.06a1.501 1.501 0 000-2.12l-9.546-9.547a1.5 1.5 0 10-2.122 2.122L97.88 12l-8.486 8.485a1.5 1.5 0 102.122 2.122l9.546-9.546zM0 13.5h100v-3H0v3z"/></svg><svg viewBox="0 0 36 36" id="calendar" xmlns="http://www.w3.org/2000/svg"><path d="M23.687 3.001c.568.036 1.006.523.991 1.102v1.552c4.513.438 6.822 2.932 6.822 7.417v12.405c0 4.989-2.843 7.523-8.44 7.523H12.94c-5.597 0-8.44-2.534-8.44-7.523V13.072c0-2.986 1.017-5.122 3.104-6.369l.147-.083c.302-.142.657-.129.952.043.344.2.547.58.525.982a1.06 1.06 0 01-.632.916c-1.383.822-2.035 2.255-2.035 4.51v.399h19.03c.57 0 1.03.469 1.03 1.048a1.04 1.04 0 01-1.03 1.048H6.561v9.911c0 3.808 1.852 5.387 6.378 5.413h10.122c4.46 0 6.365-1.618 6.365-5.426V13.058c0-3.317-1.448-4.922-4.748-5.307V8.76c-.076.537-.538.93-1.072.909a1.052 1.052 0 01-1.002-.989V4.01l.02-.166c.042-.218.151-.417.314-.569a1.02 1.02 0 01.749-.274zm.593 21.294l.167.011c.284.036.552.166.758.374.247.25.386.589.386.943 0 .733-.584 1.327-1.304 1.327-.72 0-1.304-.594-1.304-1.327s.584-1.327 1.304-1.327h-.006zm-6.254.001l.164.01a1.32 1.32 0 011.14 1.317c0 .733-.583 1.327-1.304 1.327-.72 0-1.304-.594-1.304-1.327s.584-1.327 1.304-1.327zm-6.254 0l.166.01c.285.036.552.166.758.374.247.25.387.589.387.943 0 .733-.584 1.327-1.305 1.327-.72 0-1.304-.594-1.304-1.327s.584-1.327 1.304-1.327h-.006zm12.508-5.373l.167.01c.284.035.552.166.758.374.247.249.386.588.386.943 0 .732-.584 1.326-1.304 1.326-.72 0-1.304-.594-1.304-1.326 0-.733.584-1.327 1.304-1.327h-.006zm-6.254 0l.164.01a1.32 1.32 0 011.14 1.317c0 .732-.583 1.326-1.304 1.326-.72 0-1.304-.594-1.304-1.326 0-.733.584-1.327 1.304-1.327zm-6.254 0l.166.01c.285.035.552.166.758.374.247.249.387.588.387.943 0 .732-.584 1.326-1.305 1.326-.72 0-1.304-.594-1.304-1.326 0-.733.584-1.327 1.304-1.327h-.006zm.587-15.763c.53 0 .977.406 1.037.943v1.446h5.895c.57 0 1.03.47 1.03 1.048a1.04 1.04 0 01-1.03 1.048H13.37v1.048c0 .28-.11.55-.307.746a1.022 1.022 0 01-.737.302l-.15-.015a1.044 1.044 0 01-.854-1.046V4.103l.029-.157c.12-.458.53-.786 1.008-.786z"/></svg><svg viewBox="0 0 24 24" id="call" xmlns="http://www.w3.org/2000/svg"><path d="M4.306 10.585a.753.753 0 011.043.193c2.595 3.767 7.335 8.008 10.352 9.261 1.22.567 2.128.602 2.804.117.527-.319 2.024-1.806 1.997-2.58-.01-.09-.113-.262-.29-.442-.576-.59-2.51-2.053-2.913-2.204-.32-.068-.651.126-1.157.444l-.256.16a.75.75 0 01-.774-1.285l.23-.143c.56-.353 1.334-.835 2.306-.633.766.16 3.175 2.14 3.636 2.611.434.444.674.917.715 1.403.065 1.842-2.402 3.767-2.685 3.93-.538.387-1.17.583-1.88.583-.705 0-1.49-.194-2.338-.59-3.265-1.355-8.204-5.75-10.982-9.783a.75.75 0 01.192-1.042zM6.303 2l.176.003c.516.043.988.283 1.431.714.472.461 2.454 2.872 2.614 3.635.17.82-.198 1.46-.467 1.929-.265.46-.357.657-.266.906.668 1.636 1.703 2.973 3.064 3.945a.75.75 0 01-.873 1.22c-1.595-1.14-2.802-2.696-3.592-4.626-.347-.955.065-1.67.367-2.193.226-.392.35-.626.298-.876-.14-.36-1.603-2.29-2.193-2.865-.182-.18-.353-.284-.48-.294-.716-.017-2.18 1.398-2.512 1.949-.515.708-.479 1.614.074 2.829a.75.75 0 01-1.365.62c-.787-1.726-.772-3.167.044-4.28.304-.508 2.215-2.72 3.856-2.613L6.303 2z"/></svg><svg viewBox="0 0 36 36" id="chat" xmlns="http://www.w3.org/2000/svg"><path d="M18.01 3c2.427 0 4.844.599 6.992 1.731 7.313 3.859 10.125 12.947 6.27 20.263C28.641 29.982 23.462 33 17.992 33a14.88 14.88 0 01-3.222-.353 1.125 1.125 0 01-.853-1.34 1.125 1.125 0 011.34-.853c5.587 1.242 11.354-1.44 14.027-6.508 3.278-6.219.887-13.948-5.33-17.228a12.786 12.786 0 00-5.946-1.472c-7.044 0-12.763 5.72-12.763 12.752a12.744 12.744 0 001.443 5.899l.288.563c.353.66.431 1.481.203 2.224a25.674 25.674 0 00-.796 2.448c.843-.254 1.872-.627 2.616-.898l.305-.11a1.123 1.123 0 01.764 2.112l-.302.11c-1.112.402-2.634.956-3.661 1.186-.088.018-.181.03-.267.028-.69 0-1.11-.28-1.341-.514-.355-.361-.524-.867-.505-1.504a1.15 1.15 0 01.03-.22 26.183 26.183 0 011.034-3.37.704.704 0 00-.074-.463l-.29-.562A15.01 15.01 0 013 17.997C3 9.727 9.726 3 17.993 3h.017zm-.017 13.214c.985 0 1.784.801 1.784 1.784s-.8 1.784-1.784 1.784a1.785 1.785 0 01.001-3.568zm6.605 0c.984 0 1.784.801 1.784 1.784s-.8 1.784-1.784 1.784a1.785 1.785 0 010-3.568zm-13.21 0a1.784 1.784 0 11-1.783 1.784c0-.984.8-1.783 1.784-1.783z"/></svg><svg viewBox="0 0 24 24" id="close" xmlns="http://www.w3.org/2000/svg"><path d="M18 6L6 18M6 6l12 12"/></svg><svg viewBox="0 0 36 36" id="document" xmlns="http://www.w3.org/2000/svg"><path d="M23.78 3c4.82 0 7.707 2.927 7.72 7.815v14.37c0 4.888-2.874 7.815-7.707 7.815H19.51a1.094 1.094 0 01-.966-1.093c0-.56.416-1.031.966-1.092h4.271c3.684 0 5.539-1.895 5.539-5.63v-14.37c0-3.736-1.855-5.63-5.539-5.63H12.207c-3.684 0-5.552 1.894-5.552 5.63v14.37c0 3.736 1.868 5.63 5.552 5.63.55.061.965.532.965 1.092s-.416 1.032-.965 1.093C7.387 33 4.5 30.073 4.5 25.185v-14.37C4.5 5.914 7.387 3 12.207 3H23.78zm-.392 20.265c.592 0 1.071.486 1.071 1.086 0 .6-.48 1.086-1.07 1.086H12.572a1.079 1.079 0 01-1.072-1.086c0-.6.48-1.086 1.072-1.086h10.815zm0-6.358a1.08 1.08 0 011.037.509c.221.357.221.81 0 1.168a1.08 1.08 0 01-1.037.509H12.573A1.094 1.094 0 0111.607 18c0-.56.416-1.031.966-1.093h10.815zM16.7 10.563c.55.061.966.532.966 1.093 0 .56-.416 1.03-.966 1.092h-4.114a1.094 1.094 0 01-.966-1.092c0-.56.416-1.032.966-1.093H16.7z"/></svg><svg viewBox="0 0 36 36" id="download" xmlns="http://www.w3.org/2000/svg"><path d="M26.33 10.797c3.678 0 6.67 3.11 6.67 6.934v7.6c0 3.814-2.985 6.919-6.655 6.919H14.924c-.638 0-1.154-.54-1.154-1.2 0-.665.516-1.203 1.154-1.203h11.42c2.396 0 4.346-2.026 4.346-4.516v-7.6c0-2.5-1.956-4.533-4.36-4.533h-1.397c-.637 0-1.153-.536-1.153-1.2 0-.663.516-1.201 1.153-1.201h1.397zm-15.263 0c.637 0 1.155.539 1.155 1.201 0 .663-.518 1.201-1.155 1.201H9.655c-2.395 0-4.345 2.027-4.345 4.516v7.6c0 2.5 1.956 4.533 4.36 4.533.638 0 1.155.538 1.155 1.2 0 .663-.517 1.201-1.155 1.201-3.678 0-6.67-3.11-6.67-6.934v-7.6c0-3.814 2.985-6.917 6.655-6.917h1.412zM18 3.75c.637 0 1.156.515 1.156 1.15v17.932c0 .466-.282.885-.715 1.063-.432.177-.93.077-1.26-.251l-4.362-4.362a1.147 1.147 0 01.003-1.625 1.16 1.16 0 011.633.003l2.39 2.388V4.9c0-.634.517-1.149 1.155-1.149zm3.542 13.913a1.16 1.16 0 011.633-.01c.455.445.458 1.172.01 1.626l-1.093 1.1a1.157 1.157 0 01-1.975-.809c0-.29.11-.584.334-.809l1.09-1.098z"/></svg><svg viewBox="0 0 24 24" id="edit" xmlns="http://www.w3.org/2000/svg"><path d="M20.22 19.425c.431 0 .78.353.78.787a.784.784 0 01-.78.788h-6.624a.783.783 0 01-.779-.788c0-.434.348-.787.78-.787h6.624zM12.106 4.038c.979-1.264 2.693-1.388 4.073-.295l1.444 1.145c.63.5 1.062 1.157 1.213 1.852.168.776-.018 1.563-.523 2.214L9.702 20.06c-.436.562-1.09.89-1.798.899L4.582 21a.783.783 0 01-.769-.61l-.752-3.269a2.354 2.354 0 01.434-1.979l1.13-1.458a.772.772 0 011.094-.134.793.793 0 01.132 1.106l-1.13 1.458a.771.771 0 00-.142.65l.61 2.652 2.695-.033a.756.756 0 00.59-.295l8.611-11.105c.22-.283.296-.588.228-.907-.074-.337-.305-.674-.652-.948l-1.444-1.146c-.559-.44-1.347-.667-1.885.029l-1.138 1.466L14 7.94c.335.271.39.768.12 1.106a.772.772 0 01-1.095.123l-1.792-1.452-2.946 3.8a.772.772 0 01-1.095.133.795.795 0 01-.131-1.106l5.044-6.506z"/></svg><svg viewBox="0 0 36 36" id="filter" xmlns="http://www.w3.org/2000/svg"><path d="M27.639 20.991c.402 0 .804.045 1.197.133a1.24 1.24 0 01.949 1.484 1.26 1.26 0 01-1.506.935c-1.743-.394-3.487.978-3.487 2.74 0 1.549 1.276 2.81 2.847 2.81 1.569 0 2.846-1.261 2.846-2.81 0-.159-.013-.316-.038-.467a1.244 1.244 0 011.033-1.43 1.257 1.257 0 011.446 1.022c.049.284.074.577.074.875 0 2.917-2.406 5.292-5.361 5.292-2.957 0-5.361-2.375-5.361-5.292 0-2.919 2.404-5.292 5.36-5.292zm-11.572 4.05a1.25 1.25 0 011.258 1.242 1.25 1.25 0 01-1.258 1.24H5.757a1.25 1.25 0 01-1.257-1.24 1.25 1.25 0 011.257-1.241h10.31zM9.862 4.5c2.957 0 5.361 2.373 5.361 5.292 0 2.917-2.404 5.292-5.361 5.292S4.5 12.709 4.5 9.792c0-.298.026-.59.074-.875a1.255 1.255 0 011.447-1.021 1.244 1.244 0 011.033 1.43c-.025.15-.039.307-.039.466 0 1.549 1.276 2.81 2.847 2.81 1.57 0 2.846-1.261 2.846-2.81 0-1.55-1.275-2.81-2.846-2.81-.215 0-.43.023-.634.07a1.254 1.254 0 01-1.51-.927 1.24 1.24 0 01.94-1.49A5.326 5.326 0 019.862 4.5zm21.88 4.05A1.25 1.25 0 0133 9.791a1.25 1.25 0 01-1.258 1.242H21.434a1.25 1.25 0 01-1.257-1.242 1.25 1.25 0 011.257-1.24h10.308z"/></svg><svg viewBox="0 0 36 36" id="location" xmlns="http://www.w3.org/2000/svg"><path d="M18.05 3c7.03.028 12.727 5.763 12.7 12.784v.139c-.095 5.017-3.111 9.18-5.624 11.789a30.825 30.825 0 01-2.262 2.13 1.118 1.118 0 11-1.453-1.7 28.888 28.888 0 002.1-1.98c2.236-2.32 4.918-5.989 5-10.28.022-5.894-4.674-10.623-10.47-10.647H18c-5.777 0-10.488 4.683-10.51 10.456a13.68 13.68 0 002.789 7.838c2.015 2.683 5.072 5.525 7.978 7.416a1.117 1.117 0 11-1.222 1.873c-3.112-2.024-6.386-5.068-8.545-7.942a15.91 15.91 0 01-3.24-9.107C5.278 8.679 10.993 3 18 3h.05zm-.054 8.075a4.854 4.854 0 014.852 4.846 4.854 4.854 0 01-4.852 4.845 4.854 4.854 0 01-4.852-4.845 1.119 1.119 0 012.239 0 2.615 2.615 0 002.613 2.61 2.615 2.615 0 002.613-2.61 2.616 2.616 0 00-2.613-2.61 1.118 1.118 0 110-2.236z"/></svg><svg viewBox="0 0 24 24" id="message" xmlns="http://www.w3.org/2000/svg"><path d="M16.197 3c3.201.01 5.793 2.621 5.803 5.846v1.46l-.006.098a.71.71 0 01-.702.616l-.009-.018-.11-.009a.706.706 0 01-.597-.704V8.846c-.024-2.426-1.97-4.387-4.379-4.411H7.803c-2.408.024-4.355 1.985-4.379 4.41v6.31c.024 2.426 1.97 4.386 4.379 4.41h8.394c2.409-.024 4.355-1.985 4.379-4.41a.718.718 0 01.712-.642c.365 0 .671.276.712.642-.01 3.224-2.602 5.835-5.803 5.845H7.803C4.6 20.995 2.005 18.38 2 15.155v-6.31C2 5.618 4.598 3 7.803 3h8.394zM6.294 8.387a.695.695 0 01.518.156l4.157 3.314c.52.41 1.25.41 1.77 0l4.113-3.314h.009l.086-.06a.713.713 0 01.913.167.717.717 0 01-.115 1.006l-4.113 3.324a2.841 2.841 0 01-3.582 0L5.926 9.656l-.076-.072a.726.726 0 01-.03-.934.697.697 0 01.473-.263z"/></svg><svg viewBox="0 0 36 36" id="star" xmlns="http://www.w3.org/2000/svg"><path d="M26.247 32.88a1.005 1.005 0 01-.528-.136l-7.707-4.059-6.786 3.654a2.282 2.282 0 01-3.093-.92l-.023-.041a2.46 2.46 0 01-.237-1.5l1.32-7.791L3.676 16.5a2.401 2.401 0 010-3.34 2.24 2.24 0 011.32-.677l7.565-1.15 3.364-7.009a2.273 2.273 0 014.131 0l3.38 7.034 7.59 1.162c.613.092 1.164.43 1.524.936.672.966.57 2.271-.243 3.122l-5.492 5.52.765 4.198a1.173 1.173 0 01-.937 1.35 1.137 1.137 0 01-1.32-.92l-.779-4.198c-.13-.77.114-1.555.66-2.112l5.505-5.559-7.59-1.177a2.28 2.28 0 01-1.73-1.35l-3.377-7.004-3.42 7.115a2.276 2.276 0 01-1.73 1.35L5.298 14.94l5.464 5.55c.545.547.79 1.323.66 2.083l-1.32 7.791 6.785-3.639a2.207 2.207 0 012.164 0l7.697 4.06c.47.256.708.797.58 1.318-.117.52-.576.89-1.108.9l.027-.125z"/></svg><svg viewBox="0 0 36 36" id="wallet" xmlns="http://www.w3.org/2000/svg"><path d="M24.321 3.75C29.107 3.75 33 7.732 33 12.628v10.744c0 4.896-3.893 8.878-8.679 8.878-.552 0-1-.458-1-1.023s.448-1.023 1-1.023c3.683 0 6.679-3.064 6.679-6.832v-8.575h-4.925c-1.618.002-2.936 1.35-2.938 3.006.002 1.656 1.32 3.004 2.938 3.005h2.046c.552 0 1 .459 1 1.023 0 .565-.448 1.024-1 1.024h-2.046c-2.722-.002-4.936-2.268-4.938-5.052.002-2.785 2.216-5.05 4.938-5.052H31v-.123c0-3.768-2.996-6.832-6.679-6.832H11.677c-2.968 0-5.458 2.003-6.326 4.747h13.181c.552 0 1 .458 1 1.023 0 .566-.448 1.023-1 1.023H5.004l-.004.04v10.743c0 3.768 2.995 6.832 6.677 6.832h6.362c.552 0 1 .458 1 1.023s-.448 1.023-1 1.023h-6.362C6.892 32.25 3 28.268 3 23.372V12.628C3 7.732 6.892 3.75 11.677 3.75h12.644zm2.425 12.938c.552 0 1 .458 1 1.023 0 .564-.448 1.023-1 1.023h-.454c-.553 0-1-.459-1-1.023 0-.565.447-1.023 1-1.023h.454z"/></svg></svg>