<?xml version="1.0" encoding="utf-8"?><svg viewBox="0 0 490.4 490.4" xmlns="http://www.w3.org/2000/svg" xmlns:xlink="http://www.w3.org/1999/xlink"><style>:root>svg{display:none}:root>svg:target{display:block}</style><svg viewBox="0 0 18 12" id="arrow-right" xmlns="http://www.w3.org/2000/svg"><path fill-rule="evenodd" clip-rule="evenodd" d="M11.793.793a1 1 0 011.414 0l4.5 4.5a1 1 0 010 1.414l-4.5 4.5a1 1 0 01-1.414-1.414L14.586 7H1a1 1 0 010-2h13.586l-2.793-2.793a1 1 0 010-1.414z"/></svg><svg viewBox="0 0 490.4 490.4" id="arrow-up" xmlns="http://www.w3.org/2000/svg"><path d="M245.2 490.4c135.2 0 245.2-110 245.2-245.2S380.4 0 245.2 0 0 110 0 245.2s110 245.2 245.2 245.2zm0-465.9c121.7 0 220.7 99 220.7 220.7s-99 220.7-220.7 220.7-220.7-99-220.7-220.7 99-220.7 220.7-220.7z"/><path d="M185 216.2l48-48v183.4c0 6.8 5.5 12.3 12.3 12.3 6.8 0 12.3-5.5 12.3-12.3V168.3l48 48c2.4 2.4 5.5 3.6 8.7 3.6s6.3-1.2 8.7-3.6c4.8-4.8 4.8-12.5 0-17.3l-68.9-68.9c-4.8-4.8-12.5-4.8-17.3 0L167.9 199c-4.8 4.8-4.8 12.5 0 17.3 4.5 4.7 12.3 4.7 17.1-.1z"/></svg><svg viewBox="0 0 128 128" id="gmail" xmlns="http://www.w3.org/2000/svg"><path d="M127 16H1v6.7l63 59.8 55-52.2V104H9V50H1v62h126V16zM64 71.5L14 24h100L64 71.5z"/></svg><svg viewBox="0 0 100 50" id="logo" xmlns="http://www.w3.org/2000/svg"><path d="M52.201 28.636l-.297.668c-.643.415-1.218.684-1.725.807a5.67 5.67 0 01-1.346.186 5.244 5.244 0 01-2.115-.436c-.662-.29-1.203-.783-1.623-1.475-.415-.693-.622-1.528-.622-2.505 0-.65.08-1.234.241-1.754.161-.525.328-.915.501-1.168.18-.254.48-.535.9-.845a5.93 5.93 0 011.336-.742c.47-.186.977-.278 1.522-.278.742 0 1.394.176 1.957.529.57.346.968.791 1.197 1.335.229.545.343 1.123.343 1.735 0 .192-.01.378-.028.557l-.102.102c-.42.093-.986.155-1.697.186-.712.03-1.182.046-1.41.046h-2.979c.013 1.28.334 2.224.965 2.83.631.606 1.404.909 2.32.909.432 0 .847-.075 1.243-.223a7.698 7.698 0 001.27-.622l.15.158zm-5.947-3.794c.112.018.538.04 1.28.065.749.024 1.303.037 1.661.037.86 0 1.383-.016 1.568-.046a8.83 8.83 0 00.01-.344c0-.958-.195-1.67-.585-2.134-.39-.47-.922-.705-1.596-.705-.736 0-1.31.263-1.725.789-.408.526-.613 1.305-.613 2.338zm7.466-9.09c2.051.065 3.357.097 3.919.097.765 0 1.623-.02 2.575-.06a84.812 84.812 0 011.868-.05c1.14 0 2.08.118 2.82.354a3.722 3.722 0 011.855 1.294c.489.627.733 1.384.733 2.27 0 .733-.171 1.441-.513 2.125a5.099 5.099 0 01-1.428 1.745c-.61.48-1.229.826-1.856 1.038a6.284 6.284 0 01-1.953.305 9.367 9.367 0 01-1.684-.17l-.208-.745.11-.122c.61.138 1.107.207 1.49.207 1.065 0 1.92-.35 2.563-1.05.65-.708.976-1.611.976-2.71 0-1.107-.337-1.99-1.013-2.649-.667-.659-1.68-.988-3.04-.988-.74 0-1.554.138-2.44.415-.074.626-.11 2.14-.11 4.54v5.652l.011 2.38c.009.92.033 1.515.074 1.783.04.269.097.448.17.537.082.09.233.167.452.232.22.057.761.102 1.624.134l.097.074V33l-.097.098A239.993 239.993 0 0057.21 33c-.276 0-1.44.033-3.49.098L53.622 33v-.61l.097-.074c.757-.032 1.262-.073 1.514-.122s.419-.11.5-.183c.09-.081.16-.248.208-.5.057-.252.09-.814.098-1.685l.012-2.576V21.6l-.025-2.38c-.008-.928-.032-1.527-.073-1.795-.032-.269-.09-.448-.17-.537-.074-.09-.22-.163-.44-.22-.22-.057-.761-.102-1.624-.134l-.097-.086v-.61l.097-.085z"/><path d="M51.435 32.524l-.557 1.363a15.094 15.094 0 01-6.943 1.655c-3.526 0-6.392-1.001-8.6-3.003-2.196-2.002-3.295-4.62-3.295-7.852 0-2.226.547-4.17 1.64-5.83 1.104-1.67 2.554-2.915 4.351-3.735 1.807-.83 3.833-1.245 6.08-1.245 1.298 0 2.582.137 3.852.41 1.27.273 2.329.6 3.179.982l.102.146c-.224.547-.434 1.9-.63 4.058l-.102.117h-.689l-.117-.117-.146-2.49c-.713-.567-1.578-1.006-2.593-1.319a10.258 10.258 0 00-3.15-.483c-1.65 0-3.13.356-4.438 1.069-1.309.703-2.324 1.729-3.047 3.076-.723 1.338-1.084 2.979-1.084 4.922 0 1.953.425 3.667 1.275 5.142.85 1.474 2.006 2.607 3.471 3.398 1.475.791 3.194 1.187 5.156 1.187.87 0 1.705-.083 2.505-.25.801-.165 1.465-.37 1.992-.615a9.003 9.003 0 001.538-.893l.25.307z"/><path d="M.725 19C3.412 8.09 13.26 0 25 0h50c11.739 0 21.588 8.09 24.275 19H79.837C77.463 13.136 71.715 9 65 9H35c-6.715 0-12.463 4.136-14.837 10H.725zm0 12C3.412 41.91 13.26 50 25 50h50c11.739 0 21.588-8.09 24.275-19H79.837C77.463 36.864 71.715 41 65 41H35c-6.715 0-12.463-4.136-14.837-10H.725z"/></svg><svg viewBox="0 0 24 24" id="tg" xmlns="http://www.w3.org/2000/svg"><path d="M9.633 15.181l-.364 5.584c.52 0 .746-.244 1.016-.537l2.441-2.545 5.059 4.041c.927.564 1.581.267 1.831-.93l3.32-16.973h.001c.295-1.497-.495-2.082-1.4-1.715L2.022 10.257c-1.332.564-1.311 1.374-.226 1.741l4.99 1.693 11.59-7.91c.545-.395 1.04-.177.633.217l-9.375 9.183z"/></svg><svg viewBox="0 0 24 24" id="vk" xmlns="http://www.w3.org/2000/svg"><g clip-path="url(#fa)"><path d="M19.915 13.028c-.388-.49-.277-.708 0-1.146.005-.005 3.208-4.431 3.538-5.932l.002-.001c.164-.547 0-.949-.793-.949h-2.624c-.668 0-.976.345-1.141.731 0 0-1.336 3.198-3.226 5.271-.61.599-.892.791-1.225.791-.164 0-.419-.192-.419-.739V5.949c0-.656-.187-.949-.74-.949H9.161c-.419 0-.668.306-.668.591 0 .622.945.765 1.043 2.515v3.797c0 .832-.151.985-.486.985-.892 0-3.057-3.211-4.34-6.886-.259-.713-.512-1.001-1.185-1.001H.9c-.749 0-.9.345-.9.731 0 .682.892 4.073 4.148 8.553C6.318 17.343 9.374 19 12.154 19c1.671 0 1.875-.368 1.875-1.001 0-2.922-.151-3.198.686-3.198.388 0 1.056.192 2.616 1.667C19.114 18.217 19.407 19 20.405 19h2.624c.748 0 1.127-.368.909-1.094-.499-1.527-3.871-4.668-4.023-4.878z"/></g><defs><clipPath id="fa"><path d="M0 0h24v24H0z"/></clipPath></defs></svg><svg viewBox="0 0 24 24" id="whatsapp" xmlns="http://www.w3.org/2000/svg"><path d="M22 11.742c0 5.381-4.395 9.743-9.818 9.743a9.835 9.835 0 01-4.746-1.212L2 22l1.772-5.227a9.64 9.64 0 01-1.409-5.03C2.363 6.361 6.76 2 12.182 2 17.605 2 22 6.362 22 11.742zm-9.818-8.19c-4.552 0-8.255 3.674-8.255 8.19 0 1.793.584 3.452 1.573 4.803l-1.032 3.042 3.172-1.009a8.25 8.25 0 004.542 1.355c4.551 0 8.255-3.674 8.255-8.19 0-4.517-3.703-8.191-8.255-8.191zm4.958 10.434c-.06-.1-.221-.16-.462-.278-.24-.12-1.424-.698-1.644-.777-.22-.08-.382-.12-.542.12-.16.238-.621.776-.762.935-.14.16-.28.18-.522.06-.24-.119-1.015-.371-1.935-1.185-.715-.633-1.198-1.414-1.339-1.653-.14-.24-.014-.368.106-.487.108-.107.24-.279.361-.418.12-.14.16-.24.24-.399.081-.16.041-.298-.02-.418-.06-.12-.541-1.295-.742-1.773-.2-.478-.4-.398-.541-.398-.14 0-.3-.02-.461-.02-.16 0-.422.06-.642.299-.22.239-.842.816-.842 1.991 0 1.175.862 2.31.982 2.47.12.159 1.665 2.649 4.111 3.605 2.447.956 2.447.637 2.889.597.44-.04 1.423-.578 1.625-1.135.2-.558.2-1.036.14-1.136z"/></svg></svg>