<svg width="21" height="21" viewBox="0 0 21 21" fill="none" xmlns="http://www.w3.org/2000/svg">
<path d="M13.9199 10.6073L20.9995 15.0829V5.94263L13.9199 10.6073Z" fill="white"/>
<path d="M0 5.94263V15.0829L7.07963 10.6073L0 5.94263Z" fill="white"/>
<path d="M19.6865 3.28125H1.31146C0.656518 3.28125 0.136768 3.7695 0.0383301 4.39819L10.499 11.2901L20.9596 4.39819C20.8611 3.7695 20.3414 3.28125 19.6865 3.28125Z" fill="white"/>
<path d="M12.7186 11.4005L10.8614 12.6237C10.7512 12.6959 10.6265 12.7314 10.5005 12.7314C10.3745 12.7314 10.2498 12.6959 10.1395 12.6237L8.28236 11.3992L0.0424805 16.6111C0.143543 17.2345 0.660668 17.7189 1.31298 17.7189H19.688C20.3403 17.7189 20.8574 17.2345 20.9585 16.6111L12.7186 11.4005Z" fill="white"/>
</svg>
