<svg width="94" height="94" viewBox="0 0 94 94" fill="none" xmlns="http://www.w3.org/2000/svg">
<path d="M47 0C21.0826 0 0 21.0846 0 47C0 72.9154 21.0826 94 47 94C72.9174 94 94 72.9154 94 47C94 21.0846 72.9174 0 47 0ZM47 90.0834C23.2437 90.0834 3.91661 70.7563 3.91661 47C3.91661 23.2437 23.2437 3.91661 47 3.91661C70.7563 3.91661 90.0834 23.2437 90.0834 47C90.0834 70.7563 70.7563 90.0834 47 90.0834Z" fill="white"/>
<path d="M65.6845 45.3534L38.2679 27.7284C37.6674 27.3364 36.891 27.3153 36.2713 27.6557C35.6401 27.9999 35.25 28.6579 35.25 29.375V64.625C35.25 65.3421 35.6401 66.0001 36.2713 66.3444C36.562 66.5032 36.8871 66.5834 37.2084 66.5834C37.5756 66.5834 37.9466 66.4801 38.2679 66.2717L65.6845 48.6467C66.243 48.2872 66.5834 47.6656 66.5834 47C66.5834 46.3345 66.243 45.713 65.6845 45.3534ZM39.1666 61.0372V32.9628L61.0029 47L39.1666 61.0372Z" fill="white"/>
</svg>
