<svg width="75" height="75" viewBox="0 0 75 75" fill="none" xmlns="http://www.w3.org/2000/svg">
<g clip-path="url(#clip0_512_456)">
<path d="M64.7377 63.9471C64.6977 63.1517 64.3209 62.4065 63.7039 61.9027L52.0152 52.3588C50.8883 51.4387 49.2627 51.5205 48.2338 52.5493L47.9769 52.8062L45.131 49.9602C48.5236 46.2589 50.6631 41.5207 51.1861 36.5093C51.2441 35.954 50.841 35.457 50.2857 35.3989C49.7315 35.3405 49.2335 35.7441 49.1756 36.2993C48.1252 46.3641 40.1876 54.3359 30.123 55.4252C29.568 55.4853 29.1668 55.984 29.2269 56.539C29.2873 57.0968 29.7887 57.4952 30.3407 57.4351C35.3175 56.8965 40.0238 54.7603 43.7017 51.3895L46.5476 54.2356L46.2909 54.4924C45.2621 55.5212 45.1803 57.1468 46.1003 58.2738L55.6443 69.9625C56.148 70.5795 56.8934 70.9563 57.6888 70.9963C57.736 70.9987 57.783 70.9998 57.83 70.9998C58.5758 70.9998 59.297 70.7028 59.8266 70.173L63.9146 66.0852C64.4776 65.522 64.7777 64.7426 64.7377 63.9471ZM62.4851 64.6556L58.3971 68.7434C58.2349 68.9057 58.0191 68.9892 57.7906 68.977C57.5615 68.9655 57.3554 68.8612 57.2103 68.6836L47.6663 56.9948C47.4051 56.675 47.4285 56.2137 47.7204 55.9216L49.6634 53.9785C49.9553 53.6866 50.4167 53.6633 50.7367 53.9245L62.4254 63.4683C62.603 63.6134 62.7073 63.8195 62.7188 64.0486C62.7303 64.278 62.6472 64.4934 62.4851 64.6556Z" fill="white"/>
<path d="M51.186 31.5822C50.5296 25.2907 47.3138 19.301 41.976 15.2637V3.50951C41.976 2.67706 41.2989 2 40.4666 2H34.875C34.0426 2 33.3654 2.67706 33.3654 3.50951V9.53042H28.2859C27.6304 9.53042 27.0726 9.95116 26.8645 10.5363C20.9169 10.7633 15.3639 13.1793 11.1422 17.4009C1.96431 26.5789 1.96431 41.5125 11.1422 50.6903C14.9631 54.5112 20.0314 56.9134 25.4135 57.4543C25.967 57.5105 26.4642 57.1064 26.5202 56.5498C26.576 55.9944 26.171 55.4989 25.6156 55.443C20.6963 54.9486 16.0637 52.7532 12.5717 49.261C4.18201 40.8713 4.18201 27.2201 12.5717 18.8303C16.3907 15.0113 21.4022 12.8074 26.7762 12.5616V16.1615H21.8945C21.8941 16.1615 21.8937 16.1615 21.8931 16.1615H21.6965C20.8642 16.1615 20.187 16.8386 20.187 17.6711V17.8519C18.3068 18.7307 16.6099 19.9203 15.1359 21.3945C8.16001 28.3703 8.16001 39.7208 15.1359 46.6968C18.6243 50.1852 23.2049 51.9291 27.7871 51.9287C37.4208 51.9277 45.1623 44.3852 45.6455 34.9743C45.8649 30.7002 44.5638 26.5156 41.976 23.1499V17.8694C46.0564 21.448 48.6181 26.4521 49.1753 31.792C49.2333 32.3473 49.7309 32.7504 50.2855 32.6924C50.8409 32.6346 51.2441 32.1376 51.186 31.5822ZM35.3869 4.02162H39.9544C39.9544 4.80447 39.9544 36.0221 39.9544 37.3929H35.3869C35.3869 35.9811 35.3869 5.43625 35.3869 4.02162ZM28.7978 11.552H33.3653V37.3929H28.7978C28.7978 37.1318 28.7978 12.2839 28.7978 11.552ZM22.2088 18.1833H26.7762V37.3929H22.2088C22.2088 36.7435 22.2088 19.1064 22.2088 18.1833ZM20.1873 20.1158V22.4575H16.9458C17.9274 21.5384 19.0121 20.7544 20.1873 20.1158ZM15.6198 24.4791H20.1873V37.3928H15.6198V24.4791ZM13.5982 26.9363V37.3928H12.2794C11.5304 33.8953 11.97 30.1924 13.5982 26.9363ZM41.9761 26.9294C43.6276 30.2069 44.0597 33.9068 43.3079 37.3929H41.9761V26.9294ZM42.7289 39.4145C41.9589 41.5554 40.716 43.5604 39.0089 45.2675C30.8168 53.4593 16.7742 50.3681 12.8551 39.4145C13.7084 39.4145 41.7821 39.4145 42.7289 39.4145Z" fill="white"/>
</g>
<defs>
<clipPath id="clip0_512_456">
<rect width="73.9472" height="73.9472" fill="white" transform="translate(0.973633 0.124023)"/>
</clipPath>
</defs>
</svg>
