<svg width="74" height="74" viewBox="0 0 74 74" fill="none" xmlns="http://www.w3.org/2000/svg">
<path d="M60.8556 59.9578C60.2569 59.9578 59.7716 60.4431 59.7716 61.0418V71.2332C59.7716 71.5632 59.503 71.8317 59.1731 71.8317H53.346V50.4849C53.346 49.8863 52.8607 49.4009 52.262 49.4009C51.6634 49.4009 51.178 49.8863 51.178 50.4849V71.8319H39.4443L42.847 68.0885C43.2187 67.6795 43.394 67.0969 43.3158 66.5295C43.3144 66.5185 43.3126 66.5075 43.3108 66.4965L40.0699 47.3509L40.9431 46.0365C41.4258 46.3794 41.7977 46.7095 42.495 46.7095C43.2044 46.7095 43.8676 46.3124 44.194 45.6589V45.6587L47.6122 38.8079L55.3989 41.8236C55.6806 41.9444 59.7713 43.7866 59.7713 48.651V55.983C59.7711 56.5815 60.2565 57.067 60.8553 57.067C61.4539 57.067 61.9393 56.5817 61.9393 55.983V48.651C61.9393 42.2419 56.4515 39.9122 56.218 39.816C56.2112 39.8132 56.2043 39.8104 56.1973 39.8078L43.2375 34.7888V31.7493C45.2959 30.1485 46.7231 27.7754 47.0814 25.0681C48.1078 24.9958 49.0601 24.6125 49.8378 23.9438C50.8534 23.0704 51.4362 21.7992 51.4362 20.4568C51.4362 19.3428 51.0342 18.279 50.3179 17.4501V13.4346C50.3178 6.02681 44.2911 0 36.8833 0C29.4755 0 23.4488 6.02681 23.4488 13.4346V17.5553C22.7249 18.3758 22.3312 19.3858 22.3312 20.4567C22.3312 21.7995 22.9136 23.0705 23.9296 23.9441C24.7067 24.6125 25.6584 24.9954 26.6845 25.0678C27.0456 27.8259 28.5145 30.2874 30.7482 31.9098V34.7888L17.8024 39.8077C17.7956 39.8103 17.7889 39.813 17.7821 39.8158C17.5484 39.9119 12.0608 42.2416 12.0608 48.6507V71.2329C12.0608 72.7585 13.3019 73.9996 14.8274 73.9996H25.1552C25.7538 73.9996 26.2392 73.5142 26.2392 72.9156C26.2392 72.3169 25.7538 71.8316 25.1552 71.8316H22.8229V50.4849C22.8229 49.8863 22.3375 49.4009 21.7389 49.4009C21.1402 49.4009 20.6549 49.8863 20.6549 50.4849V71.8319H14.8276C14.4976 71.8319 14.229 71.5633 14.229 71.2334V48.6508C14.229 43.7701 18.3472 41.9321 18.6001 41.824L26.3808 38.8077L29.7993 45.6587C30.1263 46.3139 30.7905 46.7095 31.4984 46.7095C32.1923 46.7095 32.5605 46.3844 33.0503 46.0365L33.9235 47.3509L30.6829 66.4967C30.681 66.5075 30.6795 66.5183 30.6779 66.5293C30.5995 67.0965 30.7748 67.6794 31.1467 68.0887L34.5494 71.832H30.2142C29.6156 71.832 29.1302 72.3174 29.1302 72.916C29.1302 73.5147 29.6156 74 30.2142 74H59.1732C60.6987 74 61.9398 72.7588 61.9398 71.2334V61.0419C61.9395 60.4431 61.4542 59.9578 60.8556 59.9578ZM45.5816 38.0217L42.3949 44.4085C42.3157 44.3523 40.6268 43.1524 38.5623 41.6864C39.4581 40.5806 38.4101 41.8742 42.4986 36.8277L45.5816 38.0217ZM39.1743 44.7806L38.3478 46.0245H35.6447L34.8182 44.7806L36.9963 43.2336L39.1743 44.7806ZM32.9161 35.1386V33.1099C34.233 33.6408 35.6405 33.8869 37.015 33.8869C38.4362 33.8869 39.8299 33.584 41.0694 33.042V35.1474L36.9963 40.1749L32.9161 35.1386ZM49.2681 20.4568C49.2679 21.1669 48.9603 21.8388 48.4241 22.3C48.0696 22.605 47.6414 22.7999 47.1723 22.8763V18.0378C48.4182 18.2401 49.2681 19.2735 49.2681 20.4568ZM26.5949 22.8763C25.3348 22.6718 24.4992 21.63 24.4992 20.4567C24.4992 19.2978 25.4599 18.3546 26.5949 18.0923V22.8763ZM26.6531 15.8834C26.3078 15.923 25.9121 16.0165 25.6171 16.1168V13.4346C25.6171 7.22223 30.6711 2.16811 36.8835 2.16811C43.0958 2.16811 48.1498 7.22223 48.1498 13.4346V16.0424C47.8347 15.9466 47.5079 15.8833 47.1725 15.8535C47.1725 14.8075 47.1816 15.0093 43.7598 11.3305C43.1305 10.6544 42.0896 10.5128 41.2974 11.0303C37.5208 13.4973 32.9139 14.7367 28.6632 14.4314C27.7309 14.3616 26.8816 14.9758 26.6531 15.8834ZM28.763 23.7297V16.9668V16.6105C33.4422 16.8846 38.348 15.4945 42.3112 12.9564C43.8805 14.6413 44.7304 15.5251 45.0044 15.8613C45.0044 16.7117 45.0044 22.7562 45.0044 23.7296C45.0044 28.1301 41.4162 31.7187 37.0151 31.7187C32.073 31.7188 28.763 27.885 28.763 23.7297ZM31.5979 44.4085L28.4112 38.0217L31.4887 36.8297L35.4259 41.6896C33.4237 43.1114 31.7796 44.2795 31.5979 44.4085ZM32.8416 66.7304L35.9793 48.1924H38.013L41.1506 66.7304L36.9962 71.3009L32.8416 66.7304Z" fill="white"/>
</svg>
